<svg xmlns="http://www.w3.org/2000/svg" width="26200mm" height="16300mm" viewBox="-299.9999 -16874.6136 26500.0 16600.0" version="1.1" class="svg-drawing">
        <g transform="scale(1,-1)">
            
            <path d="M1500.0001,11574.6136 L4200.0001,11574.6136" style="stroke-width:var(--lw-6);" />
            
            <path d="M4500.0001,11574.6136 L5200.0001,11574.6136" style="stroke-width:var(--lw-6);" />
            
            <path d="M7500.0001,11574.6136 L7800.0001,11574.6136" style="stroke-width:var(--lw-6);" />
            
            <path d="M10800.0001,11574.6136 L12100.0001,11574.6136" style="stroke-width:var(--lw-6);" />
            
            <path d="M16900.0001,11574.6136 L17600.0001,11574.6136" style="stroke-width:var(--lw-6);" />
            
            <path d="M19900.0001,11574.6136 L20700.0001,11574.6136" style="stroke-width:var(--lw-6);" />
            
            <path d="M1000.0001,12074.6136 L5200.0001,12074.6136" style="stroke-width:var(--lw-6);" />
            
            <path d="M7500.0001,12074.6136 L7800.0001,12074.6136" style="stroke-width:var(--lw-6);" />
            
            <path d="M10800.0001,12074.6136 L12100.0001,12074.6136" style="stroke-width:var(--lw-6);" />
            
            <path d="M16600.0001,12074.6136 L17600.0001,12074.6136" style="stroke-width:var(--lw-6);" />
            
            <path d="M19900.0001,12074.6136 L21200.0001,12074.6136" style="stroke-width:var(--lw-6);" />
            
            <path d="M4500.0001,11574.6136 L4500.0001,7974.6136" style="stroke-width:var(--lw-6);" />
            
            <path d="M4500.0001,7174.6136 L4500.0001,6574.6136" style="stroke-width:var(--lw-6);" />
            
            <path d="M4500.0001,6274.6136 L4500.0001,6174.6136" style="stroke-width:var(--lw-6);" />
            
            <path d="M4500.0001,5274.6136 L4500.0001,2774.6136" style="stroke-width:var(--lw-6);" />
            
            <path d="M4200.0001,11574.6136 L4200.0001,7974.6136" style="stroke-width:var(--lw-6);" />
            
            <path d="M4200.0001,7174.6136 L4200.0001,6574.6136" style="stroke-width:var(--lw-6);" />
            
            <path d="M4200.0001,6274.6136 L4200.0001,6174.6136" style="stroke-width:var(--lw-6);" />
            
            <path d="M4200.0001,5274.6136 L4200.0001,2774.6136" style="stroke-width:var(--lw-6);" />
            
            <path d="M1500.0001,6574.6136 L2700.0001,6574.6136" style="stroke-width:var(--lw-6);" />
            
            <path d="M3500.0001,6574.6136 L4200.0001,6574.6136" style="stroke-width:var(--lw-6);" />
            
            <path d="M4500.0001,6574.6136 L7500.0001,6574.6136" style="stroke-width:var(--lw-6);" />
            
            <path d="M10100.0001,6574.6136 L10800.0001,6574.6136" style="stroke-width:var(--lw-6);" />
            
            <path d="M11100.0001,6574.6136 L12675.0001,6574.6136" style="stroke-width:var(--lw-6);" />
            
            <path d="M13675.0001,6574.6136 L15600.0001,6574.6136" style="stroke-width:var(--lw-6);" />
            
            <path d="M16900.0001,6574.6136 L17600.0001,6574.6136" style="stroke-width:var(--lw-6);" />
            
            <path d="M18500.0001,6574.6136 L20700.0001,6574.6136" style="stroke-width:var(--lw-6);" />
            
            <path d="M1500.0001,6274.6136 L2700.0001,6274.6136" style="stroke-width:var(--lw-6);" />
            
            <path d="M3500.0001,6274.6136 L4200.0001,6274.6136" style="stroke-width:var(--lw-6);" />
            
            <path d="M4500.0001,6274.6136 L7500.0001,6274.6136" style="stroke-width:var(--lw-6);" />
            
            <path d="M10100.0001,6274.6136 L12675.0001,6274.6136" style="stroke-width:var(--lw-6);" />
            
            <path d="M13675.0001,6274.6136 L15600.0001,6274.6136" style="stroke-width:var(--lw-6);" />
            
            <path d="M16900.0001,6274.6136 L17600.0001,6274.6136" style="stroke-width:var(--lw-6);" />
            
            <path d="M18500.0001,6274.6136 L20700.0001,6274.6136" style="stroke-width:var(--lw-6);" />
            
            <path d="M7500.0001,7174.6136 L7500.0001,6574.6136" style="stroke-width:var(--lw-6);" />
            
            <path d="M7500.0001,6274.6136 L7500.0001,6174.6136" style="stroke-width:var(--lw-6);" />
            
            <path d="M7500.0001,5274.6136 L7500.0001,4324.6136" style="stroke-width:var(--lw-6);" />
            
            <path d="M7800.0001,7174.6136 L7800.0001,6174.6136" style="stroke-width:var(--lw-6);" />
            
            <path d="M7800.0001,5274.6136 L7800.0001,4324.6136" style="stroke-width:var(--lw-6);" />
            
            <path d="M10800.0001,5174.6136 L10800.0001,2774.6136" style="stroke-width:var(--lw-6);" />
            
            <path d="M11100.0001,5174.6136 L11100.0001,2774.6136" style="stroke-width:var(--lw-6);" />
            
            <path d="M16600.0001,11574.6136 L16600.0001,6174.6136" style="stroke-width:var(--lw-6);" />
            
            <path d="M16600.0001,5274.6136 L16600.0001,2774.6136" style="stroke-width:var(--lw-6);" />
            
            <path d="M16900.0001,11574.6136 L16900.0001,6574.6136" style="stroke-width:var(--lw-6);" />
            
            <path d="M16900.0001,6274.6136 L16900.0001,6174.6136" style="stroke-width:var(--lw-6);" />
            
            <path d="M16900.0001,5274.6136 L16900.0001,2774.6136" style="stroke-width:var(--lw-6);" />
            
            <path d="M1500.0001,2774.6136 L2600.0001,2774.6136" style="stroke-width:var(--lw-6);" />
            
            <path d="M3500.0001,2774.6136 L4200.0001,2774.6136" style="stroke-width:var(--lw-6);" />
            
            <path d="M4500.0001,2774.6136 L5200.0001,2774.6136" style="stroke-width:var(--lw-6);" />
            
            <path d="M7500.0001,2774.6136 L7800.0001,2774.6136" style="stroke-width:var(--lw-6);" />
            
            <path d="M10100.0001,2774.6136 L10800.0001,2774.6136" style="stroke-width:var(--lw-6);" />
            
            <path d="M11100.0001,2774.6136 L12675.0001,2774.6136" style="stroke-width:var(--lw-6);" />
            
            <path d="M16900.0001,2774.6136 L17600.0001,2774.6136" style="stroke-width:var(--lw-6);" />
            
            <path d="M18500.0001,2774.6136 L20700.0001,2774.6136" style="stroke-width:var(--lw-6);" />
            
            <path d="M1000.0001,2274.6136 L2600.0001,2274.6136" style="stroke-width:var(--lw-6);" />
            
            <path d="M3500.0001,2274.6136 L5200.0001,2274.6136" style="stroke-width:var(--lw-6);" />
            
            <path d="M7500.0001,2274.6136 L7800.0001,2274.6136" style="stroke-width:var(--lw-6);" />
            
            <path d="M10100.0001,2274.6136 L12675.0001,2274.6136" style="stroke-width:var(--lw-6);" />
            
            <path d="M16600.0001,2274.6136 L17600.0001,2274.6136" style="stroke-width:var(--lw-6);" />
            
            <path d="M18500.0001,2274.6136 L21200.0001,2274.6136" style="stroke-width:var(--lw-6);" />
            
            <path d="M20700.0001,11574.6136 L20700.0001,6574.6136" style="stroke-width:var(--lw-6);" />
            
            <path d="M20700.0001,6274.6136 L20700.0001,6174.6136" style="stroke-width:var(--lw-6);" />
            
            <path d="M20700.0001,5274.6136 L20700.0001,2774.6136" style="stroke-width:var(--lw-6);" />
            
            <path d="M21200.0001,12074.6136 L21200.0001,6174.6136" style="stroke-width:var(--lw-6);" />
            
            <path d="M21200.0001,5274.6136 L21200.0001,2274.6136" style="stroke-width:var(--lw-6);" />
            
            <path d="M1500.0001,11574.6136 L1500.0001,10274.6136" style="stroke-width:var(--lw-6);" />
            
            <path d="M1500.0001,9374.6136 L1500.0001,6574.6136" style="stroke-width:var(--lw-6);" />
            
            <path d="M1500.0001,6274.6136 L1500.0001,6174.6136" style="stroke-width:var(--lw-6);" />
            
            <path d="M1500.0001,5274.6136 L1500.0001,2774.6136" style="stroke-width:var(--lw-6);" />
            
            <path d="M1000.0001,12074.6136 L1000.0001,10274.6136" style="stroke-width:var(--lw-6);" />
            
            <path d="M1000.0001,9374.6136 L1000.0001,6174.6136" style="stroke-width:var(--lw-6);" />
            
            <path d="M1000.0001,5274.6136 L1000.0001,2274.6136" style="stroke-width:var(--lw-6);" />
            
            <path d="M10800.0001,1274.6136 L11100.0001,1274.6136 L11100.0001,774.6136 L10800.0001,774.6136 Z" style="stroke-width:var(--lw-6);" />
            
            <path d="M4200.0001,1274.6136 L4500.0001,1274.6136 L4500.0001,774.6136 L4200.0001,774.6136 Z" style="stroke-width:var(--lw-6);" />
            
            <path d="M1000.0001,1274.6136 L1300.0001,1274.6136 L1300.0001,774.6136 L1000.0001,774.6136 Z" style="stroke-width:var(--lw-6);" />
            
            <path d="M10800.0001,15074.6136 L11100.0001,15074.6136 L11100.0001,14574.6136 L10800.0001,14574.6136 Z" style="stroke-width:var(--lw-6);" />
            
            <path d="M4200.0001,15074.6136 L4500.0001,15074.6136 L4500.0001,14574.6136 L4200.0001,14574.6136 Z" style="stroke-width:var(--lw-6);" />
            
            <path d="M1000.0001,15074.6136 L1300.0001,15074.6136 L1300.0001,14574.6136 L1000.0001,14574.6136 Z" style="stroke-width:var(--lw-6);" />
            
            <path d="M1000.0001,5274.6136 L1500.0001,5274.6136" style="stroke-width:var(--lw-6);" />
            
            <path d="M4200.0001,5274.6136 L4500.0001,5274.6136" style="stroke-width:var(--lw-6);" />
            
            <path d="M7500.0001,5274.6136 L7800.0001,5274.6136" style="stroke-width:var(--lw-6);" />
            
            <path d="M10100.0001,5174.6136 L10800.0001,5174.6136" style="stroke-width:var(--lw-5);" />
            
            <path d="M11100.0001,5174.6136 L11200.0001,5174.6136" style="stroke-width:var(--lw-5);" />
            
            <path d="M12000.0001,5174.6136 L12675.0001,5174.6136" style="stroke-width:var(--lw-5);" />
            
            <path d="M16600.0001,5274.6136 L16900.0001,5274.6136" style="stroke-width:var(--lw-6);" />
            
            <path d="M20700.0001,5274.6136 L21200.0001,5274.6136" style="stroke-width:var(--lw-6);" />
            
            <path d="M1000.0001,6174.6136 L1500.0001,6174.6136" style="stroke-width:var(--lw-6);" />
            
            <path d="M4200.0001,6174.6136 L4500.0001,6174.6136" style="stroke-width:var(--lw-6);" />
            
            <path d="M7500.0001,6174.6136 L7800.0001,6174.6136" style="stroke-width:var(--lw-6);" />
            
            <path d="M10800.0001,6274.6136 L11100.0001,6274.6136" style="stroke-width:var(--lw-6);" />
            
            <path d="M16600.0001,6174.6136 L16900.0001,6174.6136" style="stroke-width:var(--lw-6);" />
            
            <path d="M20700.0001,6174.6136 L21200.0001,6174.6136" style="stroke-width:var(--lw-6);" />
            
            <path d="M24900.0001,12074.6136 L25200.0001,12074.6136 L25200.0001,11574.6136 L24900.0001,11574.6136 Z" style="stroke-width:var(--lw-6);" />
            
            <path d="M24900.0001,6774.6136 L25200.0001,6774.6136 L25200.0001,6274.6136 L24900.0001,6274.6136 Z" style="stroke-width:var(--lw-6);" />
            
            <path d="M24900.0001,2774.6136 L25200.0001,2774.6136 L25200.0001,2274.6136 L24900.0001,2274.6136 Z" style="stroke-width:var(--lw-6);" />
            
            <path d="M15050.0001,3774.6136 L16600.0001,3774.6136" style="stroke-width:var(--lw-1);" />
            
            <path d="M15600.0001,2774.6136 L15600.0001,4874.6136" style="stroke-width:var(--lw-1);" />
            
            <path d="M16600.0001,4049.6136 L15600.0001,4049.6136" style="stroke-width:var(--lw-1);" />
            
            <path d="M12675.0001,5149.6136 L16600.0001,5149.6136" style="stroke-width:var(--lw-1);" />
            
            <path d="M15050.0001,2774.6136 L15050.0001,3774.6136" style="stroke-width:var(--lw-1);" />
            
            <path d="M15325.0001,2774.6136 L15325.0001,3774.6136" style="stroke-width:var(--lw-1);" />
            
            <path d="M16600.0001,4324.6136 L15600.0001,4324.6136" style="stroke-width:var(--lw-1);" />
            
            <path d="M16600.0001,4599.6136 L15600.0001,4599.6136" style="stroke-width:var(--lw-1);" />
            
            <path d="M16600.0001,4874.6136 L15600.0001,4874.6136" style="stroke-width:var(--lw-1);" />
            
            <path d="M12675.0001,5174.6136 L12675.0001,2774.6136" style="stroke-width:var(--lw-5);" />
            
            <path d="M10100.0001,5024.6136 L10800.0001,5024.6136" style="stroke-width:var(--lw-5);" />
            
            <path d="M11100.0001,5024.6136 L11200.0001,5024.6136" style="stroke-width:var(--lw-5);" />
            
            <path d="M12000.0001,5024.6136 L12525.0001,5024.6136" style="stroke-width:var(--lw-5);" />
            
            <path d="M12525.0001,5024.6136 L12525.0001,3824.6136" style="stroke-width:var(--lw-5);" />
            
            <path d="M12325.0001,3724.6136 L12325.0001,2774.6136" style="stroke-width:var(--lw-5);" />
            
            <path d="M1500.0001,5174.6136 L2700.0001,5174.6136" style="stroke-width:var(--lw-5);" />
            
            <path d="M3500.0001,5174.6136 L4200.0001,5174.6136" style="stroke-width:var(--lw-5);" />
            
            <path d="M4500.0001,5174.6136 L7500.0001,5174.6136" style="stroke-width:var(--lw-5);" />
            
            <path d="M1500.0001,5024.6136 L2700.0001,5024.6136" style="stroke-width:var(--lw-5);" />
            
            <path d="M3500.0001,5024.6136 L4200.0001,5024.6136" style="stroke-width:var(--lw-5);" />
            
            <path d="M4500.0001,5024.6136 L7500.0001,5024.6136" style="stroke-width:var(--lw-5);" />
            
            <path d="M16900.0001,5174.6136 L17600.0001,5174.6136" style="stroke-width:var(--lw-5);" />
            
            <path d="M18500.0001,5174.6136 L20700.0001,5174.6136" style="stroke-width:var(--lw-5);" />
            
            <path d="M16900.0001,5024.6136 L17600.0001,5024.6136" style="stroke-width:var(--lw-5);" />
            
            <path d="M18500.0001,5024.6136 L18600.0001,5024.6136" style="stroke-width:var(--lw-5);" />
            
            <path d="M18700.0001,4824.6136 L19600.0001,4824.6136" style="stroke-width:var(--lw-5);" />
            
            <path d="M19700.0001,5024.6136 L20700.0001,5024.6136" style="stroke-width:var(--lw-5);" />
            
            <path d="M17600.0001,12074.6136 L17600.0001,11574.6136" style="stroke-width:var(--lw-6);" />
            
            <path d="M19900.0001,12074.6136 L19900.0001,11574.6136" style="stroke-width:var(--lw-6);" />
            
            <path d="M17600.0001,6574.6136 L17600.0001,6274.6136" style="stroke-width:var(--lw-6);" />
            
            <path d="M17600.0001,5174.6136 L17600.0001,5024.6136" style="stroke-width:var(--lw-5);" />
            
            <path d="M17600.0001,2774.6136 L17600.0001,2274.6136" style="stroke-width:var(--lw-6);" />
            
            <path d="M18500.0001,6574.6136 L18500.0001,6274.6136" style="stroke-width:var(--lw-6);" />
            
            <path d="M18500.0001,5174.6136 L18500.0001,5024.6136" style="stroke-width:var(--lw-5);" />
            
            <path d="M18500.0001,2774.6136 L18500.0001,2274.6136" style="stroke-width:var(--lw-6);" />
            
            <path d="M10100.0001,2774.6136 L10100.0001,2274.6136" style="stroke-width:var(--lw-6);" />
            
            <path d="M5200.0001,2774.6136 L5200.0001,2274.6136" style="stroke-width:var(--lw-6);" />
            
            <path d="M7800.0001,2774.6136 L7800.0001,2274.6136" style="stroke-width:var(--lw-6);" />
            
            <path d="M7500.0001,2774.6136 L7500.0001,2274.6136" style="stroke-width:var(--lw-6);" />
            
            <path d="M10100.0001,5174.6136 L10100.0001,5024.6136" style="stroke-width:var(--lw-5);" />
            
            <path d="M10800.0001,5174.6136 L11100.0001,5174.6136" style="stroke-width:var(--lw-6);" />
            
            <path d="M3500.0001,2774.6136 L3500.0001,2274.6136" style="stroke-width:var(--lw-6);" />
            
            <path d="M2600.0001,2774.6136 L2600.0001,2274.6136" style="stroke-width:var(--lw-6);" />
            
            <path d="M1000.0001,9374.6136 L1500.0001,9374.6136" style="stroke-width:var(--lw-6);" />
            
            <path d="M1000.0001,10274.6136 L1500.0001,10274.6136" style="stroke-width:var(--lw-6);" />
            
            <path d="M12675.0001,2774.6136 L12675.0001,2274.6136" style="stroke-width:var(--lw-6);" />
            
            <path d="M16600.0001,2774.6136 L16600.0001,2274.6136" style="stroke-width:var(--lw-6);" />
            
            <path d="M16600.0001,11574.6136 L16600.0001,12074.6136" style="stroke-width:var(--lw-6);" />
            
            <path d="M10800.0001,11574.6136 L10800.0001,12074.6136" style="stroke-width:var(--lw-6);" />
            
            <path d="M12100.0001,11574.6136 L12100.0001,12074.6136" style="stroke-width:var(--lw-6);" />
            
            <path d="M5200.0001,12074.6136 L5200.0001,11574.6136" style="stroke-width:var(--lw-6);" />
            
            <path d="M7500.0001,12074.6136 L7500.0001,11574.6136" style="stroke-width:var(--lw-6);" />
            
            <path d="M7800.0001,12074.6136 L7800.0001,11574.6136" style="stroke-width:var(--lw-6);" />
            
            <path d="M12675.0001,6274.6136 L12675.0001,6574.6136" style="stroke-width:var(--lw-6);" />
            
            <path d="M13675.0001,6274.6136 L13675.0001,6574.6136" style="stroke-width:var(--lw-6);" />
            
            <path d="M15600.0001,6274.6136 L15600.0001,6574.6136" style="stroke-width:var(--lw-6);" />
            
            <path d="M10100.0001,6274.6136 L10100.0001,6574.6136" style="stroke-width:var(--lw-6);" />
            
            <path d="M7500.0001,4324.6136 L7800.0001,4324.6136" style="stroke-width:var(--lw-6);" />
            
            <path d="M3500.0001,6574.6136 L3500.0001,6274.6136" style="stroke-width:var(--lw-6);" />
            
            <path d="M2700.0001,6574.6136 L2700.0001,6274.6136" style="stroke-width:var(--lw-6);" />
            
            <path d="M3500.0001,5174.6136 L3500.0001,5024.6136" style="stroke-width:var(--lw-5);" />
            
            <path d="M2700.0001,5174.6136 L2700.0001,5024.6136" style="stroke-width:var(--lw-5);" />
            
            <path d="M7500.0001,7174.6136 L7800.0001,7174.6136" style="stroke-width:var(--lw-6);" />
            
            <path d="M4200.0001,7174.6136 L4500.0001,7174.6136" style="stroke-width:var(--lw-6);" />
            
            <path d="M4200.0001,7974.6136 L4500.0001,7974.6136" style="stroke-width:var(--lw-6);" />
            
            <path d="M10800.0001,7174.6136 L10800.0001,6574.6136" style="stroke-width:var(--lw-6);" />
            
            <path d="M11100.0001,7174.6136 L11100.0001,6574.6136" style="stroke-width:var(--lw-6);" />
            
            <path d="M10800.0001,7174.6136 L11100.0001,7174.6136" style="stroke-width:var(--lw-6);" />
            
            <path d="M4200.0001,8374.6136 L3500.0001,8374.6136" style="stroke-width:var(--lw-5);" />
            
            <path d="M2700.0001,8374.6136 L1500.0001,8374.6136" style="stroke-width:var(--lw-5);" />
            
            <path d="M4200.0001,8524.6136 L3500.0001,8524.6136" style="stroke-width:var(--lw-5);" />
            
            <path d="M2700.0001,8524.6136 L1500.0001,8524.6136" style="stroke-width:var(--lw-5);" />
            
            <path d="M3500.0001,8524.6136 L3500.0001,8374.6136" style="stroke-width:var(--lw-5);" />
            
            <path d="M2700.0001,8524.6136 L2700.0001,8374.6136" style="stroke-width:var(--lw-5);" />
            
            <path d="M12675.0001,2274.6136 L12675.0001,274.6136 L0.0001,274.6136 L0.0001,16574.6136 L12100.0001,16574.6136 L12100.0001,15074.6136 L26200.0001,15074.6136 L26200.0001,12074.6136 L21200.0001,12074.6136" style="stroke-width:var(--lw-5);" />
            
            <path d="M12675.0001,1274.6136 L26200.0001,1274.6136 L26200.0001,12074.6136" style="stroke-width:var(--lw-1);" />
            
            <path d="M11200.0001,5174.6136 L11200.0001,5024.6136" style="stroke-width:var(--lw-5);" />
            
            <path d="M12000.0001,5174.6136 L12000.0001,5024.6136" style="stroke-width:var(--lw-5);" />
            
            <path d="M4500.0001,7174.6136 L7500.0001,7174.6136" style="stroke-width:var(--lw-3);" />
            
            <path d="M5100.0001,8174.6136 L5100.0001,11574.6136" style="stroke-width:var(--lw-3);" />
            
            <path d="M5100.0001,8174.6136 L4500.0001,8174.6136" style="stroke-width:var(--lw-3);" />
            
            <path d="M7300.0001,10574.6136 L6300.0001,10574.6136 L6300.0001,8174.6136 L7300.0001,8174.6136 Z" style="stroke-width:var(--lw-3);" />
            
            <path d="M9750.0001,10574.6136 L8850.0001,10574.6136 L8850.0001,8174.6136 L9750.0001,8174.6136 Z" style="stroke-width:var(--lw-3);" />
            
            <path d="M10150.0001,5024.6136 L10150.0001,2774.6136" style="stroke-width:var(--lw-3);" />
            
            <path d="M12675.0001,2274.6136 L16600.0001,2274.6136" style="stroke-width:var(--lw-5);" />
            
            <path d="M14775.0001,2774.6136 L16600.0001,2774.6136" style="stroke-width:var(--lw-1);" />
            
            <path d="M17600.0001,2274.6136 L18500.0001,2274.6136" style="stroke-width:var(--lw-5);" />
            
            <path d="M21200.0001,6174.6136 L21200.0001,5274.6136" style="stroke-width:var(--lw-5);" />
            
            <path d="M11100.0001,7174.6136 L12575.0001,7174.6136 L12575.0001,6574.6136 L11100.0001,6574.6136 Z" style="stroke-width:var(--lw-3);" />
            
            <path d="M12575.0001,6574.6136 L12575.0001,7174.6136 L12675.0001,7174.6136 L12675.0001,6574.6136" style="stroke-width:var(--lw-5);" />
            
            <path d="M11100.0001,7174.6136 L12575.0001,6574.6136" style="stroke-width:var(--lw-3);" />
            
            <path d="M12575.0001,7174.6136 L11100.0001,6574.6136" style="stroke-width:var(--lw-3);" />
            
            <path d="M10150.0001,5024.6136 L10800.0001,2774.6136" style="stroke-width:var(--lw-3);" />
            
            <path d="M10800.0001,5024.6136 L10150.0001,2774.6136" style="stroke-width:var(--lw-3);" />
            
            <path d="M4500.0001,4374.6136 L7500.0001,4374.6136" style="stroke-width:var(--lw-3);" />
            
            <path d="M5150.0001,5024.6136 L5150.0001,2774.6136" style="stroke-width:var(--lw-3);" />
            
            <path d="M4500.0001,4374.6136 L5150.0001,2774.6136" style="stroke-width:var(--lw-3);" />
            
            <path d="M5150.0001,4374.6136 L4500.0001,2774.6136" style="stroke-width:var(--lw-3);" />
            
            <path d="M5150.0001,4374.6136 L7500.0001,5024.6136" style="stroke-width:var(--lw-3);" />
            
            <path d="M5150.0001,5024.6136 L7500.0001,4374.6136" style="stroke-width:var(--lw-3);" />
            
            <path d="M13675.0001,6574.6136 L13675.0001,7174.6136 L13925.0001,7174.6136" style="stroke-width:var(--lw-5);" />
            
            <path d="M15350.0001,7174.6136 L15600.0001,7174.6136 L15600.0001,6574.6136" style="stroke-width:var(--lw-5);" />
            
            <path d="M14387.5001,6824.6136 L14887.5001,6824.6136 L14887.5001,6574.6136 L14387.5001,6574.6136 Z" style="stroke-width:var(--lw-5);" />
            
            <path d="M13925.0001,7174.6136 L13925.0001,6924.6136 L15350.0001,6924.6136 L15350.0001,7174.6136" style="stroke-width:var(--lw-5);" />
            
            <path d="M13925.0001,7174.6136 L15350.0001,7174.6136" style="stroke-width:var(--lw-3);" />
            
            <path d="M8400.0001,9449.6136 L8750.0001,9449.6136 L8750.0001,9849.6136 L8400.0001,9849.6136 Z" style="stroke-width:var(--lw-3);" />
            
            <path d="M8400.0001,9999.6136 L8750.0001,9999.6136 L8750.0001,10399.6136 L8400.0001,10399.6136 Z" style="stroke-width:var(--lw-3);" />
            
            <path d="M8400.0001,9299.6136 L8750.0001,9299.6136 L8750.0001,8899.6136 L8400.0001,8899.6136 Z" style="stroke-width:var(--lw-3);" />
            
            <path d="M8400.0001,8749.6136 L8750.0001,8749.6136 L8750.0001,8349.6136 L8400.0001,8349.6136 Z" style="stroke-width:var(--lw-3);" />
            
            <path d="M10200.0001,9449.6136 L9850.0001,9449.6136 L9850.0001,9849.6136 L10200.0001,9849.6136 Z" style="stroke-width:var(--lw-3);" />
            
            <path d="M10200.0001,9999.6136 L9850.0001,9999.6136 L9850.0001,10399.6136 L10200.0001,10399.6136 Z" style="stroke-width:var(--lw-3);" />
            
            <path d="M10200.0001,9299.6136 L9850.0001,9299.6136 L9850.0001,8899.6136 L10200.0001,8899.6136 Z" style="stroke-width:var(--lw-3);" />
            
            <path d="M10200.0001,8749.6136 L9850.0001,8749.6136 L9850.0001,8349.6136 L10200.0001,8349.6136 Z" style="stroke-width:var(--lw-3);" />
            
            <path d="M7750.0001,9449.6136 L7400.0001,9449.6136 L7400.0001,9849.6136 L7750.0001,9849.6136 Z" style="stroke-width:var(--lw-3);" />
            
            <path d="M7750.0001,9999.6136 L7400.0001,9999.6136 L7400.0001,10399.6136 L7750.0001,10399.6136 Z" style="stroke-width:var(--lw-3);" />
            
            <path d="M7750.0001,9299.6136 L7400.0001,9299.6136 L7400.0001,8899.6136 L7750.0001,8899.6136 Z" style="stroke-width:var(--lw-3);" />
            
            <path d="M7750.0001,8749.6136 L7400.0001,8749.6136 L7400.0001,8349.6136 L7750.0001,8349.6136 Z" style="stroke-width:var(--lw-3);" />
            
            <path d="M12025.0001,3824.6136 L12525.0001,3824.6136" style="stroke-width:var(--lw-5);" />
            
            <path d="M12025.0001,3724.6136 L12325.0001,3724.6136" style="stroke-width:var(--lw-5);" />
            
            <path d="M12025.0001,3824.6136 L12025.0001,3724.6136" style="stroke-width:var(--lw-5);" />
            
            <path d="M12125.0001,3824.6136 L12125.0001,5024.6136 L12525.0001,5024.6136 L12525.0001,3824.6136 Z" style="stroke-width:var(--lw-3);" />
            
            <path d="M12174.5519,4249.6136 A75,75 0 0 1 12249.5519,4174.6136 L12349.5519,4174.6136 A75,75 0 0 1 12424.5519,4249.6136 L12424.5519,4599.6136 A75,75 0 0 1 12349.5519,4674.6136 L12249.5519,4674.6136 A75,75 0 0 1 12174.5519,4599.6136 Z" style="stroke-width:var(--lw-3);" />
            
            <path d="M12027.5001,3432.1136 L12325.0001,3432.1136 L12325.0001,3067.1136 L12027.5001,3067.1136 A182.5,182.5 0 0 0 12027.5001,3432.1136" style="stroke-width:var(--lw-3);" />
            
            <path d="M3650.0001,3338.8993 A50,50 0 0 0 3600.0001,3388.8993 L3600.0001,4410.3279 A100,100 0 0 0 3613.6222,4460.715 L3688.6222,4589.2864 A100,100 0 0 0 3861.378,4589.2864 L3936.378,4460.715 A100,100 0 0 0 3950.0001,4410.3279 L3950.0001,3388.8993 A50,50 0 0 0 3900.0001,3338.8993 Z" style="stroke-width:var(--lw-3);" />
            
            <path d="M2100.0001,5024.6136 L2100.0001,2774.6136" style="stroke-width:var(--lw-3);" />
            
            <circle cx="1800.0001" cy="3074.6136" r="200" style="stroke-width:var(--lw-3);" />
            
            <circle cx="1800.0001" cy="3674.6136" r="200" style="stroke-width:var(--lw-3);" />
            
            <path d="M2100.0001,8374.6136 L2100.0001,6574.6136" style="stroke-width:var(--lw-3);" />
            
            <path d="M1500.0001,8374.6136 L2100.0001,6574.6136" style="stroke-width:var(--lw-3);" />
            
            <path d="M2100.0001,8374.6136 L1500.0001,6574.6136" style="stroke-width:var(--lw-3);" />
            
            <path d="M1700.0001,10574.6136 L1700.0001,11374.6136 L2500.0001,11374.6136 L2500.0001,10574.6136 Z" style="stroke-width:var(--lw-3);" />
            
            <path d="M2700.0001,10574.6136 L2700.0001,11374.6136 L3500.0001,11374.6136 L3500.0001,10574.6136 Z" style="stroke-width:var(--lw-3);" />
            
            <path d="M3800.0001,8524.6136 L3800.0001,11574.6136" style="stroke-width:var(--lw-3);" />
            
            <path d="M4200.0001,8524.6136 L3800.0001,11574.6136" style="stroke-width:var(--lw-3);" />
            
            <path d="M3800.0001,8524.6136 L4200.0001,11574.6136" style="stroke-width:var(--lw-3);" />
            
            <path d="M6400.0001,9524.6136 A100,100 0 0 1 6500.0001,9424.6136 L6650.0001,9424.6136 A100,100 0 0 1 6750.0001,9524.6136 L6750.0001,9824.6136 A100,100 0 0 1 6650.0001,9924.6136 L6500.0001,9924.6136 A100,100 0 0 1 6400.0001,9824.6136 Z" style="stroke-width:var(--lw-3);" />
            
            <circle cx="4675.0001" cy="9549.6136" r="100" style="stroke-width:var(--lw-3);" />
            
            <circle cx="4925.0001" cy="9549.6136" r="75" style="stroke-width:var(--lw-3);" />
            
            <circle cx="4925.0001" cy="9799.6136" r="100" style="stroke-width:var(--lw-3);" />
            
            <circle cx="4675.0001" cy="9799.6136" r="75" style="stroke-width:var(--lw-3);" />
            
            <path d="M12675.0001,10574.6136 L11675.0001,10574.6136 L11675.0001,8174.6136 L12675.0001,8174.6136 L12675.0001,10324.6136" style="stroke-width:var(--lw-3);" />
            
            <path d="M11925.0001,8174.6136 L11925.0001,10324.6136" style="stroke-width:var(--lw-3);" />
            
            <path d="M12675.0001,10574.6136 L15600.0001,10574.6136 L15600.0001,9574.6136 L11925.0001,9574.6136" style="stroke-width:var(--lw-3);" />
            
            <path d="M15600.0001,10324.6136 L11925.0001,10324.6136" style="stroke-width:var(--lw-3);" />
            
            <path d="M12675.0001,8874.6136 L11925.0001,8874.6136" style="stroke-width:var(--lw-3);" />
            
            <path d="M11375.0001,10574.6136 L11675.0001,10574.6136 L11675.0001,8174.6136 L11375.0001,8174.6136 Z" style="stroke-width:var(--lw-3);" />
            
            <path d="M13400.0001,9574.6136 L13400.0001,10324.6136" style="stroke-width:var(--lw-3);" />
            
            <path d="M14125.0001,9574.6136 L14125.0001,10324.6136" style="stroke-width:var(--lw-3);" />
            
            <path d="M14850.0001,9574.6136 L14850.0001,10324.6136" style="stroke-width:var(--lw-3);" />
            
            <path d="M13275.0001,9074.6136 L14775.0001,9074.6136 L14775.0001,8374.6136 L13275.0001,8374.6136 Z" style="stroke-width:var(--lw-3);" />
            
            <path d="M14925.2121,7918.5122 L15294.0224,7660.6769 A250,250 0 0 1 15642.1587,7722.3296 L15785.4005,7927.2242 A250,250 0 0 1 15723.7478,8275.3606 L15354.9376,8533.1959 Z" style="stroke-width:var(--lw-3);" />
            
            <path d="M16425.0001,10574.6136 L16500.0001,10574.6136 L16500.0001,8174.6136 L16425.0001,8174.6136 Z" style="stroke-width:var(--lw-3);" />
            
            <path d="M17500.0001,5024.6136 L17500.0001,2774.6136 L16900.0001,2774.6136 L16900.0001,5024.6136 Z" style="stroke-width:var(--lw-3);" />
            
            <path d="M17400.4483,3649.6136 A75,75 0 0 1 17325.4483,3724.6136 L17125.4483,3724.6136 A75,75 0 0 1 17050.4483,3649.6136 L17050.4483,3299.6136 A75,75 0 0 1 17125.4483,3224.6136 L17325.4483,3224.6136 A75,75 0 0 1 17400.4483,3299.6136 Z" style="stroke-width:var(--lw-3);" />
            
            <path d="M18600.0001,5024.6136 L18600.0001,4174.6136 L18700.0001,4174.6136 L18700.0001,4824.6136" style="stroke-width:var(--lw-5);" />
            
            <path d="M19600.0001,4824.6136 L19600.0001,3974.6136 L19700.0001,3974.6136 L19700.0001,5024.6136" style="stroke-width:var(--lw-5);" />
            
            <path d="M19600.0001,2774.6136 L19600.0001,2974.6136 L19700.0001,2974.6136 L19700.0001,2774.6136" style="stroke-width:var(--lw-5);" />
            
            <path d="M18967.5001,4527.1136 L18967.5001,4824.6136 L19332.5001,4824.6136 L19332.5001,4527.1136 A182.5,182.5 0 0 0 18967.5001,4527.1136" style="stroke-width:var(--lw-3);" />
            
            <path d="M19600.0001,3974.6136 L19600.0001,2974.6136" style="stroke-width:var(--lw-3);" />
            
            <path d="M19700.0001,3974.6136 L19700.0001,2974.6136" style="stroke-width:var(--lw-3);" />
            
            <circle cx="20200.0001" cy="4924.6136" r="25" style="stroke-width:var(--lw-3);" />
            
            <path d="M17500.0001,11574.6136 L17500.0001,6574.6136" style="stroke-width:var(--lw-3);" />
            
            <path d="M18600.0001,6574.6136 L20700.0001,6574.6136 L20700.0001,7224.6136 L18600.0001,7224.6136 Z" style="stroke-width:var(--lw-3);" />
            
            <path d="M18600.0001,7224.6136 L20700.0001,6574.6136" style="stroke-width:var(--lw-3);" />
            
            <path d="M18600.0001,6574.6136 L20700.0001,7224.6136" style="stroke-width:var(--lw-3);" />
            
            <path d="M19650.0001,11374.6136 L20500.0001,11374.6136 L20500.0001,8874.6136 L19650.0001,8874.6136 L19650.0001,11124.6136" style="stroke-width:var(--lw-3);" />
            
            <path d="M20250.0001,8874.6136 L20250.0001,11124.6136" style="stroke-width:var(--lw-3);" />
            
            <path d="M19650.0001,11374.6136 L18700.0001,11374.6136 L18700.0001,10524.6136 L20250.0001,10524.6136" style="stroke-width:var(--lw-3);" />
            
            <path d="M18700.0001,11124.6136 L20250.0001,11124.6136" style="stroke-width:var(--lw-3);" />
            
            <path d="M19650.0001,9724.6136 L20250.0001,9724.6136" style="stroke-width:var(--lw-3);" />
            
            <path d="M19250.0001,10024.6136 L19250.0001,9224.6136 L18700.0001,9224.6136 L18700.0001,10024.6136 Z" style="stroke-width:var(--lw-3);" />
            
            <path d="M17075.0001,9524.6136 L17000.0001,9524.6136 L17000.0001,10724.6136 L17075.0001,10724.6136 Z" style="stroke-width:var(--lw-3);" />
            
            <path d="M17500.0001,8849.6136 L17901.0001,8849.6136 L17901.0001,9399.6136 L17500.0001,9399.6136" style="stroke-width:var(--lw-3);" />
            
            <path d="M20500.0001,8174.6136 L20500.0001,8674.6136 L20100.0001,8674.6136 L20100.0001,8174.6136 Z" style="stroke-width:var(--lw-3);" />
            
            <path d="M5200.0001,14574.6136 L5200.0001,13674.6136 L7500.0001,13674.6136 L7500.0001,14574.6136 Z" style="stroke-width:var(--lw-3);" />
            
            <path d="M6275.0001,13224.6136 L6275.0001,13574.6136 L5875.0001,13574.6136 L5875.0001,13224.6136 Z" style="stroke-width:var(--lw-3);" />
            
            <path d="M5725.0001,13224.6136 L5725.0001,13574.6136 L5325.0001,13574.6136 L5325.0001,13224.6136 Z" style="stroke-width:var(--lw-3);" />
            
            <path d="M6425.0001,13224.6136 L6425.0001,13574.6136 L6825.0001,13574.6136 L6825.0001,13224.6136 Z" style="stroke-width:var(--lw-3);" />
            
            <path d="M6975.0001,13224.6136 L6975.0001,13574.6136 L7375.0001,13574.6136 L7375.0001,13224.6136 Z" style="stroke-width:var(--lw-3);" />
            
            <path d="M6275.0001,15024.6136 L6275.0001,14674.6136 L5875.0001,14674.6136 L5875.0001,15024.6136 Z" style="stroke-width:var(--lw-3);" />
            
            <path d="M5725.0001,15024.6136 L5725.0001,14674.6136 L5325.0001,14674.6136 L5325.0001,15024.6136 Z" style="stroke-width:var(--lw-3);" />
            
            <path d="M6425.0001,15024.6136 L6425.0001,14674.6136 L6825.0001,14674.6136 L6825.0001,15024.6136 Z" style="stroke-width:var(--lw-3);" />
            
            <path d="M6975.0001,15024.6136 L6975.0001,14674.6136 L7375.0001,14674.6136 L7375.0001,15024.6136 Z" style="stroke-width:var(--lw-3);" />
            
            <circle cx="19857.6552" cy="14051.2016" r="400" style="stroke-width:var(--lw-3);" />
            
            <path d="M20694.6742,14000.9611 L21084.3857,13775.9611 A250,250 0 0 0 21175.892,13434.4548 L21050.892,13217.9484 A250,250 0 0 0 20709.3857,13126.4421 L20319.6742,13351.4421 Z" style="stroke-width:var(--lw-3);" />
            
            <path d="M19807.4147,13214.1825 L19582.4147,12824.4711 A250,250 0 0 0 19240.9084,12732.9647 L19024.402,12857.9647 A250,250 0 0 0 18932.8957,13199.4711 L19157.8957,13589.1825 Z" style="stroke-width:var(--lw-3);" />
            
            <path d="M15050.0001,3774.6136 L14775.0001,2774.6136" style="stroke-width:var(--lw-1);" />
            
            <path d="M15325.0001,4049.6136 L12675.0001,4049.6136 L12675.0001,4874.6136 L15325.0001,4874.6136 Z" style="stroke-width:var(--lw-3);" />
            
            <circle cx="13475.9522" cy="4438.2635" r="247.4874" style="stroke-width:var(--lw-3);" />
            
            <circle cx="13955.9522" cy="4568.2635" r="350" style="stroke-width:var(--lw-3);" />
            
            <circle cx="14505.9522" cy="4338.2635" r="190" style="stroke-width:var(--lw-3);" />
            
            <path d="M16100.0001,4874.6136 L16100.0001,3274.6136 L14912.5001,3274.6136" style="stroke-width:var(--lw-4);" />
            
            <path d="M15187.5001,3137.1136 L14912.5001,3274.6136 L15187.5001,3412.1136" style="stroke-width:var(--lw-4);" />
            
            <path d="M23296.5248,6259.7114 A8338.13,8338.13 0 0 1 24057.9638,6282.6518 A141.079,141.079 0 0 1 24154.1097,6331.183 A201.772,201.772 0 0 1 24202.8058,6452.2575 L24231.0624,7429.1784 L24219.8823,9040.0127 L24236.5824,9392.5132 L24383.8837,9378.5495 A93.3863,93.3863 0 0 1 24339.808,9453.7579 L24238.7202,9457.9264 A9802.9,9802.9 0 0 1 24210.63,10620.5826 A1469.47,1469.47 0 0 1 24155.381,11107.9693 A2628.61,2628.61 0 0 1 23296.5248,11284.045 A2628.61,2628.61 0 0 1 22437.6686,11107.9693 A1469.47,1469.47 0 0 1 22382.4196,10620.5826 A9802.9,9802.9 0 0 1 22354.3294,9457.9264 L22253.2416,9453.7579 A93.3863,93.3863 0 0 1 22209.1659,9378.5495 L22356.4672,9392.5132 L22373.1673,9040.0127 L22361.9872,7429.1784 L22390.2438,6452.2575 A201.772,201.772 0 0 1 22438.9399,6331.183 A141.079,141.079 0 0 1 22535.0858,6282.6518 A8338.13,8338.13 0 0 1 23296.5248,6259.7114 Z" style="stroke-width:var(--lw-3);" />
            
            <path d="M1500.0001,2774.6136 L4200.0001,2774.6136 L4200.0001,5024.6136 L1500.0001,5024.6136 Z" style="stroke-width:0.001" class="svg-area" />
            
            <path d="M4200.0001,6574.6136 L1500.0001,6574.6136 L1500.0001,8374.6136 L4200.0001,8374.6136 Z" style="stroke-width:0.001" class="svg-area" />
            
            <path d="M4200.0001,8524.6136 L1500.0001,8524.6136 L1500.0001,11574.6136 L4200.0001,11574.6136 Z" style="stroke-width:0.001" class="svg-area" data-area="1"/>
            
            <path d="M4500.0001,6574.6136 L7650.0001,6574.6136 L7650.0001,11574.6136 L4500.0001,11574.6136 Z" style="stroke-width:0.001" class="svg-area" />
            
            <path d="M7650.0001,11574.6136 L10950.0001,11574.6136 L10950.0001,6574.6136 L7650.0001,6574.6136 Z" style="stroke-width:0.001" class="svg-area" />
            
            <path d="M10950.0001,6574.6136 L16600.0001,6574.6136 L16600.0001,11574.6136 L10950.0001,11574.6136 Z" style="stroke-width:0.001" class="svg-area" />
            
            <path d="M16900.0001,11574.6136 L20700.0001,11574.6136 L20700.0001,6574.6136 L16900.0001,6574.6136 Z" style="stroke-width:0.001" class="svg-area" />
            
            <path d="M20700.0001,5024.6136 L16900.0001,5024.6136 L16900.0001,2774.6136 L20700.0001,2774.6136 Z" style="stroke-width:0.001" class="svg-area" />
            
            <path d="M12675.0001,6274.6136 L16600.0001,6274.6136 L16600.0001,2774.6136 L12675.0001,2774.6136 Z" style="stroke-width:0.001" class="svg-area" />
            
            <path d="M10800.0001,5024.6136 L7800.0001,5024.6136 L7800.0001,2774.6136 L10800.0001,2774.6136 Z" style="stroke-width:0.001" class="svg-area" />
            
            <path d="M12525.0001,5024.6136 L11100.0001,5024.6136 L11100.0001,2774.6136 L12525.0001,2774.6136 Z" style="stroke-width:0.001" class="svg-area" />
            
            <path d="M4500.0001,2774.6136 L7500.0001,2774.6136 L7500.0001,5024.6136 L4500.0001,5024.6136 Z" style="stroke-width:0.001" class="svg-area" />
            
            <text x="0" dx="0" y="0" dy="200" font-size="var(--dxf-big-font)" line-height="1.1" fill="var(--text-color)" transform="translate(9129.9933,3893.2657) translate(0,100) scale(1,-1)" text-anchor="middle">9</text>
            
            <text x="0" dx="0" y="0" dy="200" font-size="var(--dxf-big-font)" line-height="1.1" fill="var(--text-color)" transform="translate(6239.9933,3893.2635) translate(0,100) scale(1,-1)" text-anchor="middle">8</text>
            
            <text x="0" dx="0" y="0" dy="200" font-size="var(--dxf-big-font)" line-height="1.1" fill="var(--text-color)" transform="translate(2929.9933,3893.2635) translate(0,100) scale(1,-1)" text-anchor="middle">7</text>
            
            <text x="0" dx="0" y="0" dy="200" font-size="var(--dxf-big-font)" line-height="1.1" fill="var(--text-color)" transform="translate(11559.9933,3893.263) translate(0,100) scale(1,-1)" text-anchor="middle">10</text>
            
            <text x="0" dx="0" y="0" dy="200" font-size="var(--dxf-big-font)" line-height="1.1" fill="var(--text-color)" transform="translate(18650.1988,3673.2635) translate(0,100) scale(1,-1)" text-anchor="middle">12</text>
            
            <text x="0" dx="0" y="0" dy="200" font-size="var(--dxf-big-font)" line-height="1.1" fill="var(--text-color)" transform="translate(18650.1988,8591.001) translate(0,100) scale(1,-1)" text-anchor="middle">6</text>
            
            <text x="0" dx="0" y="0" dy="200" font-size="var(--dxf-big-font)" line-height="1.1" fill="var(--text-color)" transform="translate(2929.9933,7531.0032) translate(0,100) scale(1,-1)" text-anchor="middle">2</text>
            
            <text x="0" dx="0" y="0" dy="200" font-size="var(--dxf-big-font)" line-height="1.1" fill="var(--text-color)" transform="translate(2929.9933,9851.0032) translate(0,100) scale(1,-1)" text-anchor="middle">1</text>
            
            <text x="0" dx="0" y="0" dy="200" font-size="var(--dxf-big-font)" line-height="1.1" fill="var(--text-color)" transform="translate(5950.8837,7785.5238) translate(0,100) scale(1,-1)" text-anchor="middle">3</text>
            
            <text x="0" dx="0" y="0" dy="200" font-size="var(--dxf-big-font)" line-height="1.1" fill="var(--text-color)" transform="translate(9260.8837,7785.5238) translate(0,100) scale(1,-1)" text-anchor="middle">4</text>
            
            <text x="0" dx="0" y="0" dy="200" font-size="var(--dxf-big-font)" line-height="1.1" fill="var(--text-color)" transform="translate(13650.8837,7785.5238) translate(0,100) scale(1,-1)" text-anchor="middle">5</text>
            
            <path d="M21050.0001,6174.6136 L20950.0001,6174.6136 L20950.0001,6124.6136 L21050.0001,6124.6136 Z" style="stroke-width:var(--lw-1);" />
            
            <path d="M21050.0001,5324.6136 L20950.0001,5324.6136 L20950.0001,5274.6136 L21050.0001,5274.6136 Z" style="stroke-width:var(--lw-1);" />
            
            <path d="M21050.0001,6124.6136 L21850.0001,6124.6136" style="stroke-width:var(--lw-1);" />
            
            <path d="M21049.9982,5324.6136 A800,800 0 0,1 21850.0001,6124.6136" style="stroke-width:var(--lw-1);" />
            
            <path d="M18500.0001,2524.6136 L18500.0001,2424.6136 L18430.0001,2424.6136 L18430.0001,2524.6136 Z" style="stroke-width:var(--lw-1);" />
            
            <path d="M17600.0001,2524.6136 L17600.0001,2424.6136 L17670.0001,2424.6136 L17670.0001,2524.6136 Z" style="stroke-width:var(--lw-1);" />
            
            <path d="M18500.0001,2424.6136 L18500.0001,2524.6136 L17600.0001,2524.6136 L17600.0001,2424.6136 Z" style="stroke-width:var(--lw-1);" />
            
            <path d="M2600.0001,2274.6136 L3500.0001,2274.6136" style="stroke-width:var(--lw-1);" />
            
            <path d="M3500.0001,2524.6136 L3500.0001,2424.6136 L3430.0001,2424.6136 L3430.0001,2524.6136 Z" style="stroke-width:var(--lw-1);" />
            
            <path d="M2600.0001,2524.6136 L2600.0001,2424.6136 L2670.0001,2424.6136 L2670.0001,2524.6136 Z" style="stroke-width:var(--lw-1);" />
            
            <path d="M3500.0001,2424.6136 L3500.0001,2524.6136 L2600.0001,2524.6136 L2600.0001,2424.6136 Z" style="stroke-width:var(--lw-1);" />
            
            <path d="M1000.0001,6174.6136 L1000.0001,5274.6136" style="stroke-width:var(--lw-1);" />
            
            <path d="M1150.0001,6174.6136 L1250.0001,6174.6136 L1250.0001,6124.6136 L1150.0001,6124.6136 Z" style="stroke-width:var(--lw-1);" />
            
            <path d="M1150.0001,5324.6136 L1250.0001,5324.6136 L1250.0001,5274.6136 L1150.0001,5274.6136 Z" style="stroke-width:var(--lw-1);" />
            
            <path d="M1150.0001,6124.6136 L350.0001,6124.6136" style="stroke-width:var(--lw-1);" />
            
            <path d="M350.0001,6124.6136 A800,800 0 0,1 1150.0019,5324.6136" style="stroke-width:var(--lw-1);" />
            
            <path d="M1000.0001,10274.6136 L1000.0001,9374.6136" style="stroke-width:var(--lw-1);" />
            
            <path d="M1150.0001,10274.6136 L1250.0001,10274.6136 L1250.0001,10224.6136 L1150.0001,10224.6136 Z" style="stroke-width:var(--lw-1);" />
            
            <path d="M1150.0001,9424.6136 L1250.0001,9424.6136 L1250.0001,9374.6136 L1150.0001,9374.6136 Z" style="stroke-width:var(--lw-1);" />
            
            <path d="M1150.0001,10224.6136 L350.0001,10224.6136" style="stroke-width:var(--lw-1);" />
            
            <path d="M350.0001,10224.6136 A800,800 0 0,1 1150.0019,9424.6136" style="stroke-width:var(--lw-1);" />
            
            <path d="M3500.0001,5024.6136 L3500.0001,5124.6136 L3450.0001,5124.6136 L3450.0001,5024.6136 Z" style="stroke-width:var(--lw-1);" />
            
            <path d="M2750.0001,5024.6136 L2750.0001,5124.6136 L2700.0001,5124.6136 L2700.0001,5024.6136 Z" style="stroke-width:var(--lw-1);" />
            
            <path d="M2750.0001,5024.6136 L2750.0001,4324.6136" style="stroke-width:var(--lw-1);" />
            
            <path d="M2750.0001,4324.6136 A700,700 0 0,1 3450.0001,5024.6152" style="stroke-width:var(--lw-1);" />
            
            <path d="M3500.0001,6574.6136 L3500.0001,6474.6136 L3450.0001,6474.6136 L3450.0001,6574.6136 Z" style="stroke-width:var(--lw-1);" />
            
            <path d="M2750.0001,6574.6136 L2750.0001,6474.6136 L2700.0001,6474.6136 L2700.0001,6574.6136 Z" style="stroke-width:var(--lw-1);" />
            
            <path d="M2750.0001,6574.6136 L2750.0001,7274.6136" style="stroke-width:var(--lw-1);" />
            
            <path d="M3450.0001,6574.612 A700,700 0 0,1 2750.0001,7274.6136" style="stroke-width:var(--lw-1);" />
            
            <path d="M3500.0001,8524.6136 L3500.0001,8424.6136 L3450.0001,8424.6136 L3450.0001,8524.6136 Z" style="stroke-width:var(--lw-1);" />
            
            <path d="M2750.0001,8524.6136 L2750.0001,8424.6136 L2700.0001,8424.6136 L2700.0001,8524.6136 Z" style="stroke-width:var(--lw-1);" />
            
            <path d="M3450.0001,8524.6136 L3450.0001,9224.6136" style="stroke-width:var(--lw-1);" />
            
            <path d="M3450.0001,9224.6136 A700,700 0 0,1 2750.0001,8524.612" style="stroke-width:var(--lw-1);" />
            
            <path d="M4200.0001,7174.6136 L4300.0001,7174.6136 L4300.0001,7224.6136 L4200.0001,7224.6136 Z" style="stroke-width:var(--lw-1);" />
            
            <path d="M4200.0001,7924.6136 L4300.0001,7924.6136 L4300.0001,7974.6136 L4200.0001,7974.6136 Z" style="stroke-width:var(--lw-1);" />
            
            <path d="M4200.0001,7924.6136 L3500.0001,7924.6136" style="stroke-width:var(--lw-1);" />
            
            <path d="M3500.0001,7924.6136 A700,700 0 0,1 4200.0017,7224.6136" style="stroke-width:var(--lw-1);" />
            
            <path d="M16900.0001,6174.6136 L16800.0001,6174.6136 L16800.0001,6124.6136 L16900.0001,6124.6136 Z" style="stroke-width:var(--lw-1);" />
            
            <path d="M16900.0001,5324.6136 L16800.0001,5324.6136 L16800.0001,5274.6136 L16900.0001,5274.6136 Z" style="stroke-width:var(--lw-1);" />
            
            <path d="M16900.0001,6124.6136 L17700.0001,6124.6136" style="stroke-width:var(--lw-1);" />
            
            <path d="M16899.9982,5324.6136 A800,800 0 0,1 17700.0001,6124.6136" style="stroke-width:var(--lw-1);" />
            
            <path d="M18500.0001,5024.6136 L18500.0001,5124.6136 L18450.0001,5124.6136 L18450.0001,5024.6136 Z" style="stroke-width:var(--lw-1);" />
            
            <path d="M17650.0001,5024.6136 L17650.0001,5124.6136 L17600.0001,5124.6136 L17600.0001,5024.6136 Z" style="stroke-width:var(--lw-1);" />
            
            <path d="M18450.0001,5024.6136 L18450.0001,4224.6136" style="stroke-width:var(--lw-1);" />
            
            <path d="M17650.0001,5024.6154 A800,800 0 0,1 18450.0001,4224.6136" style="stroke-width:var(--lw-1);" />
            
            <path d="M17600.0001,6574.6136 L17600.0001,6474.6136 L17650.0001,6474.6136 L17650.0001,6574.6136 Z" style="stroke-width:var(--lw-1);" />
            
            <path d="M18450.0001,6574.6136 L18450.0001,6474.6136 L18500.0001,6474.6136 L18500.0001,6574.6136 Z" style="stroke-width:var(--lw-1);" />
            
            <path d="M17650.0001,6574.6136 L17650.0001,7374.6136" style="stroke-width:var(--lw-1);" />
            
            <path d="M18450.0001,6574.6118 A800,800 0 0,1 17650.0001,7374.6136" style="stroke-width:var(--lw-1);" />
            
            <path d="M12000.0001,5024.6136 L12000.0001,5124.6136 L11950.0001,5124.6136 L11950.0001,5024.6136 Z" style="stroke-width:var(--lw-1);" />
            
            <path d="M11250.0001,5024.6136 L11250.0001,5124.6136 L11200.0001,5124.6136 L11200.0001,5024.6136 Z" style="stroke-width:var(--lw-1);" />
            
            <path d="M11250.0001,5024.6136 L11250.0001,4324.6136" style="stroke-width:var(--lw-1);" />
            
            <path d="M11250.0001,4324.6136 A700,700 0 0,1 11950.0001,5024.6152" style="stroke-width:var(--lw-1);" />
            
            <path d="M16600.0001,2524.6136 L16600.0001,2424.6136 L16530.0001,2424.6136 L16530.0001,2524.6136 Z" style="stroke-width:var(--lw-1);" />
            
            <path d="M15700.0001,2524.6136 L15700.0001,2424.6136 L15770.0001,2424.6136 L15770.0001,2524.6136 Z" style="stroke-width:var(--lw-1);" />
            
            <path d="M16600.0001,2424.6136 L16600.0001,2524.6136 L12675.0001,2524.6136 L12675.0001,2424.6136 Z" style="stroke-width:var(--lw-1);" />
            
            <path d="M12675.0001,2524.6136 L12675.0001,2424.6136 L12745.0001,2424.6136 L12745.0001,2524.6136 Z" style="stroke-width:var(--lw-1);" />
            
            <path d="M13575.0001,2524.6136 L13575.0001,2424.6136 L13505.0001,2424.6136 L13505.0001,2524.6136 Z" style="stroke-width:var(--lw-1);" />
            
            <path d="M13645.0001,2524.6136 L13645.0001,2424.6136 L13575.0001,2424.6136 L13575.0001,2524.6136 Z" style="stroke-width:var(--lw-1);" />
            
            <path d="M15630.0001,2524.6136 L15630.0001,2424.6136 L15700.0001,2424.6136 L15700.0001,2524.6136 Z" style="stroke-width:var(--lw-1);" />
            
            <path d="M15700.0001,11924.6136 L15700.0001,11824.6136 L12100.0001,11824.6136 L12100.0001,11924.6136 Z" style="stroke-width:var(--lw-1);" />
            
            <path d="M12100.0001,11824.6136 L12100.0001,11924.6136 L12170.0001,11924.6136 L12170.0001,11824.6136 Z" style="stroke-width:var(--lw-1);" />
            
            <path d="M13575.0001,11824.6136 L13575.0001,11924.6136 L13505.0001,11924.6136 L13505.0001,11824.6136 Z" style="stroke-width:var(--lw-1);" />
            
            <path d="M13645.0001,11824.6136 L13645.0001,11924.6136 L13575.0001,11924.6136 L13575.0001,11824.6136 Z" style="stroke-width:var(--lw-1);" />
            
            <path d="M15630.0001,11824.6136 L15630.0001,11924.6136 L15700.0001,11924.6136 L15700.0001,11824.6136 Z" style="stroke-width:var(--lw-1);" />
            
            <path d="M16600.0001,11824.6136 L16600.0001,11924.6136 L16550.0001,11924.6136 L16550.0001,11824.6136 Z" style="stroke-width:var(--lw-1);" />
            
            <path d="M15750.0001,11824.6136 L15750.0001,11924.6136 L15700.0001,11924.6136 L15700.0001,11824.6136 Z" style="stroke-width:var(--lw-1);" />
            
            <path d="M16550.0001,11824.6136 L16550.0001,11024.6136" style="stroke-width:var(--lw-1);" />
            
            <path d="M15750.0001,11824.6154 A800,800 0 0,1 16550.0001,11024.6136" style="stroke-width:var(--lw-1);" />
            
            <path d="M18500.0001,11924.6136 L18500.0001,11824.6136 L19900.0001,11824.6136 L19900.0001,11924.6136 Z" style="stroke-width:var(--lw-1);" />
            
            <path d="M19830.0001,11824.6136 L19830.0001,11924.6136 L19900.0001,11924.6136 L19900.0001,11824.6136 Z" style="stroke-width:var(--lw-1);" />
            
            <path d="M18570.0001,11824.6136 L18570.0001,11924.6136 L18500.0001,11924.6136 L18500.0001,11824.6136 Z" style="stroke-width:var(--lw-1);" />
            
            <path d="M17600.0001,11824.6136 L17600.0001,11924.6136 L17650.0001,11924.6136 L17650.0001,11824.6136 Z" style="stroke-width:var(--lw-1);" />
            
            <path d="M18450.0001,11824.6136 L18450.0001,11924.6136 L18500.0001,11924.6136 L18500.0001,11824.6136 Z" style="stroke-width:var(--lw-1);" />
            
            <path d="M17650.0001,11824.6136 L17650.0001,11024.6136" style="stroke-width:var(--lw-1);" />
            
            <path d="M17650.0001,11024.6136 A800,800 0 0,1 18450.0001,11824.6154" style="stroke-width:var(--lw-1);" />
            
            <path d="M6100.0001,11924.6136 L6100.0001,11824.6136 L7500.0001,11824.6136 L7500.0001,11924.6136 Z" style="stroke-width:var(--lw-1);" />
            
            <path d="M7430.0001,11824.6136 L7430.0001,11924.6136 L7500.0001,11924.6136 L7500.0001,11824.6136 Z" style="stroke-width:var(--lw-1);" />
            
            <path d="M6170.0001,11824.6136 L6170.0001,11924.6136 L6100.0001,11924.6136 L6100.0001,11824.6136 Z" style="stroke-width:var(--lw-1);" />
            
            <path d="M5200.0001,11824.6136 L5200.0001,11924.6136 L5250.0001,11924.6136 L5250.0001,11824.6136 Z" style="stroke-width:var(--lw-1);" />
            
            <path d="M6050.0001,11824.6136 L6050.0001,11924.6136 L6100.0001,11924.6136 L6100.0001,11824.6136 Z" style="stroke-width:var(--lw-1);" />
            
            <path d="M5250.0001,11824.6136 L5250.0001,11024.6136" style="stroke-width:var(--lw-1);" />
            
            <path d="M5250.0001,11024.6136 A800,800 0 0,1 6050.0001,11824.6154" style="stroke-width:var(--lw-1);" />
            
            <path d="M8850.0001,11824.6136 L8850.0001,11924.6136 L8900.0001,11924.6136 L8900.0001,11824.6136 Z" style="stroke-width:var(--lw-1);" />
            
            <path d="M9700.0001,11824.6136 L9700.0001,11924.6136 L9750.0001,11924.6136 L9750.0001,11824.6136 Z" style="stroke-width:var(--lw-1);" />
            
            <path d="M8900.0001,11824.6136 L8900.0001,11024.6136" style="stroke-width:var(--lw-1);" />
            
            <path d="M8900.0001,11024.6136 A800,800 0 0,1 9700.0001,11824.6154" style="stroke-width:var(--lw-1);" />
            
            <path d="M9750.0001,11924.6136 L9750.0001,11824.6136 L10800.0001,11824.6136 L10800.0001,11924.6136 Z" style="stroke-width:var(--lw-1);" />
            
            <path d="M10730.0001,11824.6136 L10730.0001,11924.6136 L10800.0001,11924.6136 L10800.0001,11824.6136 Z" style="stroke-width:var(--lw-1);" />
            
            <path d="M9820.0001,11824.6136 L9820.0001,11924.6136 L9750.0001,11924.6136 L9750.0001,11824.6136 Z" style="stroke-width:var(--lw-1);" />
            
            <path d="M7800.0001,11924.6136 L7800.0001,11824.6136 L8850.0001,11824.6136 L8850.0001,11924.6136 Z" style="stroke-width:var(--lw-1);" />
            
            <path d="M8780.0001,11824.6136 L8780.0001,11924.6136 L8850.0001,11924.6136 L8850.0001,11824.6136 Z" style="stroke-width:var(--lw-1);" />
            
            <path d="M7870.0001,11824.6136 L7870.0001,11924.6136 L7800.0001,11924.6136 L7800.0001,11824.6136 Z" style="stroke-width:var(--lw-1);" />
            
            <path d="M9200.0001,2424.6136 L9200.0001,2524.6136 L7800.0001,2524.6136 L7800.0001,2424.6136 Z" style="stroke-width:var(--lw-1);" />
            
            <path d="M7870.0001,2524.6136 L7870.0001,2424.6136 L7800.0001,2424.6136 L7800.0001,2524.6136 Z" style="stroke-width:var(--lw-1);" />
            
            <path d="M9130.0001,2524.6136 L9130.0001,2424.6136 L9200.0001,2424.6136 L9200.0001,2524.6136 Z" style="stroke-width:var(--lw-1);" />
            
            <path d="M10100.0001,2524.6136 L10100.0001,2424.6136 L10050.0001,2424.6136 L10050.0001,2524.6136 Z" style="stroke-width:var(--lw-1);" />
            
            <path d="M9250.0001,2524.6136 L9250.0001,2424.6136 L9200.0001,2424.6136 L9200.0001,2524.6136 Z" style="stroke-width:var(--lw-1);" />
            
            <path d="M10050.0001,2424.6136 L10050.0001,1624.6136" style="stroke-width:var(--lw-1);" />
            
            <path d="M9250.0001,2424.6154 A800,800 0 0,1 10050.0001,1624.6136" style="stroke-width:var(--lw-1);" />
            
            <path d="M7500.0001,2424.6136 L7500.0001,2524.6136 L5200.0001,2524.6136 L5200.0001,2424.6136 Z" style="stroke-width:var(--lw-1);" />
            
            <path d="M5270.0001,2524.6136 L5270.0001,2424.6136 L5200.0001,2424.6136 L5200.0001,2524.6136 Z" style="stroke-width:var(--lw-1);" />
            
            <path d="M6530.0001,2524.6136 L6530.0001,2424.6136 L6600.0001,2424.6136 L6600.0001,2524.6136 Z" style="stroke-width:var(--lw-1);" />
            
            <path d="M6600.0001,2524.6136 L6600.0001,2424.6136 L6670.0001,2424.6136 L6670.0001,2524.6136 Z" style="stroke-width:var(--lw-1);" />
            
            <path d="M7430.0001,2524.6136 L7430.0001,2424.6136 L7500.0001,2424.6136 L7500.0001,2524.6136 Z" style="stroke-width:var(--lw-1);" />
            
            <path d="M5200.0001,12074.6136 L7500.0001,12074.6136" style="stroke-width:var(--lw-1);" />
            
            <path d="M7800.0001,12074.6136 L10800.0001,12074.6136" style="stroke-width:var(--lw-1);" />
            
            <path d="M12100.0001,12074.6136 L16600.0001,12074.6136" style="stroke-width:var(--lw-1);" />
            
            <path d="M17600.0001,12074.6136 L19900.0001,12074.6136" style="stroke-width:var(--lw-1);" />
            
            <path d="M5200.0001,2274.6136 L7500.0001,2274.6136" style="stroke-width:var(--lw-1);" />
            
            <path d="M7800.0001,2274.6136 L10100.0001,2274.6136" style="stroke-width:var(--lw-1);" />
            
            <text x="0" dx="0" y="0" dy="200" font-size="var(--dxf-big-font)" line-height="1.1" fill="var(--text-color)" transform="translate(14236.3274,3646.1551) translate(0,100) scale(1,-1)" text-anchor="middle">11</text>
        </g>
            </svg>