<svg xmlns="http://www.w3.org/2000/svg" viewBox="0 0 612.47 356.24">
  <path d="m102.12 252.77 6.24 1.59m.3.08 7.19 1.84m-13.73-3.51v-15.54m6.54 17.21v-8.13m28.43 57.68V269.7m4.68 31.81v-34.29m4.68 31.81v-34.29m28.06 19.4v-34.29m4.55 31.89v-34.3m-27.94 49.11v-34.29m4.68 31.81v-34.29m4.68 31.81V257.3m4.68 31.81v-34.29m4.68 31.81v-34.3m-37.12 53.98 4.37-2.32m.31-.16 4.37-2.32m.31-.16 4.37-2.32m.3-.16 4.37-2.32m.31-.16 4.37-2.32m.31-.16 4.37-2.32m.31-.16 4.37-2.32m.31-.17 4.37-2.31m.3-.17 4.37-2.32m.31-.16 4.24-2.24m-41.97-12.38-30.73-42.66m35.41 40.17-30.73-42.65m35.41 40.17-30.74-42.65m58.8 27.77-30.73-42.65m35.28 40.24-30.74-42.65m2.8 57.46-30.73-42.65m35.41 40.17-30.73-42.65m35.41 40.17-30.73-42.65m35.41 40.17-30.73-42.65m35.41 40.17-30.74-42.65m-6.42 62.36 4.41-2.34m.26-.14 4.42-2.35m.26-.14 4.42-2.34m.26-.14 4.41-2.34m.27-.14 4.41-2.34m.27-.14 4.41-2.34m.26-.14 4.42-2.34m.26-.14 4.42-2.34m.26-.14 4.41-2.34m.27-.14 4.28-2.27m-77.38-10.59v-6.98m.07-.03v-.22M7.46 216.01l13.08-11.46m0 0 .91-.48m44.1-7.95-.89-1.23m-3.68 1.95.05-.03m-.05.03-.26-.37m-7.45-10.34.04-.02m-.04.02-.26-.36m7.71 10.62-7.41-10.28m8.04 12.39 4.28-2.27m78.15 10.63-1.99-2.76M88.5 236.18l4.28-2.27m.26-.14 4.28-2.27m.26-.14 4.1-2.17m16.99-12.83 4.41-2.34m.27-.14 4.41-2.34m.26-.14 4.42-2.34m.26-.14 4.42-2.34m.26-.14 4.41-2.34m-21.54 9.56 8.17-4.33m-3.35 7.45-1.99-2.76m6.67.28-1.99-2.76m6.67.28-1.99-2.76m6.66.28-1.98-2.76m11.47-2.27 3.68-1.96m.27-.14 4.28-2.27m.26-.14 4.28-2.27m.26-.14 4.28-2.27m.26-.14 4.28-2.26m.26-.14 4.28-2.27m.27-.14 4.27-2.27m.27-.14 4.28-2.27m.26-.14 4.28-2.27m.26-.14 4.23-2.25m.27-.14 4.28-2.26m.26-.14 4.28-2.27m.26-.14 4.28-2.27m-161.18 1.95-.25-.34m.25.34.05-.02m15.22-6.8 2.65-1.41m.27-.14 4.41-2.34m.26-.14 4.42-2.34m.26-.14 4.42-2.35m.26-.13 4.41-2.35m.27-.14 4.41-2.34m.27-.14 4.41-2.34m.26-.14 4.42-2.34m.26-.14 4.42-2.34m.26-.14 4.28-2.27m.26-.14 3.69-1.96m.26-.14 4.28-2.26m.26-.14 4.28-2.27m.27-.14 4.27-2.27m.27-.14 4.28-2.27m.26-.14 4.28-2.27m.26-.14 4.28-2.27m.26-.14 4.28-2.27m.26-.14 4.28-2.27m.27-.14 4.23-2.24m.26-.14 4.28-2.27m.26-.14 4.28-2.27m-50.21 78.24-26.91-37.34m26.98 37.45.05-.03m9.31-4.94.05-.02m-4.73 2.51.05-.03m9.31-4.94.04-.02M7.46 283.36v-67.35m85.32 87.4v-69.16M97.32 301v-69.15m73.12-15.52v-23.27m4.54 20.86v-23.27m4.54 20.86v-23.27m4.55 20.86v-23.26m4.54 20.85v-23.26m-86.79 69.37v-.08m91.28-48.41v-23.27m-40.83 28.38v-6.72m45.38 45.01v-69.08m-40.83 37.1v-15.44m45.37 45.01v-69.08m-40.83 44.92v-23.26m45.37 45.01v-69.07m-40.83 44.91v-23.26m-5 25.92.46-.25m.3-.16 4.24-2.25m.31-.16 4.23-2.24m.31-.17 4.23-2.24m.31-.17 4.23-2.24m.31-.17 4.24-2.24m.3-.16 4.24-2.25m.3-.16 4.19-2.22m.31 45.65 4.24-2.25m.3-.16 4.24-2.25m.3-.16 4.24-2.25m-142.07-48v-.42m.97 1.76.19-.16m0 0-.05-.06m35.91 33.18.07.01m0 .08v-.08m.33 23.66v-.07m.04 45.87v-3.7m86.49-88.27.26.07m4.5-2.31v-.08m-.27-.06.27.06m4.54 43.48v-.07m.04.05v-.08m4.5-2.31v-.07m.04.05v-.07m-39.6-132.99.06.02m0 .3v-.3m43.78 61.09.06.01m0 .3v-.3m-.06 69.41.26.07m-69.64 61.17v-.07m.05.05v-.07m4.63-2.39v-.07m.05.05v-.07m4.63-2.39v-.07m.04.05v-.08m-18.87-114.29.18-.16m0 0-.05-.06m13.78 19.54.19-.17m0 0-.05-.06m32.85 80.42v-.08m.04.05v-.07m4.24-37.09.06.01m0 .3v-.3m4.95-38.01.26.07m-4.81 2.34.27.06m-4.81 2.35.26.06m-4.8 2.35.26.06m-4.8 2.34.26.07m-4.8 2.34.26.07m-10.23 75.48v-.07m.04.05v-.08m-42.27-101.88.19-.17m0 0-.05-.06m13.97 19.38-.05-.06m32.84 80.41v-.07m-32.75-80.3-.04-.07m32.84 80.42v-.08m-46.9-99.43.18-.16m0 0-.04-.06m4.49-2.23.19-.17m0 0-.05-.06m13.96 19.38-.04-.07m32.84 80.42v-.08m-32.75-80.3-.05-.06m32.85 80.41v-.07m-46.9-99.43.18-.16m0 0-.04-.06m4.68-2.4-.05-.06m-.14.22.19-.16m13.91 19.32-.04-.07m32.84 80.42v-.08m-32.75-80.3-.05-.06m32.85 80.41v-.07m-46.72-99.59-.05-.07m-.13.23.18-.16m4.63-2.46-.04-.06m-.14.22.18-.16m13.92 19.32-.05-.07m32.85 80.42v-.08m-32.75-80.3-.05-.06m32.84 80.41v-.07m-46.71-99.59-.05-.07m-.14.23.19-.16m69.02 62.95v-3.7m-83.83 8.13.04-.02m-.3-.04.26.06m-88.08-17.42.91-.48m51.4 13.94v-.07m0 45.22v-.07M53.31 186.11v-16.22m-7.71 5.51v-7.48m75.19 127.5v-.07m-.05.83.05-.02m-15.09-3.82v-.82m0 .82 15.04 3.84m-15.04-4.66.05-.02m0 0 .91-.48M22.6 204.19l11.6-10.16m-11.6 10.16 11.6 2.96m.88 32.06V208.3m0 30.91 10.25 2.62m-10.25-34.45L45.33 210m-10.25-16.75 10.25-8.98m-23 51.67 11.87 3.04m-11.87-3.04v-30.9m12.75 79.32v-30.91m0 30.91 10.25 2.62m-10.25-34.45 10.25 2.62m-23 25.94 11.87 3.04m-11.87-34.86 11.87 3.03m-11.87-3.03v-5.01m41.85 47.54v-30.91m0-.92v-5m0 36.83 8.67 2.22m-8.67-34.05 8.67 2.22m-8.67-15.54 8.67 2.22m-8.67-34.04 3.94 1m95.49 9.33v-4.93m-56.07 70.17v-30.91m0-.92 12.21 3.13m-12.21 28.7 13.25 3.39M119 192.07l6.72-3.57m11.02 15.29-11.02-15.29m-15.8 8.39 6.72-3.57m11.02 15.29-11.02-15.29m4.15 102.84 6.98 1.79m-25.65-3.71 3.58-1.9m191.05 9.69 6.24 1.6m.3.07 7.19 1.84m-7.19-1.84v-8.13m-6.54 6.46V286.5m34.97 66.76v-34.29m4.68 31.81v-34.29m4.68 31.81v-34.29m28.06 19.4v-34.29m4.55 31.88v-34.29m-27.94 49.11v-34.3m4.68 31.81v-34.29m4.68 31.81v-34.29m4.68 31.81v-34.29m4.68 31.81V301.6m-37.12 53.98 4.37-2.32m.31-.16 4.37-2.32m.31-.17 4.37-2.31m.3-.17 4.37-2.31m.31-.17 4.37-2.32m.31-.16 4.37-2.32m.31-.16 4.37-2.32m.31-.16 4.37-2.32m.3-.16 4.37-2.32m.31-.16 4.24-2.25m-46.38-10.04 4.41-2.34m.26-.14 4.42-2.34m.26-.14 4.42-2.34m.26-.14 4.41-2.34m.27-.14 4.41-2.34m.27-.14 4.41-2.35m.26-.14 4.42-2.34m.26-.14 4.42-2.34m.26-.14 4.41-2.34m.27-.14 4.28-2.27m-41.97 22.26-30.73-42.65m35.41 40.17-30.73-42.65m35.41 40.17-30.74-42.65m35.41 40.17-30.73-42.65m35.41 40.17-30.73-42.65m35.41 40.16-30.73-42.65m35.41 40.17-30.73-42.65m35.41 40.17-30.74-42.65m35.41 40.17-30.73-42.65m35.28 40.24-30.74-42.65m-46.64 32.07v-6.98m.07-.04v-.22m-94.29-13.27 13.08-11.45m0 0 .91-.48m39.53-7.24-.26-.36m.26.36.05-.02m-.31-.43-7.41-10.28m-.04.02-.26-.36m.26.36.04-.02m8.04 12.4 4.28-2.27m-.08-.11-.89-1.24m79.12 11.97-1.99-2.76m6.8.21 3.68-1.95m.27-.14 4.28-2.27m.26-.14 4.28-2.27m.26-.14 4.28-2.27m.26-.14 4.28-2.27m.26-.14 4.28-2.27m.27-.14 4.27-2.27m.27-.14 4.28-2.27m.26-.14 4.28-2.27m.26-.14 4.23-2.24m.27-.14 4.28-2.27m.26-.14 4.28-2.27m.26-.14 4.28-2.27m-81.66 43.32-1.99-2.76m6.67.27-1.99-2.75m6.67.27-1.99-2.76m6.66.28-1.98-2.76m-18.45 9.79 4.41-2.34m.27-.14 4.41-2.34m.26-.14 4.42-2.35m.26-.14 4.42-2.34m.26-.14 4.41-2.34m-21.54 9.57 8.17-4.34m-39.92 26.85 4.28-2.27m.26-.14 4.28-2.27m.26-.14 4.1-2.17m-56.13-53.76.05-.03m-.05.03-.25-.35m15.52-6.48 2.65-1.41m.27-.14 4.41-2.34m.26-.14 4.42-2.34m.26-.14 4.42-2.34m.26-.14 4.41-2.34m.27-.14 4.41-2.34m.27-.14 4.41-2.34m.26-.14 4.42-2.34m.26-.14 4.42-2.35m.26-.14 4.28-2.26m.26-.14 3.69-1.96m.26-.14 4.28-2.27m.26-.14 4.28-2.27m.27-.14 4.27-2.27m.27-.14 4.28-2.27m.26-.14 4.28-2.27m.26-.13 4.28-2.27m.26-.14 4.28-2.27m.26-.14 4.28-2.27m.27-.14 4.23-2.25m.26-.14 4.28-2.27m.26-.14 4.28-2.26m-50.14 78.34.05-.02m-.13-.09-26.9-37.33m31.66 34.96.05-.02m4.63-2.46.05-.02m4.63-2.46.04-.03m-115.78 96.13v-67.36m85.32 87.4v-69.15m4.54 66.74v-69.15m4.5 20.95v-.07m50.45-43.3v-6.73m8.63 18.69.46-.24m.3-.16 4.24-2.25m.31-.16 4.23-2.25m.31-.16 4.23-2.25m.31-.16 4.23-2.25m.31-.16 4.24-2.25m.3-.16 4.24-2.25m.3-.16 4.19-2.22m-36.28 11.42v-15.44m4.54 20.86v-23.26m4.54 20.85v-23.26m4.54 20.85v-23.26m4.54 20.85v-23.26m4.54 20.85v-23.26m4.55 20.85V235.1m4.54 20.85v-23.26m4.49 20.88v-23.26m4.55 66.67V227.9m4.54 66.67v-69.08m4.54 66.67v-69.08m-13.32 76.14 4.24-2.24m.3-.17 4.24-2.24m.3-.17 4.24-2.24m-142.07-48.01v-.42m.97 1.77.19-.16m0 0-.05-.07m35.98 33.27v-.07m-.07-.02.07.02m.33 23.66v-.07m.04 45.86v-3.7m86.49-88.27.26.07m4.23-2.45.27.07m0 .07v-.07m4.54 43.48v-.08m.04.05v-.07m4.5-2.31v-.08m.04.05v-.07m-39.6-132.98.06.02m0 .29v-.29m43.78 61.08.06.02m0 .3v-.3m-.06 69.41.26.07m-69.64 61.17v-.07m.05.05v-.08m4.63-2.38v-.08m.05.05v-.07m4.63-2.38v-.08m.04.05v-.07m28.03-14.79v-.07m-32.8-80.28-.05-.06m-.14.22.19-.16m-14.1-19.15.18-.16m0 0-.05-.07m46.81 99.71v-.08m4.24-37.09.06.02m0 .29v-.29m4.95-38.02.26.07m-4.81 2.34.27.07m-4.81 2.34.26.07m-4.8 2.34.26.07m-4.8 2.34.26.07m-4.8 2.34.26.07m-10.23 75.48v-.08m.04.05v-.07m-42.27-101.89.19-.16m0 0-.05-.06m13.97 19.37-.05-.06m32.84 80.42v-.08m-32.75-80.3-.04-.06m32.84 80.41v-.07m-46.9-99.43.18-.16m0 0-.04-.07m4.49-2.23.19-.16m0 0-.05-.07m13.96 19.38-.04-.06m32.84 80.41v-.07m-32.75-80.3-.05-.07m32.85 80.42v-.07m-46.9-99.43.18-.17m0 0-.04-.06m4.49-2.23.19-.16m0 0-.05-.07m13.96 19.38-.04-.06m32.84 80.41v-.07m-32.75-80.3-.05-.07m32.85 80.42v-.08m-46.9-99.42.18-.17m0 0-.05-.06m4.68-2.39-.04-.07m-.14.23.18-.16m13.92 19.31-.05-.06m32.85 80.41v-.07m-32.75-80.3-.05-.07m32.84 80.42v-.08m-46.71-99.59-.05-.06m-.14.22.19-.16m69.02 62.95v-3.7m-84.09 8.07.26.07m0 0 .04-.03m-88.12-17.39.91-.48m51.4 13.94v-.07m-52.31 31.76.91-.48m51.4 13.94v-.08m-19.54-109.47v-16.21m-7.71 5.5v-7.48m75.14 128.27.05-.02m0-.74v-.08m-15.09-3.01 15.04 3.85m-15.04-3.85v-.81m0 0 .05-.03m0 0 .91-.48m-84.06-86.83 11.6-10.16m-11.6 10.16 11.6 2.97m.88 32.05v-30.91m0 30.91 10.25 2.62m-10.25-34.44 10.25 2.62m-10.25-16.75 10.25-8.98m-23 51.67 11.87 3.04m.88 45.37v-30.91m0 30.91 10.25 2.62m-10.25-34.45 10.25 2.63m-23 25.94 11.87 3.03m-11.87-34.86 11.87 3.04m-11.87-3.04v-5m41.85 15.71v-5m0 36.83 8.67 2.22m-8.67-34.05 8.67 2.22m-8.67-15.54 8.67 2.22m-8.67-34.05v-4.46m0 4.46 3.94 1.01m95.49 9.32v-4.93m-56.07 70.17v-30.91m0-.91 12.21 3.12m-12.21 28.7 13.25 3.39m-1.79-101.72 6.72-3.56m11.02 15.28-11.02-15.28m-15.8 8.38 6.72-3.56m11.02 15.28-11.02-15.28m4.15 102.84 6.98 1.78m-25.65-3.71 3.58-1.9m12.71-200.7v-15.54m6.54 17.21v-8.13m-6.54 6.46 6.23 1.59m.31.08 7.19 1.84m21.24 21.54v-8.12m4.68 5.64v-8.12m4.68 6.33v-8.81m28.06 19.4v-34.29m4.54 31.88v-34.29m-27.93 32.1v-17.28m4.68 23.77v-26.25m4.68 31.81v-34.29m4.68 31.81v-34.3m4.67 31.81v-34.29m-9.84 39.51.49-.25m.31-.17 4.37-2.31m.3-.17 4.37-2.32m.31-.16 4.37-2.32m.31-.16 4.23-2.25m-41.96-12.38-30.73-42.65M352.69 155l-30.74-42.65m35.42 40.17-30.74-42.65m58.8 27.76L354.7 94.98m35.27 40.25-30.73-42.65m2.8 57.46-30.73-42.65m35.41 40.17-30.73-42.65m35.41 40.17-30.73-42.65m35.41 40.17-30.74-42.65m35.41 40.17-30.73-42.65m-6.42 62.36 4.41-2.35m.26-.14 4.42-2.34m.26-.14 4.42-2.34m.26-.14 4.41-2.34m.27-.14 4.41-2.34m.26-.14 4.42-2.34m.26-.14 4.42-2.34m.26-.14 4.41-2.34m.27-.14 4.41-2.35m.27-.14 4.27-2.26m-77.37-10.59v-6.98m.06-.03v-.22m-94.28-13.27 13.08-11.46m0 0 .91-.48m44.1-7.95-.89-1.23m-11.39-8.76.04-.03m-.04.03-.27-.36m7.72 10.62-7.41-10.29m7.67 10.74-.26-.37m.26.37.05-.03m.32 1.69 4.28-2.27m78.15 10.62-1.99-2.75m-53.29 32.08 4.28-2.27m.26-.14 4.28-2.27m.26-.14 4.1-2.18m16.99-12.82 4.41-2.34m.26-.14 4.42-2.34m.26-.14 4.42-2.34m.26-.14 4.41-2.34m.27-.14 4.41-2.34m-21.54 9.56 8.17-4.34m-3.35 7.46-1.99-2.76m6.67.28-1.99-2.76m6.66.28-1.98-2.76m6.66.28-1.99-2.76m11.48-2.27 3.68-1.96m.27-.14 4.27-2.27m.27-.14 4.28-2.27m.26-.14 4.28-2.27m.26-.14 4.28-2.27m.26-.14 4.28-2.26m.26-.14 4.28-2.27m.27-.14 4.27-2.27m.27-.14 4.28-2.27m.26-.14 4.23-2.25m.27-.14 4.27-2.27m.27-.14 4.28-2.26m.26-.14 4.28-2.27M320 82.73l-26.9-37.34m-21.36 11.33 2.65-1.4m.26-.14 4.42-2.34m.26-.14 4.42-2.35m.26-.14 4.41-2.34m.27-.14 4.41-2.34m.27-.14 4.41-2.34m.26-.14 4.42-2.34m.26-.14 4.42-2.34m.26-.14 4.41-2.34m.27-.14 4.28-2.27m.26-.14 3.69-1.96m.26-.14 4.28-2.27m.26-.14 4.28-2.26m.26-.14 4.28-2.27m.27-.14 4.27-2.27m.27-.14 4.28-2.27m.26-.14 4.28-2.27m.26-.14 4.28-2.27m.26-.14 4.28-2.27m.26-.14 4.24-2.24m.26-.14 4.28-2.27m.26-.14 4.28-2.27M256.47 63.55l.04-.02m-.04.02-.25-.34m63.86 19.63.05-.03m9.31-4.94.04-.02m-4.72 2.5.05-.02m9.31-4.94.04-.02m-115.78 96.12v-67.35m85.32 85.31v-67.07m4.54 64.66v-67.07m73.12-15.52V81.19m4.54 20.86V78.78m4.54 20.86V76.37m4.54 20.86V73.96m4.55 20.86V71.56m-86.8 69.37v-.08m91.29-48.42V69.17m-40.83 28.38v-6.72m45.37 45.01V66.76m-40.83 37.1V88.42m45.38 45.01V64.35m-40.83 44.92V86.01m45.37 45.01V61.94m-40.83 44.92V83.6m-5.01 25.92.47-.25m.3-.16 4.24-2.25m.3-.16 4.24-2.25m.31-.16 4.23-2.24m.31-.17 4.23-2.24m.31-.17 4.23-2.24m.31-.17 4.24-2.24m.3-.16 4.19-2.23m.31 45.66 4.23-2.25m.31-.16 4.24-2.25m.3-.16 4.24-2.25m-142.07-48v-.42m.97 1.76.19-.16m0 0-.05-.06m35.91 33.17.06.02m0 .08v-.08m.34 23.66v-.07m.04 43.57v-1.41m86.49-88.26.26.07m4.49-2.32v-.07m-.26-.07.26.07m4.55 43.48v-.07m.04.05v-.08m4.5-2.31v-.07m.04.05v-.08M373.8.49l.07.02m0 .3v-.3m43.78 61.09.06.01m0 .3v-.3m-.06 69.41.26.07m-79.12-58.18.19-.16m0 0-.05-.07m13.78 19.55.19-.17m0 0-.05-.06m32.84 80.41v-.07m.05.05v-.07m4.23-37.09.07.01m0 .3v-.3m4.94-38.01.27.06m-4.81 2.35.26.06m-4.8 2.35.26.06m-4.8 2.34.26.07m-4.8 2.34.26.07m-4.8 2.34.26.07m-52.27-26.67-.05-.06m-.14.23.19-.17m13.92 19.32-.05-.07m.09.04-.05-.06m-13.87-19.25-.04-.06m-.14.22.18-.16m4.64-2.46-.05-.06m-.14.22.19-.16m13.91 19.32-.04-.07m32.84 80.42v-.08m-32.75-80.3-.05-.06m32.85 80.41v-.07m-46.72-99.59-.05-.07m-.13.23.18-.16m4.63-2.46-.04-.06m-.14.22.18-.16m13.92 19.32-.05-.07m32.85 80.42v-.08M343.59 97l-.05-.06m32.84 80.41v-.07m-46.71-99.59-.05-.07m-.14.23.19-.16m4.63-2.46-.04-.06m-.14.22.18-.16m13.92 19.31-.05-.06m32.85 80.42v-.08m-32.76-80.3-.04-.06m32.84 80.41v-.07m-46.71-99.59-.05-.07m-.14.23.19-.16m69.02 62.95v-3.71m-84.1 8.08.27.06m0 0 .04-.02m-88.12-17.4.91-.48m51.4 13.94v-.07m-52.31 31.76.91-.48m51.4 13.94v-.07M264.23 74.23V58.02m-7.72 5.51v-7.48m60.11 124.41v-.81m0 .81 2.71.7m-2.71-1.51.05-.02m0 0 .91-.49m-84.06-86.82 11.6-10.17m-11.6 10.17 11.6 2.96m.88 32.06V96.43m0 30.91 10.25 2.62M246 95.51l10.25 2.62M246 95.51V81.38m0 0 10.25-8.98m-23 51.67 11.87 3.04m.88 45.37v-30.9m0 30.9 10.25 2.63M246 140.66l10.25 2.62m-23 25.94 11.87 3.04m-11.87-3.04v-30.91m12.75 2.35v-5m-12.75 1.74 11.87 3.03m-11.87-3.03v-5.01m41.85 15.71v-5m0 36.83 8.67 2.22m-8.67-34.05 8.67 2.22m-8.67-15.54 8.67 2.22m-8.67-34.05v-4.46m0 4.46 3.94 1.01m95.49 9.33v-4.93m-56.07 38.34 12.21 3.12m-12.21 28.71 3.93 1m7.53-99.33 6.72-3.57m11.02 15.29-11.02-15.29m-15.8 8.39 6.72-3.57m11.01 15.29-11.01-15.29m-14.52 100.91 3.58-1.9m190.59 10.15v-15.53m0 15.53 6.23 1.6m.31.08 7.18 1.83m-7.18-1.83v-8.14m28.42 57.69v-34.29m4.68 31.81v-34.29m4.68 31.81v-34.29m28.07 19.4V187.7m4.54 31.88v-34.29m-27.93 49.11v-34.29m4.68 31.81v-34.3m4.67 31.81v-34.29m4.68 31.81v-34.29m4.68 31.81v-34.29m-37.12 53.98 4.37-2.32m.31-.16 4.37-2.32m.31-.16 4.37-2.32m.31-.17 4.37-2.31m.3-.17 4.38-2.31m.3-.17 4.37-2.32m.31-.16 4.37-2.32m.31-.16 4.37-2.32m.31-.16 4.37-2.32m.3-.16 4.24-2.25m-41.97-12.38-30.73-42.65m35.41 40.17-30.73-42.65m35.41 40.17-30.73-42.65m58.8 27.76-30.74-42.65m35.28 40.24-30.73-42.65m2.8 57.47-30.73-42.65m35.41 40.17-30.74-42.65m35.41 40.17-30.73-42.65m35.41 40.16-30.73-42.65m35.41 40.17-30.73-42.65m-6.43 62.36 4.41-2.34m.27-.14 4.41-2.34m.27-.14 4.41-2.34m.26-.14 4.42-2.34m.26-.14 4.42-2.34m.26-.14 4.41-2.34m.27-.14 4.41-2.35m.27-.14 4.41-2.34m.26-.14 4.42-2.34m.26-.14 4.28-2.27m-77.38-10.58v-6.98m.07-.04v-.22m-94.28-13.26 13.07-11.46m0 0 .91-.48m44.11-7.95-.9-1.24m-3.67 1.95.04-.02m-.04.02-.27-.36m-7.45-10.34.05-.03m-.05.03-.26-.37m7.71 10.62-7.4-10.28m8.04 12.4 4.28-2.27m78.14 10.62-1.98-2.76m6.79.21 3.69-1.95m.26-.14 4.28-2.27m.26-.14 4.28-2.27m.26-.14 4.28-2.27m.27-.14 4.27-2.27m.27-.14 4.28-2.27m.26-.14 4.28-2.27m.26-.14 4.28-2.27m.26-.14 4.28-2.26m.26-.14 4.24-2.25m.26-.14 4.28-2.27m.26-.14 4.28-2.27m.26-.14 4.28-2.27m-81.66 43.32-1.98-2.76m6.66.28-1.99-2.76m6.67.27-1.99-2.75m6.67.27-1.99-2.76m-16.87 7.09 8.18-4.34m-9.76 7.04 4.42-2.34m.26-.14 4.41-2.34m.27-.14 4.41-2.34m.26-.14 4.42-2.35m.26-.14 4.42-2.34m-53.3 32.08 4.28-2.27m.27-.14 4.27-2.27m.27-.14 4.09-2.17m-56.13-53.76.05-.03m-.05.03-.24-.35m15.51-6.48 2.66-1.41m.26-.14 4.41-2.34m.27-.14 4.41-2.34m.27-.14 4.41-2.34m.26-.14 4.42-2.34m.26-.14 4.42-2.34m.26-.14 4.41-2.34m.27-.14 4.41-2.34m.26-.14 4.42-2.34m.26-.14 4.28-2.27m.26-.14 3.69-1.96m.27-.14 4.27-2.27m.27-.14 4.28-2.27m.26-.14 4.28-2.27m.26-.14 4.28-2.27m.26-.13 4.28-2.27m.26-.14 4.28-2.27m.27-.14 4.27-2.27m.27-.14 4.28-2.27m.26-.14 4.23-2.25m.26-.14 4.28-2.26m.27-.14 4.27-2.27m-50.13 78.34.04-.02m-.12-.09-26.9-37.33m31.66 34.96.04-.02m4.63-2.46.05-.02m4.63-2.46.05-.02m-115.78 96.12v-67.35m85.31 87.39V172.1m4.54 66.74v-69.15m4.5 20.95v-.07m50.46-43.3v-6.73m8.62 18.69.46-.24m.31-.16 4.23-2.25m.31-.16 4.23-2.25m.31-.16 4.24-2.25m.3-.16 4.24-2.25m.3-.16 4.24-2.25m.31-.16 4.23-2.24m.31-.17 4.19-2.22m-36.29 11.42v-15.43m4.54 20.85v-23.26m4.54 20.85v-23.26m4.54 20.85v-23.26m4.55 20.85V128.5m4.54 20.85v-23.26m4.54 20.85v-23.26m4.54 20.86v-23.27m4.5 20.88v-23.26m4.54 66.67v-69.08m4.54 66.67v-69.08m4.54 66.67v-69.08m-13.32 76.14 4.24-2.24m.31-.17 4.23-2.24m.31-.16 4.23-2.25m-142.07-48.01v-.42m1.16 1.61-.05-.07m-.13.23.18-.16m35.93 33.2v-.07m-.07-.02.07.02m.33 23.66v-.07m.05 45.86v-3.7m86.48-88.26.26.06m4.5-2.31v-.07m-.26-.07.26.07m4.54 43.48v-.08m.05.05v-.07m4.49-2.31v-.07m.05.05v-.08M567.97 50.21l.06.02m0 .29v-.29m43.78 61.08.07.02m0 .3v-.3m-.07 69.41.26.07m-69.63 61.17v-.07m.04.05v-.08m4.63-2.38v-.07m.05.05v-.08m4.63-2.38v-.08m.05.05v-.07m28.02-14.79v-.07m-32.8-80.28-.04-.06m-.14.22.18-.16m-14.1-19.15.18-.16m0 0-.04-.07m46.8 99.71v-.08m4.24-37.09.06.02m0 .3v-.3m-.06 34.62.26.07m4.75-72.71.26.07m-4.8 2.34.26.07m-4.8 2.34.26.07m-4.81 2.34.27.07m-4.81 2.34.26.07m-4.8 2.34.26.07m-10.23 75.48v-.08m.04.05v-.07m-42.08-102.05-.04-.06m-.14.22.18-.16m13.92 19.32-.05-.07m32.85 80.42v-.08m-32.75-80.3-.05-.06m32.84 80.41v-.07m-46.71-99.59-.05-.07m-.14.23.19-.16m4.63-2.46-.05-.06m-.13.22.18-.16m13.92 19.31-.05-.06m32.85 80.42v-.08m-32.76-80.3-.04-.06m32.84 80.41v-.07m-46.71-99.59-.05-.07m-.14.23.19-.16m4.63-2.46-.05-.07m-.14.23.19-.16m13.92 19.31-.05-.06m32.84 80.41v-.07m-32.75-80.3-.04-.07m32.84 80.42V227m-46.72-99.6-.04-.06m-.14.23.18-.17m4.64-2.45-.05-.07m-.14.23.19-.16m13.91 19.31-.04-.06m32.84 80.41v-.07m-32.75-80.3-.05-.07m32.85 80.42v-.08m-46.72-99.59-.04-.06m-.14.23.18-.17m69.02 62.95v-3.7m-83.83 8.14.05-.02m-.31-.05.26.07m-88.08-17.42.91-.48m51.41 13.94v-.07m0 45.22v-.08M458.4 123.95v-16.21m-7.72 5.5v-7.48m75.15 128.27.04-.02m0-.74v-.08m-15.08-3.01v-.81m0 .81 15.04 3.85m-15.04-4.66.04-.03m0 0 .91-.48m-84.05-86.83 11.59-10.16m-11.59 10.16 11.59 2.97m.89 32.05v-30.9m0 30.9 10.25 2.63m-10.25-34.45 10.25 2.62m-10.25-16.75 10.25-8.98m-23.01 51.67 11.87 3.04m.89 45.37v-30.91m0 30.91 10.25 2.62m-10.25-34.44 10.25 2.62m-23.01 25.94 11.87 3.04m-11.87-3.04v-30.91m0-.92 11.87 3.04m-11.87-3.04v-5m41.85 15.71v-5m0 36.83 8.68 2.22m-8.68-34.05 8.68 2.22m-8.68-15.54 8.68 2.22m-8.68-34.05v-4.46m0 4.46 3.95 1.01m95.48 9.32v-4.93m-56.07 38.35 12.21 3.12m-12.21 28.7 13.25 3.39m-1.78-101.71 6.72-3.57m11.01 15.28-11.01-15.28M515 134.73l6.72-3.56m11.02 15.28-11.02-15.28m4.15 102.84 6.98 1.78m-25.64-3.71 3.58-1.9m-409.11 6.33 26.16 36.3m4.57 33.74v-34.71m-30.66-42.56 30.66 42.56m-30.47-42.79 4.42-2.35m.26-.14 4.42-2.34m.26-.14 4.41-2.34m.27-.14 4.41-2.34m.27-.14 4.41-2.34m.26-.14 4.42-2.34m.26-.14 4.42-2.34m.26-.14 4.41-2.34m.27-.14 4.41-2.34m.27-.14 4.27-2.27m-20.48 68.36v32.57m0 0 4.57 1.17M44.43 175.52.62 213.9m0 69.5v-69.5m43.81-31.06 39.23 54.45M5.19 217.21l39.24-34.37m43.81 53.48-43.81-60.8M5.19 284.57.62 283.4m4.57 1.17v-67.36m78.47 20.08v67.35m4.58 1.18-4.58-1.18m4.58 1.18v-69.5m13.58 62.29-4.19 2.22m-.31.17-4.23 2.24m-.31.17-4.24 2.24M21.45 204.07l23.42-20.51M7.46 216.01l-1.51.8m1.51 66.55-1.75.93m87.07 19.12.26.06m0 0v-69.62m0 69.62.05-.02m-.05-69.6.05-.02M.35 283.33l.27.07m87.88-47.14L44.43 175.1m0 0L.35 213.71m87.89 92.11.26.06m0 0v-69.62M.35 213.71v69.62m88.15 22.55.04-.02m-.04-69.6.04-.02M44.43 175.1l.04-.03m53.11 56.37-32.87-45.62M97.32 301l.26.06m0 0v-69.62m0 69.62.05-.02m-.05-69.6.05-.02m35.04 40.36-67.96-94.32m67.7 129.09.26.07m0 0v-34.84m0 0 .05-.02m-.05 34.86.05-.03m-30.6-7.93-.04.02m-.26-.07.26.07m86.79-115.66-42.96-59.62m42.96 83.36v-23.74m0 23.74.04-.03m-.04-23.71.04-.02m4.46-2.36-42.97-59.62m42.7 83.56v45.61m0 0 .27.07m0 0 .04-.02m-.04-69.6.04-.02m4.5-2.39-42.97-59.62m42.97 129.24.04-.02m-.04-69.6.04-.02m4.5-2.39-42.96-59.62m42.96 129.24.04-.02m-.04-69.6.04-.02m4.5-2.39-44.07-61.16m0 0-.28.25m44.4 130.51v-69.62m0 0-44.08-61.16m44.03 130.8.05-.02m-.05-69.6.05-.02m-44.12-61.14.04-.02M137.35 269.3 63.66 167.03m73.69 102.27.05-.02m-.05 34.85.05-.02m4.63-37.29L68.34 164.55m73.69 102.27.05-.03m-.05 34.86.05-.02m4.63-37.29-73.7-102.28m73.7 102.28.04-.03m-.04 34.86.04-.02m28.03-49.7.04-.02m-.04 34.86.04-.03m4.5-37.22-73.7-102.27m73.7 137.07.04.01m-.04-34.81.04-.02m-.04 34.86.04-.03m4.97-96.42-42.96-59.62m42.96 83.36v-23.74m0 23.74.04-.03m-.04-23.71.04-.02m-4.58 2.43-42.97-59.62m42.97 83.35v-23.73m0 23.73.04-.02m-.04-23.71.04-.02m-4.59 2.43-42.96-59.62m42.96 83.35v-23.73m0 23.73.05-.02m-.05-23.71.05-.02m-4.59 2.43-42.96-59.62m42.96 83.35v-23.73m0 23.73.05-.02m-.05-23.71.05-.02m-4.59 2.43-42.96-59.62m42.96 83.35v-23.73m0 0 .05-.03m-.05 23.76.05-.02m-4.59-21.3-42.96-59.63m42.96 83.36v-23.73m0 0 .04-.03m-.04 23.76.04-.02m-4.58-21.3-42.96-59.63m42.96 75.83v-16.2m0 0 .04-.03m-4.58 2.44-42.97-59.63m42.97 67.12v-7.49m0 0 .04-.03m-1.19 59.59-73.7-102.28m73.7 102.28.04-.03m-.04 34.86.04-.02m-28.21-82.87.05-.03m32.79 45.6.05-.02m-.05 34.86.05-.02m-46.76-99.65.04-.02m18.51 16.79.04-.02m32.8 45.6.05-.02m-.05 34.86.05-.03m-46.76-99.64.04-.02m18.51 16.79.04-.02m32.8 45.6.05-.02m-.05 34.86.05-.03m-46.76-99.64.04-.02m18.5 16.79.05-.02m32.8 45.6.04-.02m-.04 34.86.04-.03m-46.76-99.64.05-.02m-34.9 49.13 4.31-2.29m.23-.12 4.32-2.28m.22-.12 4.14-2.2m46.86-24.86 3.73-1.97m.22-.12 4.32-2.29m.23-.12 4.31-2.29m.23-.12 4.31-2.29m.23-.12 4.32-2.29m.22-.12 4.32-2.29m.22-.12 4.32-2.29m.22-.12 4.32-2.28m.23-.12 4.31-2.29m.23-.12 4.27-2.27m.22-.12 4.32-2.29m.23-.12 4.31-2.29m.23-.12 4.31-2.29m-162.27 1.66.77-.4m-.74.44.77-.41m113.51-60.2 4.12-2.19m29.5 137.65.65.16m-65.26 55.19-.07-.02m-19.15-50.9v-8.22m24.08 25.49 4.46-2.36m.22-.12 4.45-2.36m.23-.12 4.45-2.36m.23-.12 4.45-2.36m.23-.12 4.45-2.36m.22-.12 4.46-2.36m.22-.12 4.45-2.36m.23-.12 4.45-2.37m.23-.12 4.45-2.36m.22-.12 4.32-2.29m-19.59-130.94.28-.24m-1.39-1.92L57.23 167.68m102.58-51.75-99.19 52.61M5.19 284.57l.07.01m78.33 20.05.07.01m-78.4-87.38 39.17-34.31M5.26 284.58v-67.32m0 67.32.45-.24m-.45-67.08.45-.24m201.28 26.01v-.07m-13.58 7.28v-.08m-60.69 56.43v-.07m46.34-24.78.26.06m-74.65-84.86.05.06m13.87 19.25.04.07M20.5 237.44l24.83 6.35m27.48 7.03v-.37M20.5 237.07l24.83 6.35m17.02 4.36 10.46 2.67M20.5 237.44v-.37m52.31 13.38.04-.02m-.04.39.04-.02M20.5 282.59l24.83 6.35m27.48 7.03v-.37M20.5 282.22l24.83 6.35m17.02 4.36 10.46 2.67M20.5 282.59v-.37m52.31 13.38.04-.02m-.04.39.04-.02m-11.53-97.49 4.5-2.39m-4.55 2.32.05.07m-.21-26.65v.08m-12.22-6.35-4 2.12m0 0v.08m20.21 1.95v.08m-3.99 2.04 3.99-2.12m-20.21-2.03 16.22 4.15m-.08 25v-24.94m-.05 24.97v-24.99m-7.71 14.28v-16.25m-7.72 5.54v-7.51m75.19 127.46-15.04-3.85m15.04 4.66v-.81m.05-.02-.05.02M34.2 193.95l-11.83 10.36m0 0 .23-.12m-.23.12 11.83 3.02m.65.91v31.09m0 0 .23-.12m-.23.12 10.48 2.68M34.85 207.5l10.48 2.68m-10.48-2.68.23-.12m-.23.12v-14.13m0 0 .23-.12m10.25-9.05-10.48 9.17M22.1 236.06l12.1 3.1m-12.1-34.18v31.08m-.65.5v-32.49m.65 31.99.23-.12m12.75-28.56v-14.13m10.25-8.56-9.99 8.75m0 13.71 9.99 2.56m-9.99-16.27v13.71m0 0 .23-.12m-.23-13.59.23-.12m9.76-8.55-9.76 8.55m0 0v13.71m9.76 2.5-9.76-2.5m-.23 31.95 9.99 2.55m-9.99-33.05v30.5m0 0 .23-.12m0-30.32v30.32m9.76 2.5-9.76-2.5m-12.98-3.15 11.58 2.97m-11.58-33.46v30.49m0 0 .23-.12m0-30.31v30.31m11.35 2.91-11.35-2.91m.41-31.54 10.94 2.8m0-12.38-10.94 9.58m10.94-9.5-10.71 9.38m0 0 10.71 2.74m-10.94-2.62.23-.12m11.39 49.46v31.09m0 0 .23-.12m-.23.12 10.48 2.68m-10.48-34.51 10.48 2.68m-10.48-2.68.23-.12m-.23.12v-5.18M22.1 281.21l12.1 3.1m-12.1-34.18v31.08m-.65.5v-37.7m.65 37.2.23-.12m-.23-31.7 12.1 3.09m-12.1-3.09v-5.18m0 5.18.23-.12m13.01 34.86 9.99 2.55m-9.99-33.05v30.5m0 0 .23-.12m0-30.32v30.32m9.76 2.49-9.76-2.49m-13.24-2.92v-30.9m.26 30.67 11.58 2.97m-11.58-33.46v30.49m0 0 .23-.12m0-30.31v30.31m11.35 2.91-11.35-2.91m12.26-28.21v-5m.26 4.77 9.99 2.56m-9.99-7.15v4.59m0 0 .23-.12m0-4.41v4.41m9.76 2.5-9.76-2.5m-12.98-3.14L34.17 252m-11.58-7.55v4.59m0 0 .23-.12m0-4.41v4.41m11.35 2.9-11.35-2.9m41.13 43 8.9 2.28m-8.9-33.36v31.08m-.65.5v-37.7m.65 37.2.23-.12m-.23-31.71 8.9 2.28m-8.9-2.28v-5.18m0 5.18.23-.12m.26 31.6 8.41 2.15m-8.41-32.64v30.49m0 0 .23-.12m0-30.31v30.31m8.18 2.1-8.18-2.1m-.23-31.7 8.41 2.15m-8.41-6.74v4.59m0 0 .23-.13m0-4.41v4.41m8.18 2.1-8.18-2.1m-1.37-12.35v-38.13m.65 37.63.23-.12m-.23.12 8.9 2.28m-8.9-39v4.9m0 .74v31.08m0-31.82 4.33 1.1m-4.33-1.1.23-.12m0 31.82v-30.91m.26 30.68 8.41 2.16m-8.41-32.65v30.49m0 0 .23-.12m0-30.31v30.31m8.18 2.1-8.18-2.1m-.49-31.47v-4.47m.26 4.24v-3.88m3.42 4.75-3.42-.87m.23-.12v-3.44m3.03 4.21-3.03-.77m0 0-.23.12m99.5 11.01v-5.56m.45-.24v6.43m-.96-1.34v-4.58m-.33 4.13v-3.95m-55.79 38.93v31.09m-.65.5v-36.98m.65 36.48.23-.12m-.23-31.71 12.6 3.22m-12.6-3.22.23-.12m-.23-4.37v4.49m0 31.83 13.48 3.45m-12.99-3.8 12.99 3.32m-12.99-33.82v30.5m0 0 .23-.12m0-30.32v30.32m12.76 3.26-12.76-3.26m-.49-31.48v-4.31m.26 4.08 11.69 2.99m-11.69-7v4.01m0 0 .23-.12m0-3.83v3.83m11.3 2.89-11.3-2.89m9.28-66.06.69-.61m0 0 8.18-4.33m0 0 12.02 16.68m-.69.61.69-.61m0 0-8.17 4.34m-.7.6.7-.6m0 0L118 191.55m.92.4 7.27-3.85m0 0 11.09 15.4m-11.09-15.4-.47.4m.01.89-.14.12m.14-.12 10.18 14.11m-16.44-10.79 6.26-3.32m-6.24 3.36 6.1-3.24m0 0 10.15 14.08M119.68 193l5.92-3.14m0 0 9.8 13.6m-9.8-13.6-.19.16m-5.7 3.03 5.7-3.03m0 0 9.77 13.56m-26.95-6.6.69-.61m0 0 8.18-4.34m0 0 12.02 16.69m-.7.61.7-.61m0 0-8.18 4.33m-.69.61.69-.61m0 0-12.02-16.68m.92.4 7.26-3.85m0 0 11.1 15.4m-11.1-15.4-.46.4m.01.88-.14.13m.14-.13 10.17 14.12m-16.44-10.79 6.27-3.33m-6.24 3.36 6.1-3.23m0 0 10.15 14.08m-16.07-10.59 5.92-3.14m0 0 9.81 13.6m-9.81-13.6-.18.16m-5.7 3.03 5.7-3.03m0 0 9.77 13.56m-42.51 94.44-21.2-5.42m-17.06-4.37-37.87-9.69m13.08-39.58v38.41m0-45.15v-32.49m85.21 86.95v-37.7m59.95-25.74v-8.94m22.87 17.25-14.24-3.64m18.12 13.6-13.09 6.94m13.09-3.24-13.09 6.94m-77.24 37.99 25.65 6.56m-25.65-2.86 25.65 6.56m-63.11-135.5-3.63 1.93m-12.06-5.94 15.69 4.01m-19.33-2.09 3.64-1.92m12.06 5.94-15.7-4.02m15.7 130.51-15.7-4.02m15.7 4.02v-92.15m1.36 91.43-1.36.72m235.28-12.36 26.16 36.3m4.57 33.73V321.1m-30.66-42.56 30.66 42.56m-30.47-42.79 4.42-2.34m.26-.14 4.42-2.34m.26-.14 4.41-2.34m.27-.14 4.41-2.34m.27-.14 4.41-2.34m.26-.14 4.42-2.35m.26-.14 4.42-2.34m.26-.14 4.41-2.34m.27-.14 4.41-2.34m.27-.14 4.27-2.27m-20.48 68.37v32.56m0 0 4.57 1.17m-87.98-131.03-43.81 38.38m0 69.5v-69.5m43.81-31.05 39.23 54.45m-78.47-20.08 39.24-34.37m43.81 53.47-43.81-60.8m-39.24 109.05-4.57-1.17m4.57 1.17v-67.35m78.47 20.08v67.35m4.58 1.17-4.58-1.17m4.58 1.17v-69.5m13.58 62.3-4.19 2.22m-.31.16-4.23 2.25m-.31.16-4.24 2.25m-67.09-101.58 23.42-20.52m-37.41 32.45-1.51.81m1.51 66.55-1.75.93m87.07 19.11.26.07m0 0v-69.62m0 69.62.05-.03m-.05-69.59.05-.03m-92.74 49.5.27.07m87.88-47.13-44.07-61.17m0 0-44.08 38.61m87.89 92.11.26.07m0 0v-69.62m-88.15-22.56v69.62m88.15 22.56.04-.03m-.04-69.59.04-.03m-44.11-61.14.04-.02m53.11 56.37-32.87-45.63m32.61 115.18.26.07m0 0v-69.62m0 69.62.05-.02m-.05-69.6.05-.03m35.04 40.37-67.96-94.33m67.7 129.09.26.07m0 0v-34.83m0 0 .05-.03m-.05 34.86.05-.02m-30.6-7.94-.04.02m-.26-.06.26.06m86.79-115.65-42.96-59.62m42.96 83.35v-23.73m0 23.73.04-.02m-.04-23.71.04-.03m4.46-2.36-42.97-59.62m42.7 83.57v45.61m0 0 .27.07m0 0 .04-.03m-.04-69.6.04-.02m4.5-2.38-42.97-59.63m42.97 129.25.04-.03m-.04-69.59.04-.03m4.5-2.38-42.96-59.63m42.96 129.25.04-.03m-.04-69.59.04-.03m4.5-2.38-44.07-61.17m44.12 130.77v-69.63m-.05 69.65.05-.02m-.05-69.6.05-.03m-44.12-61.14.04-.02m-25.61 157.07-73.69-102.27m73.69 102.27.05-.02m-.05 34.86.05-.02m4.63-37.3-73.69-102.27m73.69 102.27.05-.02m-.05 34.86.05-.03m4.63-37.29-73.7-102.27m73.7 102.27.04-.02m-.04 34.86.04-.03m28.03-49.69.04-.03m-.04 34.86.04-.02m4.5-37.22-73.7-102.28m73.7 137.08.04.01m-.04-34.81.04-.03m-.04 34.86.04-.02m4.97-96.42L336 175.08m42.96 83.35V234.7m0 23.73.04-.02m-.04-23.71.04-.03m-4.58 2.44-42.97-59.63m42.97 83.36v-23.73m0 23.73.04-.02m-.04-23.71.04-.03m-4.59 2.44-42.96-59.63m42.96 83.36v-23.73m0 23.73.05-.03m-.05-23.7.05-.03m-4.59 2.43-42.96-59.62m42.96 83.36v-23.74m0 23.74.05-.03m-.05-23.71.05-.02m-4.59 2.43-42.96-59.62m42.96 83.36v-23.74m0 0 .05-.02m-.05 23.76.05-.03m-4.59-21.3-42.96-59.62m42.96 83.36v-23.74m0 0 .04-.02m-.04 23.76.04-.03m-4.58-21.3-42.96-59.62m42.96 75.83v-16.21m0 0 .04-.02m-4.58 2.43-42.97-59.62m42.97 67.11v-7.49m0 0 .04-.02m-1.19 59.58-73.7-102.27m73.7 102.27.04-.02m-.04 34.86.04-.03m-28.21-82.87.05-.02m32.79 45.6.05-.02m-.05 34.86.05-.03m-46.76-99.64.04-.02m18.51 16.79.04-.03m32.8 45.61.05-.03m-.05 34.86.05-.02m-46.76-99.64.04-.03m18.51 16.8.04-.03m32.8 45.61.05-.03m-.05 34.86.05-.02m-46.76-99.64.04-.03m18.5 16.8.05-.03m32.8 45.61.04-.03m-.04 34.86.04-.02m-46.76-99.64.05-.03m-34.9 49.14 4.31-2.29m.23-.12 4.32-2.29m.22-.12 4.14-2.19m46.86-24.86 3.73-1.98m.22-.12 4.32-2.29m.23-.12 4.31-2.29m.23-.11 4.31-2.29m.23-.12 4.32-2.29m.22-.12 4.32-2.29m.22-.12 4.32-2.29m.22-.12 4.32-2.29m.23-.12 4.31-2.29m.23-.12 4.27-2.26m.22-.12 4.32-2.29m.23-.12 4.31-2.29m.23-.12 4.31-2.29m-162.27 1.66.77-.41m-.74.45.77-.41m113.51-60.21 4.12-2.18m29.5 137.64.65.17m-65.26 55.18-.07-.01m-19.15-50.9v-8.22M327.33 321l4.46-2.36m.22-.12 4.45-2.36m.23-.12 4.45-2.37m.23-.11 4.45-2.37m.23-.12 4.45-2.36m.22-.12 4.46-2.36m.22-.12 4.45-2.36m.23-.12 4.45-2.36m.23-.12 4.45-2.36m.22-.12 4.32-2.29m-19.59-130.94.28-.24m0 0-99.19 52.61m-55.43 116.02.07.02m78.33 20.04.07.02m-78.4-87.38 39.17-34.32m-39.17 101.64v-67.32m0 67.32.45-.24m-.45-67.08.45-.24m201.28 26.01v-.07m-13.58 7.27v-.07m-60.69 56.43v-.08M373.69 331l.26.07M299.3 246.2l.05.07m13.87 19.25.04.06m-98.13 21.12 24.83 6.36m27.48 7.03v-.37m-52.31-13.39 24.83 6.36m17.02 4.35 10.46 2.68m-52.31-13.02v-.37m52.31 13.39.04-.02m-.04.39.04-.02m-52.35 31.78 24.83 6.36m27.48 7.03v-.37m-52.31-13.39 24.83 6.36m17.02 4.35 10.46 2.68m-52.31-13.02v-.37m52.31 13.39.04-.03m-.04.4.04-.03m-11.53-97.49 4.5-2.38m-4.55 2.32.05.06m-.21-26.64v.07m-12.22-6.34-4 2.12m0 0v.07m20.21 1.96v.07m-3.99 2.05 3.99-2.12m-20.21-2.03 16.22 4.15m-.08 25v-24.95m-.05 24.97v-24.98m-7.71 14.27v-16.25m-7.72 5.55v-7.52m75.19 127.47-15.04-3.85m15.04 4.66v-.81m.05-.03-.05.03m-86.54-101.43L217 253.57m0 0 .23-.12m-.23.12 11.83 3.03m.65.91v31.08m0 0 .23-.12m-.23.12 10.48 2.68m-10.48-34.5 10.48 2.68m-10.48-2.68.23-.12m-.23.12v-14.13m0 0 .23-.12m10.25-9.06-10.48 9.18m-12.75 42.69 12.1 3.09m-12.1-34.18v31.09m-.65.5v-32.49m.65 31.99.23-.12m12.75-28.56v-14.13m10.25-8.56-9.99 8.75m0 13.71 9.99 2.55m-9.99-16.26v13.71m0 0 .23-.12m-.23-13.59.23-.12m9.76-8.56-9.76 8.56m0 0v13.71m9.76 2.49-9.76-2.49m-.23 31.94 9.99 2.56m-9.99-33.05v30.49m0 0 .23-.12m0-30.31v30.31m9.76 2.5-9.76-2.5m-13.24-2.91V254.3m.26 30.68 11.58 2.96m-11.58-33.45v30.49m0 0 .23-.12m0-30.32v30.32m11.35 2.9-11.35-2.9m.41-31.54 10.94 2.79m0-12.37-10.94 9.58m10.94-9.5-10.71 9.38m0 0 10.71 2.74m-10.94-2.62.23-.12m11.39 49.45v31.09m0 0 .23-.12m-.23.12 10.48 2.68m-10.48-34.51 10.48 2.69m-10.48-2.69.23-.12m-.23.12v-5.18m-12.75 33.75 12.1 3.09m-12.1-34.18v31.09m-.65.5v-37.7m.65 37.2.23-.12m-.23-31.71 12.1 3.1m-12.1-3.1v-5.18m0 5.18.23-.12m13.01 34.86 9.99 2.56m-9.99-33.05v30.49m0 0 .23-.12m0-30.31v30.31m9.76 2.5-9.76-2.5m-13.24-2.91v-30.91m.26 30.68 11.58 2.96m-11.58-33.46v30.5m0 0 .23-.12m0-30.32v30.32m11.35 2.9-11.35-2.9m12.26-28.22v-5m.26 4.78 9.99 2.55m-9.99-7.14v4.59m0 0 .23-.13m0-4.41v4.41m9.76 2.5-9.76-2.5m-12.98-3.14 11.58 2.96m-11.58-7.55v4.59m0 0 .23-.12m0-4.41v4.41m11.35 2.91-11.35-2.91m41.13 43.01 8.9 2.27m-8.9-33.36v31.09m-.65.5v-37.7m.65 37.2.23-.12m-.23-31.71 8.9 2.28m-8.9-2.28v-5.18m0 5.18.23-.12m0 31.83v-30.91m.26 30.68 8.41 2.15m-8.41-32.65v30.5m0 0 .23-.12m0-30.32v30.32m8.18 2.09-8.18-2.09m-.23-31.71 8.41 2.15m-8.41-6.74v4.59m0 0 .23-.12m0-4.41v4.41m8.18 2.09-8.18-2.09m-1.37-12.35V258.4m.65 37.64.23-.12m-.23.12 8.9 2.27m-8.9-39v4.9m0 .74v31.09m0-31.83 4.33 1.11m-4.33-1.11.23-.12m0 31.83v-30.91m.26 30.68 8.41 2.15m-8.41-32.65v30.5m0 0 .23-.12m0-30.32v30.32m8.18 2.09-8.18-2.09m-.23-31.71v-3.87m3.42 4.75-3.42-.88m.23-.12v-3.43m3.03 4.21-3.03-.78m0 0-.23.12m99.5 11.02v-5.56m.45-.24v6.43m-.96-1.34v-4.58m-.33 4.13v-3.96m-55.79 38.94v31.08m-.65.5V303.3m.65 36.48.23-.12m-.23-31.7 12.6 3.22m-12.6-3.22.23-.12m-.23-4.37v4.49m0 31.82 13.48 3.45m-12.99-3.8 12.99 3.33m-12.99-33.82v30.49m0 0 .23-.12m0-30.31v30.31m12.76 3.27-12.76-3.27m-.49-31.47v-4.31m.26 4.08 11.69 2.99m-11.69-7.01v4.02m0 0 .23-.12m0-3.84v3.84m11.3 2.89-11.3-2.89m9.28-66.06.69-.61m0 0 8.18-4.34m0 0 12.02 16.69m-.69.6.69-.6m0 0-8.17 4.33m-.7.61.7-.61m0 0-12.03-16.68m.92.4 7.27-3.86m0 0 11.09 15.4m-11.09-15.4-.47.41m.01.88-.14.12m.14-.12 10.18 14.12m-16.44-10.79 6.26-3.33m-6.24 3.36 6.1-3.24m0 0 10.15 14.09m-16.06-10.59 5.92-3.14m0 0 9.8 13.6m-9.8-13.6-.19.16m-5.7 3.02 5.7-3.02m0 0 9.77 13.56m-26.95-6.61.69-.6m0 0 8.18-4.34m0 0 12.02 16.68m-.7.61.7-.61m0 0-8.18 4.34m-.69.61.69-.61m0 0-12.02-16.68m.92.4 7.26-3.86m0 0 11.1 15.4m-11.1-15.4-.46.41m.01.88-.14.12m.14-.12 10.17 14.12m-16.44-10.8 6.27-3.32m-6.24 3.36 6.1-3.24m0 0 10.15 14.08m-16.07-10.59 5.92-3.14m0 0 9.81 13.61m-9.81-13.61-.18.17m-5.7 3.02 5.7-3.02m0 0 9.77 13.55m-42.51 94.45-21.2-5.43m-17.06-4.36-37.87-9.69m13.08-39.58v38.41m0-45.15v-32.49m85.21 86.94v-37.69m59.95-25.75v-8.93m22.87 17.25-14.24-3.65m18.12 13.6-13.09 6.94m13.09-3.24-13.09 6.94m-77.24 37.99 25.65 6.56m-25.65-2.86 25.65 6.56m-63.11-135.49-3.63 1.92m-12.06-5.94 15.69 4.02m-19.33-2.09 3.64-1.93m12.06 5.94-15.7-4.01m15.7 130.5-15.7-4.01m15.7 4.01v-92.15m1.36 91.43-1.36.72m56.94-222.76 26.15 36.3m4.58 7.49v-8.46m-30.67-42.56 30.67 42.56m-30.47-42.8 4.42-2.34m.26-.14 4.41-2.34m.27-.14 4.41-2.34m.27-.14 4.41-2.34m.26-.14 4.42-2.34m.26-.14 4.42-2.34m.26-.14 4.41-2.34m.27-.14 4.41-2.34m.27-.14 4.41-2.35m.26-.14 4.28-2.26m-20.49 68.36v9.92M255.34 63.65l-43.81 38.38m0 69.49v-69.49m43.81-31.06 39.24 54.45m-78.47-20.08 39.23-34.37m43.82 53.48-43.82-60.8M216.11 172.7l-4.58-1.18m4.58 1.18v-67.36m78.47 20.08v67.35m1.92.5-1.92-.5m4.58-.91v-67.41M232.37 92.2l23.41-20.51m-37.4 32.45-1.51.8m1.51 66.55-1.75.93m87.33 16.89v-67.33m0 0 .04-.02m-92.73 49.5.26.06m87.89-47.13-44.08-61.16m0 0-44.07 38.61m88.15 89.88v-67.33m-88.15-22.55v69.62m88.15-47.07.04-.02m-44.12-61.14.05-.03m53.11 56.37-32.87-45.62M308.5 186.9v-67.33m0 0 .05-.02m35.04 40.36-67.96-94.33m67.96 102.71v-8.38m0 0 .05-.02m56.15-88.74-42.96-59.62m42.96 83.36V71.15m0 23.74.04-.03m-.04-23.71.04-.02m4.45-2.36L361.32 9.15m42.7 83.56v45.61m0 0 .26.07m0 0 .05-.02m-.05-69.6.05-.03m4.5-2.38L365.86 6.74m42.97 129.24.04-.02m-.04-69.6.04-.03m4.5-2.38L370.4 4.33m42.97 129.24.04-.02m-.04-69.6.04-.02m4.5-2.39L373.84.38m0 0-.28.24m44.39 130.52V61.52m0 0L373.88.35m44.03 130.81.04-.02m-.04-69.6.04-.02M373.84.38l.04-.03m-25.61 157.08L274.58 55.16m73.69 110.65v-8.38m0 0 .05-.03m4.63-2.45-73.7-102.28m73.7 110.66v-8.38m0 0 .04-.03m4.64-2.45-73.7-102.28m73.7 111.35v-9.07m0 0 .04-.03m28.02-14.86.05-.03m-.05 34.86.05-.02m4.5-37.22L316.54 32.9m73.7 137.07.04.01m-.04-34.81.04-.02m-.04 34.86.04-.03m4.97-96.42-42.97-59.62m42.97 83.35V73.56m0 23.73.04-.02m-.04-23.71.04-.02m-4.59 2.43-42.96-59.62M390.7 99.7V75.97m0 23.73.05-.02m-.05-23.71.05-.02m-4.59 2.43L343.2 18.76m42.96 83.35V78.38m0 23.73.05-.02m-.05-23.71.05-.02m-4.59 2.43-42.96-59.62m42.96 83.35V80.79m0 23.73.05-.02m-.05-23.71.05-.03m-4.59 2.44-42.96-59.63m42.96 83.36V83.2m0 0 .04-.03m-.04 23.76.04-.02m-4.58-21.3-42.96-59.63m42.96 83.36V85.61m0 0 .04-.03m-.04 23.76.04-.03M368 88.01l-42.97-59.62M368 104.22V88.01m0 0 .04-.02m-4.59 2.43L320.49 30.8m42.96 67.12v-7.5m0 0 .05-.02m-1.2 59.58L288.61 47.71m73.69 120.32v-18.05m0 0 .05-.02m4.63 24.56V147.5m-32.84-45.58.04-.02m32.8 45.6.05-.02m-46.76-64.81.04-.02m18.51 16.79.04-.02m32.8 45.6.05-.02m-.05 34.86.05-.03m-46.76-99.64.04-.02m18.5 16.79.05-.02m32.8 45.6.04-.02m-.04 34.86.04-.03m-46.76-99.64.05-.02m18.5 16.79.05-.02m32.8 45.6.04-.02m-.04 34.86.04-.03M334.3 75.23l.05-.02m-34.9 49.13 4.31-2.29m.23-.12 4.31-2.29m.23-.12 4.13-2.19m46.87-24.86 3.73-1.97m.22-.12 4.32-2.29m.22-.12 4.32-2.29m.23-.12 4.31-2.29m.23-.12 4.31-2.29m.23-.12 4.32-2.29m.22-.12 4.32-2.29m.22-.12 4.32-2.29m.22-.12 4.32-2.28m.23-.12 4.27-2.27m.22-.12 4.32-2.29m.22-.12 4.32-2.29m.23-.12 4.31-2.29m-162.27 1.66.77-.4m-.74.44.77-.41M369.75 2.7l4.12-2.19m29.5 137.65.65.16m-65.33 32.57v-9.94m-19.15-18.36v-8.22m24.08 25.49 4.45-2.36m.23-.12 4.45-2.36m.23-.12 4.45-2.36m.23-.12 4.45-2.36m.22-.12 4.46-2.36m.22-.12 4.45-2.37m.23-.11 4.45-2.37m.23-.12 4.45-2.36m.23-.12 4.45-2.36m.22-.12 4.32-2.29M370.45 4.3l.28-.24m-1.39-1.92L268.15 55.81M370.73 4.06l-99.2 52.61M216.11 172.7l.07.01m78.33 20.05.07.01m-78.4-87.38 39.16-34.31m-39.16 101.63v-67.32m0 67.32.45-.24m-.45-67.08.45-.24m201.28 26.01v-.07m-13.58 7.28v-.08m-14.36 31.57.27.07m-74.65-84.86.05.06m13.87 19.25.04.07m-45.78 33.39-9.55-2.44m-42.81-9.83 24.84 6.35m27.48 7.03v-.37m-52.32-13.38 24.84 6.35m17.01 4.36 10.47 2.67m-52.32-13.01v-.37m52.32 13.38.04-.02m-.04.39.04-.02m-52.36 31.79 24.84 6.35m27.48 7.03v-.37m-52.32-13.38 24.84 6.35m17.01 4.35 10.47 2.68m-52.32-13.01v-.37m52.32 13.38.04-.02m-.04.39.04-.02m-11.53-97.49 4.5-2.39m-4.55 2.32.05.07m-.21-26.65v.07m-12.22-6.34-4 2.12m0 0v.08m20.21 1.95v.08m-3.99 2.04 3.99-2.12m-20.21-2.03 16.22 4.15m-.08 25V59.99m-.05 24.98V59.98m-7.71 14.28V58.01m-7.72 5.54v-7.52m63.9 124.58-3.75-.96m-71.5-97.57-11.83 10.36m0 0 .23-.12m-.23.12 11.83 3.02m.65.91v31.09m0 0 .23-.12m-.23.12 10.48 2.68m-10.48-34.51 10.48 2.68m-10.48-2.68.23-.12m-.23.12V81.5m0 0 .23-.12m10.25-9.05-10.48 9.17m-12.75 42.69 12.1 3.1m-12.1-34.18v31.08m-.65.5V92.2m.65 31.99.23-.12m23-51.25-9.99 8.75m0 13.71 9.99 2.56m-9.99-16.27v13.71m0 0 .23-.12m-.23-13.59.23-.12m9.76-8.55-9.76 8.55m0 0v13.71m9.76 2.5-9.76-2.5m-.23 31.95 9.99 2.55m-9.99-33.05v30.5m0 0 .23-.12m0-30.32v30.32m9.76 2.49-9.76-2.49m-13.24-2.92v-30.9m.26 30.67 11.57 2.96m-11.57-33.45v30.49m0 0 .23-.12m0-30.31v30.31m11.34 2.91-11.34-2.91m.41-31.54 10.93 2.8m0-12.38-10.93 9.58m10.93-9.5-10.7 9.38m0 0 10.7 2.74m-10.93-2.62.23-.12m11.39 49.46v31.08m0 0 .23-.12m-.23.12 10.48 2.69m-10.48-34.51 10.48 2.68m-10.48-2.68.23-.12m-.23.12v-5.18m-12.75 33.74 12.1 3.1m-12.1-34.18v31.08m-.65.5v-37.7m.65 37.2.23-.12m-.23-31.7 12.1 3.09m-12.1-3.09v-5.19m0 5.19.23-.12m13.01 34.85 9.99 2.56m-9.99-33.05v30.49m0 0 .23-.12m0-30.31v30.31m9.76 2.5-9.76-2.5m-12.98-3.14 11.57 2.96m-11.57-33.45v30.49m0 0 .23-.12m0-30.31v30.31m11.34 2.91-11.34-2.91m12.52-28.44 9.99 2.56m-9.99-7.15v4.59m0 0 .23-.12m0-4.41v4.41m9.76 2.5-9.76-2.5m-12.98-3.14 11.57 2.96m-11.57-7.55v4.59m0 0 .23-.12m0-4.41v4.41m11.34 2.9-11.34-2.9m41.13 43 8.9 2.28m-8.9-33.37v31.09m-.65.5v-37.7m.65 37.2.23-.12m-.23-31.71 8.9 2.28m-8.9-2.28v-5.18m0 5.18.23-.12m0 31.83v-30.91m.26 30.68 8.41 2.15m-8.41-32.64v30.49m0 0 .23-.12m0-30.32v30.32m8.18 2.09-8.18-2.09m-.23-31.71 8.41 2.16m-8.41-6.74v4.58m0 0 .23-.12m0-4.41v4.41m8.18 2.1-8.18-2.1m-1.37-12.35V97.27m.65 37.63.23-.12m-.23.12 8.9 2.28m-8.9-39v4.89m0 .74v31.09m0-31.83 4.33 1.11m-4.33-1.11.23-.12m0 31.83v-30.91m.26 30.68 8.41 2.15m-8.41-32.64v30.49m0 0 .23-.12m0-30.31v30.31m8.18 2.1-8.18-2.1m-.23-31.7v-3.88m3.42 4.75-3.42-.87m.23-.13v-3.43m3.03 4.21-3.03-.78m0 0-.23.13m99.5 11.01v-5.56m.45-.24v6.43m-.96-1.34v-4.58m-.33 4.13v-3.95m-55.79 38.93v31.09m-.65.49v-36.97m.65 36.48.23-.12m-.23-31.71 12.6 3.22m-12.6-3.22.23-.12m-.23-4.37v4.49m0 31.83 3.94 1m-3.71-1.12v-30.91m.26 30.68 4.05 1.03m-4.05-31.53v30.5m0 0 .23-.12m0-30.32v30.32m4.05 1.03-4.05-1.03m-.49-31.48v-4.31m.26 4.08 11.69 2.99m-11.69-7v4.01m0 0 .23-.12m0-3.83v3.83m11.3 2.89-11.3-2.89m9.28-66.06.69-.61m0 0 8.18-4.33m0 0 12.02 16.68m-.69.61.69-.61m0 0-8.18 4.33m-.69.61.69-.61m0 0-12.02-16.68m.92.4 7.27-3.85m0 0 11.09 15.4m-11.09-15.4-.47.4m.01.89-.14.12m.14-.12 10.17 14.11m-16.44-10.79 6.27-3.32m-6.24 3.35 6.1-3.23m0 0 10.15 14.08m-16.07-10.59 5.93-3.14m0 0 9.8 13.6m-9.8-13.6-.19.16m-5.7 3.03 5.7-3.03m0 0 9.77 13.56m-26.95-6.6.69-.61m0 0 8.17-4.34m0 0 12.03 16.69m-.7.6.7-.6m0 0-8.18 4.33m-.69.61.69-.61m0 0L319.84 84.5m.92.4 7.26-3.85m0 0 11.1 15.4m-11.1-15.4-.46.4m.01.88-.14.12m.14-.12 10.17 14.12M321.3 85.66l6.27-3.33m-6.24 3.36 6.1-3.24m0 0 10.15 14.09m-16.07-10.59 5.92-3.14m0 0 9.8 13.6m-9.8-13.6-.18.16m-5.71 3.02 5.71-3.02m0 0 9.77 13.56m-42.51 94.44-21.2-5.42m-17.06-4.37-37.87-9.69m13.08-39.58v38.41m0-45.15V92.68m100.25 81.91v-23.32m-15.04 28.36v-37.7m59.95-25.75v-8.93m22.87 17.25-14.24-3.65m18.12 13.6-13.09 6.95m13.09-3.24-13.09 6.94m-77.24 37.98 1.79.46M275.58 57.85l-3.63 1.93m-12.06-5.95 15.69 4.02m-19.33-2.09 3.64-1.93m12.06 5.95-15.7-4.02m15.7 130.51-15.7-4.02m15.7 4.02V94.12m1.36 91.43-1.36.72m234.81-11.91 26.16 36.3m4.58 33.74v-34.72m-30.67-42.56 30.67 42.56m-30.47-42.79 4.41-2.34m.27-.14 4.41-2.34m.26-.14 4.42-2.34m.26-.14 4.42-2.34m.26-.14 4.41-2.34m.27-.14 4.41-2.34m.26-.14 4.42-2.35m.26-.14 4.42-2.34m.26-.14 4.41-2.34m.27-.14 4.28-2.27m-20.49 68.37v32.56m0 0 4.58 1.18m-87.99-131.04-43.81 38.38m0 69.5v-69.5m43.81-31.05 39.23 54.45m-78.46-20.08 39.23-34.37m43.81 53.47-43.81-60.8m-39.23 109.05-4.58-1.17m4.58 1.17v-67.35m78.46 20.08v67.35m4.58 1.17-4.58-1.17m4.58 1.17v-69.5m13.58 62.3-4.19 2.22m-.31.16-4.23 2.25m-.31.16-4.23 2.25m-67.1-101.58 23.42-20.52m-37.4 32.46-1.52.8m1.52 66.55-1.75.93m87.06 19.11.26.07m0 0V171.7m0 69.62.05-.02m-.05-69.6.05-.03m-92.73 49.5.26.07m87.88-47.13-44.07-61.17m0 0-44.07 38.61m87.88 92.11.26.07m0 0v-69.62m-88.14-22.56v69.62m88.14 22.56.05-.03m-.05-69.59.05-.03m-44.12-61.14.05-.02m53.11 56.37-32.88-45.62m32.61 115.17.27.07m0 0v-69.62m0 69.62.04-.02m-.04-69.6.04-.03m35.05 40.37-67.97-94.33m67.71 129.1.26.06m0 0v-34.83m0 0 .04-.03m-.04 34.86.04-.02m-30.59-7.94-.05.03m-.26-.07.26.07m86.79-115.66-42.96-59.62m42.96 83.35v-23.73m0 23.73.05-.02m-.05-23.71.05-.02m4.45-2.36-42.96-59.63m42.7 83.57v45.61m0 0 .26.07m0 0 .04-.03m-.04-69.59.04-.03m4.5-2.38-42.96-59.63m42.96 129.25.05-.03m-.05-69.59.05-.03m4.49-2.38-42.96-59.63m42.96 129.25.05-.02m-.05-69.6.05-.03m4.49-2.38L568 50.1m0 0-.28.24m44.4 130.52v-69.63m0 0-44.07-61.16m44.02 130.81.05-.02m-.05-69.6.05-.03M568 50.1l.05-.03m-25.61 157.08-73.7-102.28m73.7 102.28.04-.03m-.04 34.86.04-.02m4.63-37.3-73.69-102.27m73.69 102.27.05-.02m-.05 34.86.05-.02m4.63-37.3L478.1 99.91m73.69 102.27.05-.02m-.05 34.86.05-.03m28.02-49.69.04-.03m-.04 34.86.04-.02m4.5-37.22L510.71 82.61m73.69 137.08.05.01m-.05-34.81.05-.03m-.05 34.86.05-.02m4.96-96.42-42.96-59.62m42.96 83.35v-23.73m0 23.73.05-.02m-.05-23.71.05-.03m-4.59 2.44-42.96-59.62m42.96 83.35v-23.73m0 23.73.04-.02m-.04-23.71.04-.03m-4.58 2.44-42.96-59.63m42.96 83.36V128.1m0 23.73.04-.02m-.04-23.71.04-.03m-4.58 2.44-42.97-59.63m42.97 83.36v-23.73m0 23.73.04-.03m-.04-23.7.04-.03m-4.59 2.43-42.96-59.62m42.96 83.36v-23.74m0 0 .05-.02m-.05 23.76.05-.03m-4.59-21.3L523.74 75.7m42.96 83.36v-23.74m0 0 .05-.02m-.05 23.76.05-.03m-4.59-21.3L519.2 78.11m42.96 75.83v-16.21m0 0 .05-.02m-4.59 2.43-42.96-59.62m42.96 67.11v-7.49m0 0 .04-.02m-1.19 59.58-73.7-102.27m73.7 102.27.04-.02m-.04 34.86.04-.03m-28.21-82.87.05-.02m32.8 45.6.04-.02m-.04 34.86.04-.03m-46.76-99.64.05-.02m18.5 16.79.05-.02m32.8 45.6.04-.02m-.04 34.86.04-.03m-46.76-99.64.05-.02m18.5 16.79.05-.03m32.79 45.61.05-.03m-.05 34.86.05-.02m-46.76-99.64.04-.03m18.51 16.8.04-.03m32.8 45.61.05-.03m-.05 34.86.05-.02m-46.76-99.64.04-.03m-34.9 49.14 4.32-2.29m.22-.12 4.32-2.29m.22-.12 4.14-2.19m46.87-24.86 3.72-1.98m.23-.12 4.31-2.29m.23-.11 4.32-2.29m.22-.12 4.32-2.29m.22-.12 4.32-2.29m.22-.12 4.32-2.29m.23-.12 4.31-2.29m.23-.12 4.31-2.29m.23-.12 4.32-2.29m.22-.12 4.27-2.26m.23-.12 4.31-2.29m.23-.12 4.32-2.29m.22-.12 4.32-2.29m-162.27 1.66.76-.41m-.74.45.78-.41m113.5-60.21 4.12-2.18m29.5 137.64.66.17m-65.27 55.18-.07-.01m-19.15-50.9v-8.22m24.09 25.49 4.45-2.36m.22-.12 4.46-2.36m.22-.12 4.46-2.36m.22-.12 4.45-2.37m.23-.11 4.45-2.37m.23-.12 4.45-2.36m.22-.12 4.46-2.36m.22-.12 4.45-2.36m.23-.12 4.45-2.36m.23-.12 4.31-2.29M564.61 54.02l.28-.24m-1.38-1.93-101.19 53.67m102.57-51.74-99.19 52.61m-55.42 116.02.06.02m78.34 20.04.06.02m-78.4-87.38 39.17-34.32m-39.17 101.64v-67.32m0 67.32.46-.24m-.46-67.08.46-.24m201.27 26.01v-.07m-13.58 7.27v-.07m-60.69 56.43v-.08m-28.05-109.58.05.07m13.87 19.25.05.06m-98.14 21.13 24.84 6.35m27.47 7.03v-.37m-52.31-13.38 24.84 6.35m17.01 4.35 10.46 2.68m-52.31-13.01v-.37m52.31 13.38.05-.02m-.05.39.05-.02m-52.36 31.78 24.84 6.36m27.47 7.03v-.37m-52.31-13.39 24.84 6.36m17.01 4.35 10.46 2.68m-52.31-13.02v-.37m52.31 13.39.05-.03m-.05.4.05-.02m-11.54-97.5 4.5-2.38m-4.54 2.32.04.06m-.21-26.64v.07m-12.22-6.34-4 2.12m0 0v.07m20.22 1.96v.07m-4 2.05 4-2.12m-20.22-2.03 16.22 4.15m-.08 25v-24.95m-.04 24.97V109.7m-7.72 14.28v-16.25m-7.72 5.54v-7.52m75.2 127.47-15.04-3.85m15.04 4.66v-.81m.04-.03-.04.03m-86.55-101.43-11.82 10.36m0 0 .23-.12m-.23.12 11.82 3.03m.66.91v31.08m0 0 .23-.12m-.23.12 10.48 2.68m-10.48-34.5 10.48 2.68m-10.48-2.68.23-.12m-.23.12v-14.13m0 0 .23-.12m10.24-9.05-10.47 9.17m-12.75 42.69 12.09 3.1m-12.09-34.19v31.09m-.66.5v-32.49m.66 31.99.22-.12m12.76-28.56V131.1m10.25-8.56-9.99 8.75m0 13.71 9.99 2.55m-9.99-16.26V145m0 0 .22-.12m-.22-13.59.22-.12m9.77-8.55-9.77 8.55m0 0v13.71m9.77 2.5-9.77-2.5m-.22 31.94 9.99 2.56m-9.99-33.05v30.49m0 0 .22-.12m0-30.31v30.31m9.77 2.5-9.77-2.5m-13.24-2.91v-30.91m.27 30.68 11.57 2.96m-11.57-33.45v30.49m0 0 .22-.12m0-30.32v30.32m11.35 2.9-11.35-2.9m.42-31.54 10.93 2.8m0-12.38-10.93 9.58m10.93-9.5-10.71 9.38m0 0 10.71 2.74m-10.93-2.62.22-.12m11.4 49.46v31.08m0 0 .23-.12m-.23.12 10.48 2.68m-10.48-34.5 10.48 2.68m-10.48-2.68.23-.12m-.23.12v-5.19m-12.75 33.75 12.09 3.09m-12.09-34.18v31.09m-.66.5v-37.7m.66 37.2.22-.12m-.22-31.71 12.09 3.1m-12.09-3.1v-5.18m0 5.18.22-.12m13.02 34.86 9.99 2.56m-9.99-33.05v30.49m0 0 .22-.12m0-30.31v30.31m9.77 2.5-9.77-2.5m-12.97-3.14 11.57 2.96m-11.57-33.45v30.49m0 0 .22-.12m0-30.32v30.32m11.35 2.9-11.35-2.9m12.27-28.21v-5.01m.26 4.78 9.99 2.55m-9.99-7.14v4.59m0 0 .22-.12m0-4.41v4.41m9.77 2.49-9.77-2.49m-12.97-3.15 11.57 2.96m-11.57-7.55v4.59m0 0 .22-.12m0-4.41v4.41m11.35 2.91-11.35-2.91m41.14 43.01 8.9 2.27m-8.9-33.36v31.09m-.66.5v-37.7m.66 37.2.22-.12m-.22-31.71 8.9 2.28m-8.9-2.28v-5.18m0 5.18.22-.12m0 31.83v-30.91m.26 30.68 8.42 2.15m-8.42-32.65v30.5m0 0 .23-.12m0-30.32v30.32m8.19 2.09-8.19-2.09m-.23-31.71 8.42 2.15m-8.42-6.74v4.59m0 0 .23-.12m0-4.41v4.41m8.19 2.1-8.19-2.1m-1.37-12.35v-38.13m.66 37.63.22-.12m-.22.12 8.9 2.28m-8.9-39.01v4.9m0 .74v31.09m0-31.83 4.32 1.11m-4.32-1.11.22-.12m0 31.83v-30.91m.26 30.68 8.42 2.15m-8.42-32.65v30.5m0 0 .23-.12m0-30.32v30.32m8.19 2.09-8.19-2.09m-.23-31.71v-3.87m3.42 4.75-3.42-.88m.23-.12v-3.43m3.04 4.21-3.04-.78m0 0-.23.12m99.5 11.02v-5.56m.46-.24v6.43m-.97-1.34v-4.58m-.32 4.13v-3.96m-55.79 38.94v31.08m-.66.5v-36.98m.66 36.48.22-.12m-.22-31.7 12.59 3.22m-12.59-3.22.22-.12m-.22-4.37v4.49m0 31.82 13.47 3.45m-13.25-3.57v-30.9m.26 30.67 12.99 3.33m-12.99-33.82v30.49m0 0 .23-.12m0-30.31v30.31m12.76 3.27-12.76-3.27m-.49-31.47v-4.31m.26 4.08 11.69 2.99m-11.69-7v4.01m0 0 .23-.12m0-3.84v3.84m11.3 2.89-11.3-2.89m9.28-66.06.7-.61m0 0 8.17-4.34m0 0 12.02 16.69m-.69.6.69-.6m0 0-8.17 4.33m-.69.61.69-.61m0 0-12.02-16.68m.91.4 7.27-3.85m0 0 11.1 15.4m-11.1-15.4-.46.4m.01.88-.14.12m.14-.12 10.17 14.12m-16.44-10.79 6.27-3.33m-6.25 3.36 6.11-3.24m0 0 10.14 14.09m-16.06-10.59 5.92-3.14m0 0 9.8 13.6m-9.8-13.6-.18.16m-5.71 3.02 5.71-3.02m0 0 9.76 13.56m-26.95-6.61.69-.6m0 0 8.18-4.34m0 0 12.02 16.68m-.69.61.69-.61m0 0-8.17 4.34m-.7.61.7-.61m0 0L514 134.22m.92.4 7.27-3.86m0 0 11.09 15.4m-11.09-15.4-.47.41m.01.88-.14.12m.14-.12 10.18 14.12m-16.44-10.8 6.26-3.32m-6.24 3.36 6.1-3.24m0 0 10.15 14.08m-16.06-10.58 5.92-3.14m0 0 9.8 13.6m-9.8-13.6-.19.16m-5.7 3.02 5.7-3.02m0 0 9.77 13.55m-42.5 94.45-21.21-5.43m-17.05-4.36-37.87-9.69m13.07-39.58v38.41m0-45.15V142.4m85.21 86.94v-37.69m59.95-25.75v-8.93m22.88 17.25-14.25-3.65m18.12 13.6-13.08 6.94m13.08-3.24-13.08 6.94m-77.24 37.99 25.64 6.56m-25.64-2.86 25.64 6.56m-63.11-135.49-3.63 1.93m-12.06-5.95 15.69 4.02m-19.32-2.09 3.63-1.93m12.06 5.95-15.69-4.02m15.69 130.51-15.69-4.02m15.69 4.02v-92.16m1.36 91.43-1.36.73m-364.29 62.62V252.8m194.63 95.08v-45.82m16.28-117.4v-43.73m194.17 95.53v-45.82M188.57 245.3v-8.93m0 0v-29.38m-95.53 26.86-27.22-37.78m27.27 107.38v-.21m-.05-69.47-28.33-39.33m23.83 111.42v-.21m9.09-4.61v-.21m-.05-69.47-32.87-45.63m37.23 43.32-37.23-51.68m37.37 121.31v-45.82m86.83-46.13v-.2m-42.92-83.11-.04-.04m47.42 126.88v-45.81m-42.89-83.41-.03-.05m47.46 126.79v-69.55m-42.89-59.6-.03-.05m47.46 126.79v-69.55m0-.08-42.92-59.57m47.46 126.79v-69.55m-69.64 130.65V269.3M63.74 167.05l-.04-.05m78.33 134.58v-34.76M68.41 164.57l-.03-.05m78.33 134.58v-34.76M73.09 162.09l-.03-.05m101.72 122.17v-34.76M101.16 147.2l-.03-.05m78.19 134.65v-34.76m.04-.02-5.03-6.99m5.03 41.82v-24.88m5.01-47.83v-.2m-42.93-83.11-.03-.04m38.42 85.76v-.21m-42.93-83.1-.03-.05m38.42 85.77v-.21m-42.93-83.1-.03-.05m38.42 85.77v-.21m-42.93-83.1-.03-.05m-4.51 2.46-.04-.05m42.97 83.36v-.21m-47.47-80.69-.04-.05m42.96 83.36v-.21m-47.47-80.69-.03-.05m42.96 75.91v-16.02m0 0v-.27m-47.47-57.17-.03-.04m42.96 67.2v-7.31m0 0v-.27m-1.19 94.35v-34.76M77.77 159.61l-.03-.05m78.32 99.81-32.79-45.51m32.79 80.28v-34.77m-46.76-64.89L82.37 157.1m.08.02-.04-.04m78.33 99.81-32.8-45.51m32.8 80.27v-34.76M113.98 192l-26.93-37.38m.08.02-.04-.04m78.33 99.81-32.8-45.51m32.8 80.27v-34.76m-46.76-64.89-26.94-37.38m73.75 102.25-.02-.02M91.8 152.16l-.03-.04m78.33 99.81-32.8-45.51m32.8 80.27v-34.76m-46.76-64.89L96.4 149.66m.08.02-.03-.05m-7.91 86.87 4.24-2.25m0 0 .06-.03m.25-.13 4.23-2.24m0 0 .07-.04m.24-.13 4.05-2.15m0 0 .07-.03m47.02-24.94 3.5-1.86m0 0 .07-.04m.24-.12 4.24-2.25m0 0 .06-.04m.24-.12 4.24-2.25m0 0 .06-.03m.24-.13 4.24-2.25m0 0 .06-.03m.25-.13 4.23-2.25m0 0 .07-.03m.24-.13 4.23-2.25m0 0 .07-.03m.24-.13 4.23-2.25m0 0 .07-.03m.24-.13 4.24-2.24m0 0 .06-.04m.24-.13 4.24-2.24m0 0 .06-.04m.24-.13 4.19-2.22m0 0 .07-.03m.24-.13 4.24-2.25m0 0 .06-.03m.24-.13 4.24-2.25m0 0 .06-.03m.24-.13 4.24-2.24m0 0 .06-.04m-47.99-59.25 3.84-2.03m0 0 .25-.14M44.7 175.4l.6-.32m0 0 .02-.01m113.66-60.29 3.95-2.09m0 0 .02-.01M161 221.54l.62-.33m-59.8 15.6-.14-.19m26.09 68.74v-.14m-25.95-52.42.26.06m-.26-.14.26.07m6.28-6.91v8.48m0 0v.04m24.36 17.62 4.37-2.32m0 0 .07-.03m.24-.13 4.37-2.32m0 0 .06-.03m.25-.13 4.37-2.32m0 0 .06-.03m.24-.13 4.37-2.32m0 0 .07-.04m.24-.12 4.37-2.32m0 0 .07-.04m.24-.12 4.37-2.32m0 0 .07-.04m.24-.13 4.37-2.31m0 0 .06-.04m.25-.13 4.37-2.32m0 0 .06-.03m.24-.13 4.37-2.32m0 0 .07-.03m.24-.13 4.24-2.25m0 0 .06-.03M158.8 114.53l-.38-.52m-74.83 123.3v65.53m0 0v1.79M5.71 284.34v-.05m0 0v-67.27m0 0 .24-.21m0 0 38.55-33.77m153.41 64.81-4.5 2.39m4.5-2.46-4.5 2.38m-14.09 31.72v-.04m0 0v-.04m-41.97 22.33-4.63 2.46m4.63-2.53-4.63 2.46m-28-109.52 4.63-2.46m-4.68 2.4 4.42-2.34m9.54 21.72 4.64-2.46m-4.68 2.39 4.63-2.45m-60.87 34.35.04.01m0 0 10.42 2.66m-52.27-13.78-.04.03m41.85 56.23.04.01m0 0 10.42 2.66m-51.36-14.26-.91.48m0 0-.04.03m40.77-83.83 4.28-2.27m0 0 .22-.11m-20.88-28.27.4.1m19.81 1.85-4.28-1.09m.29 3.29 3.55-1.89m-3.94 1.79v24.6m0 0v.08m-7.71-26.66v15.87m0 0v.09m-7.72-17.93v6.9m0 0v.02m19.42 19.68v-8.2m-.05 8.23V170M34.2 207.33v-.18m11.13 3.77-10.25-2.62m0 0-.23-.06m-12.75-3.26.23.06m0 0 11.87 3.03m0 31.09v-.18m0 0v-30.91m11.13 2.97-9.76-2.5m0 0-.23-.06m-1.17-.3-11.35-2.9m0 0-.23-.06m11.58 33.46v-.18m0 0v-30.32m0-1.33v-.18m11.16 49.4-10.25-2.62m0 0-.23-.06m10.48-3.24-10.25-2.62m0 0-.23-.06m-12.75 2.66.23.06m0 0 11.87 3.03m0 31.09v-.18m0 0v-30.91m0-.74v-.18m0 0v-5m0 0-11.87-3.04m0 0-.23-.05m23.23 11.98-9.76-2.5m0 0-.23-.06m-1.17-.3-11.35-2.9m0 0-.23-.06m11.58 33.46v-.18m0 0v-30.32m11.16-3.06-9.76-2.5m0 0-.23-.06m-1.17-.3-11.35-2.9m0 0-.23-.06M34.17 252v-.18m0 0v-4.41m29.78 13.43.23.05m0 0 8.67 2.22m0-5.92-8.67-2.22m0 0-.23-.06m8.9 8.32-8.18-2.09m0 0-.23-.06m8.41-3.77-8.18-2.1m0 0-.23-.05m-.49-39.47.23.05m0 0 4.76 1.22m.1.15-4.37-1.12m0 0-.23-.06m42.87 43.5.23.06m0 0 13.02 3.33m.11.15-12.64-3.24m0 0-.23-.06m29.48-56.17-.54.29m0 0-6.72 3.56m0 0-.38-.52m6.27-3.33-.17.09m0 0-6.1 3.24m5.76-3.37-.22.12m0 0-5.7 3.03m-1.28 1.71-.54.29m0 0-6.73 3.56m-11.01-15.28-.08-.12m16.98 11.55-.16.09m0 0-6.1 3.24m5.76-3.37-.22.12m0 0-5.7 3.02m-47.55 45.75-9.55-2.45m0 0-.91-.23m-17.06-4.37-23.88-6.11m0 0-.91-.23m153.79-3.75v-7.3m0 0v-18.19m-129 79.58v-1.07m337.87 1.51v-8.92m0 0v-29.39m-95.53 26.87-27.22-37.78m27.27 107.37v-.2m-.05-69.48-28.33-39.32m23.83 111.41v-.2m9.09-4.61v-.21m-.05-69.48L259.34 235m37.37 112.94v-45.81M383.54 256v-.21m4.46-2.15V229.9m4.54 67.14V227.5m4.54 67.13v-69.54m0-.09-42.92-59.56m3.39-3.93-.18.17m0 0-.1.08m44.35 130.47v-69.55m.05-.03-30.61-42.47m-39.08 173.15v-34.77m4.68 32.28v-34.76m4.68 32.28V313.6m28.07-14.88-32.8-45.52m32.8 80.28v-34.76m4.54 32.42v-.03m.04-34.83-5.03-6.98m5.03 41.82v-24.89m5.01-47.82v-.21m-4.54 2.62v-.21m-4.54 2.61v-.2m-4.54 2.61v-.2m-4.54 2.61v-.2m-4.55 2.61v-.2m-4.54-4.83v-16.03m0 0v-.26m-4.54 9.99v-7.32m0 0v-.26m-1.19 94.34v-34.76m4.67-2.48-32.79-45.52m32.79 80.28v-34.76m-46.76-64.89L277 206.37m78.37 99.79-32.8-45.52m32.8 80.28v-34.76m-46.76-64.9-26.93-37.37m78.37 99.79-32.8-45.52m32.8 80.28v-34.76m-46.76-64.9-26.94-37.38m73.75 102.25-.02-.02m4.65-2.43-32.8-45.52m32.8 80.28V301.2m-46.76-64.9-26.94-37.38m-7.86 86.85 4.24-2.25m0 0 .06-.03m.25-.13 4.23-2.25m0 0 .07-.03m.24-.13 4.05-2.15m0 0 .07-.04m47.02-24.94 3.5-1.86m0 0 .07-.03m.24-.13 4.24-2.25m0 0 .06-.03m.24-.13 4.24-2.24m0 0 .06-.04m.24-.13 4.24-2.24m0 0 .06-.04m.25-.13 4.23-2.24m0 0 .07-.04m.24-.13 4.23-2.24m0 0 .07-.04m.24-.12 4.23-2.25m0 0 .07-.03m.24-.13 4.24-2.25m0 0 .06-.03m.24-.13 4.24-2.25m0 0 .06-.03m.24-.13 4.19-2.22m0 0 .07-.04m.24-.13 4.24-2.24m0 0 .06-.04m.24-.12 4.24-2.25m0 0 .06-.04m.24-.12 4.24-2.25m0 0 .06-.03m-47.99-59.25 3.84-2.04m0 0 .25-.13m-118.19 63.03.6-.32m0 0 .02-.01m113.66-60.28 3.95-2.1m0 0 .02-.01m-1.95 108.86.62-.32m-33.85 84.15v-.15m-25.95-52.42.26.07m-.26-.14.26.07m6.28-6.91v8.48m0 0v.03m24.36 17.63 4.37-2.32m0 0 .07-.04m.24-.12 4.37-2.32m0 0 .06-.04m.25-.13 4.37-2.31m0 0 .06-.04m.24-.13 4.37-2.32m0 0 .07-.03m.24-.13 4.37-2.32m0 0 .07-.03m.24-.13 4.37-2.32m0 0 .07-.03m.24-.13 4.37-2.32m0 0 .06-.03m.25-.13 4.37-2.32m0 0 .06-.03m.24-.13 4.37-2.32m0 0 .07-.04m.24-.12 4.24-2.25m0 0 .06-.04M353.43 163.8l-.38-.53m-56.55 30-44.64 23.67m26.36 69.63v65.54m0 0v1.78m-77.88-20.28v-.05m0 0v-67.27m0 0 .24-.21m0 0 38.55-33.77m153.41 64.81-4.5 2.38m4.5-2.46-4.5 2.39m-14.09 31.68v-.04m-41.97 22.33-4.63 2.46m4.63-2.53-4.63 2.45m-28-109.51 4.63-2.46m-4.68 2.39 4.41-2.34m9.55 21.72 4.64-2.46m-4.68 2.4 4.63-2.46m-60.87 34.35.04.01m0 0 10.42 2.67m-52.27-13.78-.04.02m41.85 56.23.04.01m0 0 10.42 2.67m-52.27-13.78-.04.02m40.77-83.82 4.28-2.27m0 0 .22-.12m-.67-26.31-4.28-1.1m3.89 1.38.39-.21m-4.38 2.02v24.6m0 0v.09m-7.71-26.66v15.86m0 0v.09m-7.72-17.93v6.9m0 0v.03m19.42 19.68v-8.21m-.05 8.23v-24.46m-30.46 37.33v-.18m11.13 3.77-10.25-2.63m0 0-.23-.05m-12.75-3.27.23.06m0 0 11.87 3.04m0 31.08v-.17m0 0v-30.91m11.13 2.96-9.76-2.49m0 0-.23-.06m-1.17-.3-11.35-2.91m0 0-.23-.05m11.58 33.45v-.18m0 0v-30.31m0-1.34v-.17m11.16 49.4-10.25-2.63m0 0-.23-.06m10.48-3.23-10.25-2.63m0 0-.23-.06m-12.75 2.66.23.06m0 0 11.87 3.04m0 31.08v-.18m0 0v-30.9m0-.74v-.18m0 0v-5m0 0-11.87-3.04m0 0-.23-.06m23.23 11.98-9.76-2.49m0 0-.23-.06m-1.17-.3-11.35-2.91m0 0-.23-.06m11.58 33.46v-.18m0 0V302.6m11.16-3.07-9.76-2.5m0 0-.23-.05m-1.17-.31-11.35-2.9m0 0-.23-.06m11.58 7.55v-.17m0 0v-4.42m29.78 13.43.23.06m0 0 8.67 2.22m0-5.92-8.67-2.22m0 0-.23-.06m8.9 8.31-8.18-2.09m0 0-.23-.06m8.41-3.77-8.18-2.09m0 0-.23-.06m-.49-39.47.23.06m0 0 4.75 1.22m.11.14-4.37-1.12m0 0-.23-.06m42.87 43.51.23.05m0 0 13.02 3.34m.11.14L302.66 309m0 0-.23-.06m29.48-56.18-.54.29m0 0-6.72 3.57m0 0-.38-.53m6.27-3.32-.17.09m0 0-6.1 3.23m5.76-3.36-.22.12m0 0-5.7 3.02m-1.28 1.71-.54.29m0 0-6.73 3.57m0 0-.37-.53m6.26-3.32-.16.08m0 0-6.1 3.24m5.76-3.36-.22.11m0 0-5.7 3.03m-47.55 45.74-9.55-2.44m0 0-.91-.24m-17.06-4.36-23.88-6.11m0 0-.91-.23m153.79-3.75v-7.31m0 0v-18.18m30.53-130.38v-8.93m0 0V95.12m-95.53 26.86L276.74 84.2M304 189.29v-67.07m0 0v-.26m-.04-.06-28.33-39.33m23.83 109.13v-67.07m0 0v-.26m9.09 62.51v-67.07m0 0v-.26m-.05-.06-32.87-45.63m68.01 94.4v-8.11m0 0v-.26m-30.78-42.72L275.63 65.5M313 184.52v-43.53m86.83-46.13v-.2M356.9 11.55l-.03-.04m47.41 126.88V92.57M361.4 9.17l-.03-.05m47.46 126.79V66.36m-42.89-59.6-.03-.05m47.46 126.79V63.95m0-.08L370.45 4.3m47.46 126.79V61.54m-69.59 104.24v-8.11m0 0v-.27M274.65 55.18l-.03-.05m78.37 108.17v-8.11m0 0v-.27M279.33 52.7l-.03-.05m4.71-2.44-.03-.04m73.69 111.43v-8.89m0 0v-.27m28.02 19.9v-34.76M312.08 35.33l-.04-.05m78.2 134.73v-.04M316.62 32.92l-.03-.05m73.69 108.53v-6.25m5.01-37.88v-.21m-42.93-83.1-.03-.05m38.42 85.77v-.21m-42.93-83.1-.03-.05m38.42 85.77v-.21m-42.93-83.1-.03-.05m38.42 85.77v-.21m-42.93-83.1-.04-.05m-4.5 2.46-.04-.05m42.96 83.36v-.21m-47.47-80.69-.03-.05m42.96 83.35v-.2m-47.47-80.7-.03-.04m42.96 75.91V88.26m0 0v-.27m-47.47-57.17-.03-.04m42.96 67.2v-7.32m0 0v-.26m-74.81-42.67-.04-.04m73.7 120.4v-17.86m0 0v-.27m4.63-2.46-32.79-45.51m-13.97-19.38-26.93-37.38m73.74 129.35v-26.84m0 0v-.26M293.37 45.25l-.04-.04m78.33 99.81-32.8-45.51m32.8 80.27v-34.76M324.9 80.13l-26.93-37.38m.07.02-.03-.04m78.33 99.81-32.8-45.51m32.8 80.27v-34.76m-46.76-64.89-26.94-37.38m.08.02-.03-.05m78.33 99.82-32.8-45.52m32.8 80.28v-34.76m-46.76-64.89-26.94-37.38m.08.02-.03-.05m-7.91 86.87 4.24-2.25m0 0 .06-.03m.24-.13 4.24-2.25m0 0 .06-.03m.25-.13 4.05-2.15m0 0 .06-.03m47.03-24.94 3.5-1.86m0 0 .07-.04m.24-.13 4.23-2.24m0 0 .07-.04m.24-.12 4.24-2.25m0 0 .06-.04m.24-.12 4.24-2.25m0 0 .06-.03m.24-.13 4.24-2.25m0 0 .06-.03m.25-.13 4.23-2.25m0 0 .07-.03m.24-.13 4.23-2.25m0 0 .07-.03m.24-.13 4.23-2.25m0 0 .07-.03m.24-.13 4.24-2.24m0 0 .06-.04m.24-.13 4.19-2.22m0 0 .07-.03m.24-.13 4.23-2.25m0 0 .07-.03m.24-.13 4.24-2.25m0 0 .06-.03m.24-.13 4.24-2.25m0 0 .06-.03M369.72 2.66l3.84-2.04m0 0 .24-.13M255.62 63.52l.6-.31m0 0 .02-.01M369.9 2.91l3.95-2.09m0 0 .02-.01m-1.95 108.86.62-.33m30.83-16.28v41.36m-90.64-9.48-.13-.19m.13 16.18.27.06m-.27-.14.27.07m6.27-6.91v8.48m0 0v.04m24.37 17.62 4.37-2.32m0 0 .06-.03m.25-.13 4.37-2.32m0 0 .06-.03m.24-.13 4.38-2.32m0 0 .06-.04m.24-.12 4.37-2.32m0 0 .07-.04m.24-.12 4.37-2.32m0 0 .07-.04m.24-.13 4.37-2.31m0 0 .06-.04m.25-.13 4.37-2.32m0 0 .06-.03m.24-.13 4.37-2.32m0 0 .07-.03m.24-.13 4.37-2.32m0 0 .07-.03m.24-.13 4.23-2.25m0 0 .07-.03M369.72 2.66l-.38-.52m-74.83 123.29v65.54m0 0v1.79m-77.88-20.29v-.05m0 0v-67.27m0 0 .24-.21m0 0 38.54-33.77m153.42 64.81-4.5 2.39m4.5-2.46-4.5 2.38m-14.09 31.68v-.04m-18.58 9.93-.6.32m.6-.4-.64.34m-55.38-94.99 4.63-2.46m-4.68 2.4 4.41-2.34m9.55 21.72 4.64-2.46m-4.68 2.39 4.63-2.46m-60.88 34.36.05.01m0 0 10.42 2.66m-52.27-13.78-.05.03m41.85 56.22.05.02m0 0 10.42 2.66m-52.27-13.78-.05.03m40.78-83.83 4.28-2.27m0 0 .22-.11m-20.88-28.27.4.1m19.81 1.85-4.28-1.1m.29 3.29 3.55-1.88m-3.94 1.79v24.6m0 0v.08m-7.72-26.66v15.87m0 0v.09m-7.71-17.93v6.9m0 0v.02m19.42 19.68v-8.2m-.05 8.23V58.13m-30.46 37.33v-.18m11.13 3.77L246 96.43m0 0-.23-.06m-12.75-3.26.23.06m0 0 11.87 3.03m0 31.09v-.18m0 0V96.2m11.13 2.97-9.76-2.5m0 0-.23-.06m-1.18-.3-11.34-2.9m0 0-.23-.06m11.57 33.45v-.17m0 0V96.31m0-1.33v-.18m11.17 49.4L246 141.58m0 0-.23-.06m10.48-3.24L246 135.66m0 0-.23-.06m-12.75 2.66.23.05m0 0 11.87 3.04m0 31.09v-.18m0 0v-30.91m0-.74v-.18m0 0v-5m0 0-11.87-3.04m0 0-.23-.06m23.23 11.99-9.76-2.5m0 0-.23-.06m-1.18-.3-11.34-2.9m0 0-.23-.06m11.57 33.45v-.17m0 0v-30.32m11.17-3.06-9.76-2.5m0 0-.23-.06m-1.18-.3-11.34-2.9m0 0-.23-.06m11.57 7.55v-.18m0 0v-4.41m29.79 13.42.23.06m0 0 8.67 2.22m0-5.92-8.67-2.22m0 0-.23-.06m8.9 8.32-8.18-2.1m0 0-.23-.05m8.41-3.77-8.18-2.1m0 0-.23-.05m-.49-39.48.23.06m0 0 4.75 1.22m.11.14-4.37-1.11m0 0-.23-.06m42.87 43.5.23.06m0 0 13.02 3.33m.1.14-12.63-3.23m0 0-.23-.06m29.48-56.17-.54.29m0 0-6.72 3.56M329.92 80.2l-.08-.12m16.98 11.55-.16.09m0 0-6.1 3.24m5.76-3.37-.22.12m0 0-5.7 3.02m-1.28 1.72-.55.29m0 0-6.72 3.56m-11.01-15.28-.08-.12m16.98 11.55-.16.09m0 0-6.11 3.23m5.76-3.36-.21.12m0 0-5.71 3.02m-47.54 45.74-9.55-2.44m0 0-.91-.23m-17.06-4.37-23.88-6.11m0 0-.91-.23m153.79-3.75v-7.31m0 0v-18.18m-129 79.58v-1.07m337.41 1.96v-8.92m0 0v-29.39m-95.54 26.87-27.22-37.78m27.27 107.38v-.21m0-69.42-.02-.02m-4.52 72.05v-.2m9.08-4.61v-.21m-.04-69.48-32.88-45.62m37.37 112.95v-45.82M594 144.58v-.21m4.45 43.74v-45.82m4.54 43.33v-69.54m4.54 67.14v-69.55m0-.09-42.92-59.56m47.46 126.79v-69.55m-69.63 130.65v-34.76m4.67 32.28v-34.77m4.68 32.28v-34.76m28.07-14.88-32.8-45.52m32.8 80.28V187.3m4.54 32.35v-34.76m.05-.03-5.04-6.98m5.04 41.82v-24.89m5.01-47.82v-.21m-4.55 2.62v-.21m-4.54 2.62v-.21m-4.54 2.61v-.2m-4.54 2.61v-.2m-4.54-21.12-.02-.02m.02 23.75v-.2m-4.54-4.83v-16.03m0 0v-.26m-4.55 9.99v-7.32m0 0v-.26m-1.19 94.34V199.7m4.68-2.48-32.8-45.51m32.8 80.27v-34.76m-46.76-64.89-26.94-37.38m78.38 99.79-32.8-45.52m32.8 80.28v-34.76m-46.77-64.89-26.93-37.38m78.37 99.79-32.79-45.52m32.79 80.28v-34.76m-46.76-64.9-26.93-37.37m73.74 102.24-.02-.02m4.65-2.43-32.8-45.52m32.8 80.28v-34.76m-46.76-64.9L501.49 87.5m-7.86 86.85 4.23-2.25m0 0 .07-.03m.24-.13 4.23-2.25m0 0 .07-.03m.24-.13 4.05-2.15m0 0 .07-.04m47.02-24.94 3.51-1.86m0 0 .06-.03m.24-.13 4.24-2.24m0 0 .06-.04m.25-.13 4.23-2.24m0 0 .07-.04m.24-.13 4.23-2.24m0 0 .07-.04m.24-.13 4.23-2.24m0 0 .07-.04m.24-.12 4.24-2.25m0 0 .06-.03m.24-.13 4.24-2.25m0 0 .06-.03m.24-.13 4.24-2.25m0 0 .06-.03m.25-.13 4.23-2.25m0 0 .07-.03m.24-.13 4.19-2.22m0 0 .06-.04m.24-.12 4.24-2.25m0 0 .06-.04m.25-.12 4.23-2.25m0 0 .07-.03m.24-.13 4.23-2.25m0 0 .07-.03m-48-59.25 3.84-2.04m0 0 .25-.13m-118.18 63.03.6-.32m0 0 .02-.01m113.65-60.28 3.95-2.1m0 0 .02-.01m-1.94 108.86.61-.32m-33.85 51.61-6.98-9.69m6.98 42.23v-.15m-19.74-50.83 7.92 2.03m-7.33-1.95 7.26 1.86m-7.52-10.44v8.48m0 0v.03m24.36 17.63 4.37-2.32m0 0 .07-.04m.24-.12 4.37-2.32m0 0 .07-.04m.24-.13 4.37-2.31m0 0 .07-.04m.24-.13 4.37-2.31m0 0 .06-.04m.24-.13 4.38-2.32m0 0 .06-.03m.24-.13 4.37-2.32m0 0 .07-.03m.24-.13 4.37-2.32m0 0 .07-.03m.24-.13 4.37-2.32m0 0 .06-.03m.25-.13 4.37-2.32m0 0 .06-.04m.24-.12 4.24-2.25m0 0 .06-.03M563.88 52.38l-.37-.53m-74.83 123.3v65.54m0 0v1.78m-10.74-82.23 10.74 14.91m-77.88 47.04v-.05m0 0v-67.27m0 0 .23-.21m0 0 38.55-33.77m153.41 64.81-4.5 2.38m4.5-2.46-4.5 2.39m-14.09 31.71v-.03m0 0v-.04m-41.96 22.33-4.64 2.46m4.64-2.53-4.64 2.45m-28-109.51 4.63-2.46m-4.68 2.39 4.42-2.34m9.55 21.72 4.63-2.45m-4.68 2.39 4.63-2.46m-60.87 34.35.04.01m0 0 10.42 2.67m-52.27-13.78-.04.03m41.85 56.22.04.01m0 0 10.42 2.67m-51.36-14.26-.91.48m0 0-.04.02m40.78-83.82 4.28-2.27m0 0 .21-.12m-20.88-28.27.4.1m19.82 1.86-4.29-1.1m.29 3.29 3.55-1.88m-3.94 1.78v24.6m0 0v.09m-7.71-26.66v15.87m0 0v.08m-7.72-17.93v6.9m0 0v.03m19.42 19.68v-8.21m-.05 8.23v-24.46m-30.46 37.33V145m11.14 3.77-10.25-2.62m0 0-.23-.06m-12.75-3.27.22.06m0 0 11.87 3.04m0 31.09v-.18m0 0v-30.91m11.14 2.97-9.77-2.5m0 0-.22-.06m-1.18-.3-11.35-2.91m0 0-.22-.05m11.57 33.45v-.18m0 0v-30.31m0-1.33v-.18m11.17 49.4-10.25-2.63m0 0-.23-.05m10.48-3.24-10.25-2.63m0 0-.23-.06m-12.75 2.66.22.06m0 0 11.87 3.04m0 31.08v-.17m0 0v-30.91m0-.74v-.18m0 0v-5m0 0-11.87-3.04m0 0-.22-.06m23.23 11.98-9.77-2.49m0 0-.22-.06m-1.18-.3-11.35-2.91m0 0-.22-.05m11.57 33.45v-.18m0 0v-30.31m11.17-3.07-9.77-2.49m0 0-.22-.06m-1.18-.3-11.35-2.91m0 0-.22-.06m11.57 7.55v-.17m0 0v-4.41m29.79 13.42.22.06m0 0 8.68 2.22m0-5.92-8.68-2.22m0 0-.22-.06m8.9 8.32-8.19-2.1m0 0-.23-.06m8.42-3.77-8.19-2.09m0 0-.23-.06m-.48-39.47.22.06m0 0 4.76 1.22m.1.14-4.37-1.12m0 0-.23-.06m42.88 43.51.22.06m0 0 13.03 3.33m.1.14-12.64-3.23m0 0-.23-.06m29.49-56.17-.55.28m0 0-6.72 3.57m0 0-.38-.53m6.27-3.32-.17.09m0 0-6.1 3.23m5.76-3.36-.22.12m0 0-5.7 3.02m-1.28 1.71-.54.29m0 0-6.72 3.57m0 0-.38-.53m6.27-3.32-.17.08m0 0-6.1 3.24m5.76-3.36-.22.11m0 0-5.7 3.03m-47.54 45.74-9.56-2.44m0 0-.91-.24m-17.05-4.36-23.89-6.11m0 0-.91-.23m153.79-3.75v-7.31m0 0v-18.18m-128.99 79.58v-1.07m-348.6 21.82v-15.91m194.63 65.18v-15.92m16.28-145.22v-15.91m194.17 65.63v-15.92M65.77 196.01l-1.11-1.54m28.43 108.77v-69.15m0 0v-.26m0 0-.02-.03m0 0-.03-.03m-4.5 71.88V236.5m0 0v-.26m0 0-.01-.03m0 0-.03-.03m0 0L61.35 198.5m36.28 102.33v-69.15m0 0v-.26m0 0-.02-.02m0 0-.03-.04m35.14 75.16v-.21m0 0v-34.29m0 0v-.26m-.04-.06-30.74-42.65m.18 65.91v-.72m0 0v-41.36m-.04-.09v-15.62m86.83-30.64v-23.27m0 0V183m-.04-.06-42.88-59.52m47.38 80.95v-23.73m.04 69.52v-.2m0 0v-69.08m0 0v-.26m-.04-.07-42.89-59.51m47.47 126.71v-.2m-.04-69.4-42.89-59.52m47.47 126.72v-.21m0-69.34-.01-.03m0 0-.03-.03m-65.05 128.3v-.21m4.68-2.27v-.21m4.67-2.28v-.2m28.03-49.42-32.8-45.52m-13.97-19.37-26.93-37.38m73.74 137.01v-.21M105.7 144.79l-.03-.05m73.69 112.23v-3.7m0 0v-6.25m5.01-38.08v-23.27m0 0v-.26m-.04-.06-42.89-59.52m38.39 85.51v-23.26m0 0v-.26m-.04-.06-42.89-59.52m38.39 85.51v-23.26m0 0v-.26m-.04-.06-42.89-59.52m38.39 85.51V192.9m0 0v-.26m-.05-.06-42.88-59.52m38.34 61.92-42.88-59.51m42.93 83.1v-23.26m0 0v-.27m-4.59 2.35-42.88-59.51m42.92 83.1v-23.26m0 0v-.27m-4.58 2.35-42.89-59.51m38.35 61.92-42.89-59.52m41.78 153.9v-.2m4.68-37.04-.02-.02m0 0-.02-.04m.04 34.82v-.2m-46.76-99.45-26.9-37.34m78.34 99.75-.02-.02m0 0-.03-.04m.05 34.82v-.2m-46.76-99.45-26.9-37.34m78.32 99.73-.03-.04m.05 34.82v-.21m-46.77-99.45-26.9-37.33m78.34 99.75-.01-.03m0 0-.03-.03m0 0-30.73-42.65m30.77 77.47v-.21m-46.76-99.45-26.9-37.33m66.95 70.64.18-.09m0 0 .33-.18m28.51-15.12v41.36m0 0v.04m-90.37-9.16-.26-.36m25.95 61.14v-25.12m-19.74-18.44 7.91 2.02m-7.32-1.95 7.26 1.86m42.95-141.75-.03-.04M68.28 216.05l.66.91m0 0 .1.15m128.91 30.64-.04.03m-60.51 56.26-.05.02M109.09 194.6l.21-.12m13.97 19.38.04-.02m-78.02-46 .26.07m11.68-.23-8.34-2.14M64.66 170l.05-.02m0 0 .39-.21m-.39 16.47v-.42M34.2 207.15v-13.12m0 0v-.08m-.03 12.72v-12.12m0 0v-.08m95.47 12.36-.16-.22m-19.1-9.08-.46-.64m-37.07 98.69v-.72m47.94.49v-.72m139.61-49.36-1.11-1.54m28.43 108.78v-69.15m0 0v-.27m0 0-.02-.02m0 0-.03-.04m-4.5 71.89v-69.15m0 0v-.27m0 0-.01-.02m0 0-.03-.04m0 0-27.15-37.67m36.28 102.33v-69.15m0 0v-.27m0 0-.02-.02m0 0-.03-.04m35.14 75.16v-.2m0 0v-34.29m0 0v-.27m0 0-.02-.02m0 0-.02-.04m0 0-30.74-42.65m0 0-37.23-51.68m37.41 117.59v-.72m0 0v-41.36m-.04-.08v-15.63m86.83-30.64v-23.26m0 0v-.27m0 0-.01-.02m0 0-.03-.04m0 0-42.88-59.51m0 0-.04-.05M388 299.53v-45.82m.04 45.72v-.21m0 0v-69.08m0 0v-.26m0 0-.02-.02m0 0-.02-.04m0 0-42.89-59.52m0 0-.03-.04m47.5 126.76v-.21m0-69.34-.01-.02m0 0-.03-.04m0 0-42.89-59.52m0 0-.03-.04m47.5 126.76v-.21m0-69.34-.01-.02m0 0-.03-.04m-26.02-44.82-.04-.06M332.03 353.3v-.2m0-34.56-.02-.02m0 0-.03-.04m0 0-30.73-42.65m35.46 74.99v-.21m0-34.55-.02-.02m0 0-.03-.04m0 0-30.73-42.65m35.45 40.23-.01-.02m0 0-.03-.04m0 0-30.73-42.65m30.77 77.47v-.21m28.07-14.68v-.2m0-34.56-.02-.02m0 0-.02-.04m0 0-30.73-42.65m35.27 75.09v-34.76m-4.99-7.01-8.63-11.98m13.66 28.91v-3.7m0 0v-6.25M379 258.2v-23.26m0 0v-.27m0 0-.01-.02m0 0-.03-.04m0 0-42.89-59.51m0 0-.03-.05m38.42 85.56v-23.26m0 0v-.27m0 0-.02-.02m0 0-.02-.04m0 0-42.89-59.51m0 0-.03-.05m38.42 85.56v-23.26m0 0v-.27m0 0-.02-.02m0 0-.02-.04m0 0-42.89-59.51m0 0-.03-.05m38.42 85.56v-23.27m0 0v-.26m0 0-.02-.02m0 0-.03-.04m0 0-42.88-59.52m0 0-.03-.04m38.42 62.03-.02-.02m0 0-.03-.04m0 0-42.88-59.52m0 0-.04-.04m42.97 83.15v-23.27m0 0v-.26m-4.55 2.41-.01-.02m0 0-.03-.04m0 0-42.88-59.52m0 0-.04-.04m42.96 83.15v-23.27m0 0v-.26m-4.54 2.41-.01-.03m0 0-.03-.03m0 0-42.89-59.52m0 0-.03-.05m38.42 62.04-.02-.03m0 0-.02-.03m0 0-42.89-59.52m0 0-.03-.05m41.81 119.19-.01-.03m0 0-.03-.03m.04 34.82v-.21m4.68-37.03-.02-.03m0 0-.02-.03m.04 34.82v-.21m-46.76-99.45-26.9-37.33m0 0-.04-.05m78.38 99.79-.02-.02m0 0-.03-.04m.05 34.83v-.21m-46.76-99.45-26.9-37.33m0 0-.04-.05m78.36 99.77-.03-.04m.05 34.82v-.2m-46.77-99.45-26.9-37.33m0 0-.03-.05m78.37 99.79-.01-.02m0 0-.03-.04m0 0L334 258.46m30.77 77.47v-.2m-46.76-99.45-26.9-37.33m0 0-.03-.05m66.98 70.69.18-.1m0 0 .33-.17m28.51-15.12v41.36m0 0v.03m-76.6 9.95-7.19-9.97m19.11 51.64v-25.12m-19.74-18.44 7.91 2.03m-7.32-1.95 7.26 1.86m42.95-141.76-.03-.03m-54.27 28.06-2.66 1.41m-33.59 72.05.65.91m0 0 .11.14m128.91 30.65-.04.02m-60.51 56.26-.05.03m-28.27-109.47.22-.11m13.97 19.37.04-.02m-70-43.94 7.41 1.89m.1-3.19-.2-.05m.49 3.34 3.55-1.88m0 0 .05-.03m0 16.26v-.42m-30.51 21.34v-13.13m0 0v-.08m-.03 12.73v-12.12m0 0v-.08m95.47 12.35-.16-.22m-8.92 5.04-.16-.22m-47.55 84.15v-.71m0 0v-.67m0-43.76v-.72m47.94 45.63v-.71m-75.46-7.66v-.29m36.73-251.81-1.11-1.54M304 121.96l-.01-.03m0 0-.03-.03m-4.5 2.47-.01-.03m0 0-.03-.03m0 0-27.15-37.68m36.28 32.92-.02-.03m0 0-.03-.03m35.1 40.34-30.74-42.66m.18 65.91v-.72m0 0v-41.35m-.04-.09V125.3m86.83-30.64V71.39m0 0v-.26m-.04-.06L356.9 11.55m47.38 80.95V68.77m.05 69.52v-.2m0 0V69.01m0 0v-.27m-.04-.06L361.4 9.17m47.47 126.71v-.2m-.04-69.41L365.94 6.76m47.47 126.71v-.2m0-69.34-.01-.03m0 0-.03-.03m-95.83 50.82-42.89-59.51m47.57 57.03L279.33 52.7m47.57 57.03-42.89-59.52m101.68 87.37L352.9 92.06m-13.97-19.38L312 35.31m73.74 137.01v-.21m-30.78-77.27-42.88-59.51m78.16 134.6v-34.76m.04 34.81V145.1m0 0v-3.7m5.01-44.34V73.8m0 0v-.26m-.04-.06-42.89-59.52m38.39 85.51V76.21m0 0v-.26m-.04-.06-42.89-59.52m38.39 85.51V78.62m0 0v-.26m-.05-.06-42.88-59.52m38.39 85.51V81.03m0 0v-.27m-.05-.06-42.88-59.51m38.34 61.92L334.2 23.6m42.92 83.1V83.44m0 0v-.27m-4.58 2.35-42.89-59.51m42.93 83.1V85.85m0 0v-.27M368 87.93l-42.89-59.52m38.35 61.93-42.89-59.52m15.68 73.95-1.99-2.76m0 0-.03-.05m-13.96-19.37-26.9-37.34m47.56 57.04-1.99-2.76m0 0-.03-.05m32.8 80.28v-.21M324.94 80.1l-26.9-37.33m47.57 57.04-1.99-2.76m0 0-.03-.05m32.79 80.28v-.21m-46.76-99.45-26.9-37.33m45.58 54.28-.04-.05m32.8 80.28v-.21M334.3 75.14l-26.9-37.33m66.95 70.64.18-.09m0 0 .33-.18m28.51 26.24v.03M313 125.3l-.27-.36m.27 16.05.04.02m6.5 1.58 7.26 1.86M369.75 2.7l-.03-.04M279.2 104.18l.65.91m0 0 .11.14m128.91 30.65-.04.03m-37.12 43.85-.05.02M320 82.73l.22-.12m13.97 19.38.04-.03m-78.02-45.99.26.06m11.68-.22-8.34-2.14m15.77 4.46.05-.02m0 0 .39-.21m-30.9 37.38V82.15m0 0v-.07m-.04 12.72V82.68m0 0v-.08m85.3-1.76-.46-.64m-8.62 5.46-.46-.64m-37.07 98.69v-.72m0-45.99v-.3m-27.52 44.48v-4.11m214.6-43.22-1.11-1.54m28.43 108.78v-69.15m0 0v-.27m-.02-.02-.02-.04m0 0-28.34-39.32m23.84 111.21v-69.15m0 0v-.27m0 0-.02-.02m0 0-.03-.04m0 0-27.14-37.67m36.27 102.33v-69.15m0 0v-.27m0 0-.02-.02m0 0-.02-.04m35.13 75.16v-.2m0-34.56-.01-.02m0 0-.03-.04m0 0-30.73-42.65m0 0-37.24-51.67m37.42 117.58v-.72m0 0v-41.36m-.05-.08v-15.62M594 144.37v-23.26m0 0v-.26m0 0-.02-.03m0 0-.03-.03m0 0-42.88-59.52m0 0-.03-.05m47.41 81v-23.73m.04 69.52v-.21m0-69.34-.01-.02m0 0-.03-.04m0 0-42.89-59.52m0 0-.03-.04m47.51 126.76v-.21m0-69.34-.02-.02m0 0-.03-.04m0 0-42.88-59.51m0 0-.04-.05m47.51 126.76v-.2m0-69.35-.02-.02m0 0-.03-.04m-65.05 128.3v-.2m0-34.56-.02-.02m0 0-.02-.04m0 0-30.73-42.65m35.45 74.99v-.2m0-34.56-.02-.02m0 0-.02-.04m0 0-30.74-42.65m35.46 40.23-.02-.02m0 0-.03-.04m0 0-30.73-42.65m30.78 77.47v-.21m28.06-14.68v-.2m0-34.56-.01-.02m0 0-.03-.04m0 0-30.73-42.65m30.28 33.32-8.63-11.98m13.67 28.91v-3.7m0 0v-6.25m5.01-38.08v-23.26m0 0v-.27m0 0-.02-.02m0 0-.03-.04m0 0-42.88-59.51m0 0-.04-.05m38.42 85.56v-23.26m0 0v-.27m0 0-.01-.02m0 0-.03-.04m0 0-42.88-59.51m0 0-.04-.05m38.42 85.56v-23.26m0 0v-.27m0 0-.01-.02m0 0-.03-.04m0 0L537.44 68.5m0 0-.03-.05m38.42 85.56v-23.26m0 0v-.27m0 0-.02-.02m0 0-.02-.04m0 0L532.9 70.91m0 0-.03-.05m38.42 62.03-.02-.02m0 0-.02-.04m0 0-42.89-59.52m0 0-.03-.04m42.96 83.15v-23.27m0 0v-.26m-4.56 2.39-.03-.04m.05 23.59v-23.27m0 0v-.26m-4.54 2.41-.02-.02m0 0-.03-.04m0 0-42.88-59.52m0 0-.04-.04m38.42 62.03-.01-.03m0 0-.03-.03m0 0-42.88-59.52m0 0-.04-.05m41.81 119.19-.01-.02m0 0-.03-.04m.04 34.82v-.21m4.68-37.03-.01-.03m0 0-.03-.03m.04 34.82v-.21m-46.76-99.45-26.9-37.33m0 0-.03-.05m78.37 99.8-.02-.03m0 0-.02-.03m.04 34.82v-.21m-46.76-99.45-26.9-37.33m0 0-.03-.05m78.35 99.77-.02-.04m.04 34.83v-.21m-46.76-99.45-26.9-37.33m0 0-.04-.05m78.38 99.79-.02-.02m0 0-.03-.04m0 0-30.73-42.65m30.78 77.47v-.2m-46.76-99.45-26.91-37.33m0 0-.03-.05m66.98 70.69.18-.1m0 0 .33-.17m28.51-15.12v41.36m0 0v.03m-64.68 58.89v-3.7m31.06-186.95-.03-.03m39.16 133.22-.05.02m-60.51 56.26-.04.03m-28.27-109.47.22-.11m13.96 19.38.05-.03m-78.03-46 .26.07m11.69-.23-8.35-2.13m15.77 4.46.05-.03m0 0 .4-.21m-.4 16.47v-.41M439.28 145v-13.13m0 0v-.08m-.03 12.73V132.4m0 0v-.08m95.47 12.35-.16-.22m-8.92 5.04-.16-.22m-47.54 84.15v-.71m0-44.43v-.72m47.93 45.63v-.71m-75.45-1.58v-4.11M113.89 192.2l4.63-2.46m190 51.73 4.63-2.46m11.66-158.68 4.63-2.46m189.53 52.18 4.63-2.46M61.35 198.5l-.03-.04m71.4 73.3-.02-.03m0 0-.02-.03m56.23-88.7-.01-.02m0 0-.03-.04m4.54-2.32-.02-.03m0 0-.02-.04m4.58 67v-69.08m0 0v-.26m0 0-.01-.03m0 0-.03-.03m4.58 66.99v-69.08m0 0v-.26M137.4 303.83v-34.29m0 0v-.26m0 0-.02-.03m0 0-.03-.03m0 0-30.73-42.66m0 0-42.88-59.51m78.34 134.3v-34.29m0 0v-.27m0 0-.02-.02m0 0-.03-.04m0 0-30.73-42.65m0 0-42.89-59.51m78.34 99.74-.01-.02m0 0-.03-.04m0 0-30.73-42.65m0 0-42.89-59.51m73.66 136.78v-34.29m0 0v-.27m-4.82-60.44-13.87-19.25m46.76 99.36v-34.29m0 0v-.26m0 0-.02-.03m0 0-.02-.03m0 0-30.73-42.65m0 0-42.89-59.52m73.17 92.83-8.63-11.97m18.67-42.65-.01-.02m0 0-.03-.04m-4.5 2.47-.02-.03m0 0-.02-.03m-4.5 2.47-.02-.03m0 0-.02-.03m-4.5 2.47-.02-.03m0 0-.03-.03m-4.49 2.46-.02-.02m0 0-.03-.04m-4.5 2.47-.01-.02m0 0-.03-.04m-4.5 2.47-.01-.02m0 0-.03-.04m-4.5 2.47-.02-.02m0 0-.02-.04m-1.11 59.62-.01-.02m0 0-.03-.04m.04 34.62V262.1m0 0v-.27m4.64-2.54-30.74-42.65m0 0-1.98-2.76m0 0-.04-.04m32.8 80.07v-34.29m0 0v-.27m4.63-2.54-30.73-42.65m0 0-1.99-2.76m0 0-.03-.05m32.8 80.08v-34.3m0 0v-.26m4.68 32.07v-34.29m0 0v-.26m-26.1-45.19-1.99-2.76m32.76 80.02v-34.29m0 0v-.26m-8.48-30.72 4.5-2.39m-5.12 2.79 2.06-1.09m0 0 .33-.18m.51-.27.45-.24m-36.62 85.41v-3.7m0 0v-3.57m-25.69-45.09.04.02m-.04-.09 6.28 1.61m51.45-138.47-.83-1.15m0 0-.15-.21M69.04 217.11l3.81 5.29m0 0 10.74 14.91m118.86 8.13-4.5 2.39m4.5-2.46-4.5 2.38m-55.92 53.9-4.63 2.46m4.63-2.53-4.63 2.46m-28.01-109.52 4.64-2.46m-4.73 2.42.05-.02m13.96 19.38 4.63-2.46m-4.67 2.39 4.63-2.46m-82.35-43.4.05.01m15.22.68-.2-.06m0 0-3.39-.86m7.48 18.14v-.09m54.29 6.34-.08-.12m-8.51 5.61-.03-.03m-37.53 97.33v-.66m0 0v-.18m0 0v-.3m0-43.29v-.71m0-.85v-.29m-27.52 44.47v-4.11m210.65-41.17-.03-.05m136.63 49.09v-69.07m0 0v-.27m4.54 66.93v-69.07m0 0v-.27m-26.1-44.94-.11-.15M332.03 353.1v-34.29m0 0v-.27m-30.78-42.71-42.88-59.52m0 0-.04-.04m78.38 134.34v-34.29m0 0v-.26m-30.78-42.71-42.89-59.52m0 0-.03-.04m47.6 57.08-42.89-59.52m0 0-.03-.04m73.69 136.82v-34.29m0 0v-.26m-4.82-60.44-13.87-19.25m46.76 99.36v-34.29m0 0v-.27m-30.77-42.71-42.89-59.52m0 0-.03-.04m50.26 114.62-30.73-42.65m0 0-1.99-2.76m0 0-.04-.05m32.8 80.07v-34.29m0 0v-.26m4.64-2.54-30.74-42.65m0 0-1.98-2.76m0 0-.04-.05m32.8 80.07v-34.29m0 0v-.26m4.63-2.55-30.73-42.65m0 0-1.99-2.75m0 0-.03-.05m32.8 80.07V306.4m0 0v-.27m4.68 32.08v-34.29m0 0v-.27M334 258.46l-1.99-2.76m32.76 80.03v-34.29m0 0v-.27m-8.48-30.72 4.5-2.38m-5.12 2.79 2.06-1.1m0 0 .33-.17m.51-.27.45-.24m-36.62 85.4v-3.7m0 0v-3.57m-25.69-45.08.04.01m-.04-.08 6.28 1.6m51.45-138.46-.83-1.15m0 0-.15-.22m-54.04 27.89-.26.14m-35.49 74.51 3.81 5.29m0 0 10.74 14.91m118.86 8.14-4.5 2.38m4.5-2.46-4.5 2.39m-55.92 53.9-4.63 2.46m4.63-2.54-4.63 2.46m-28.01-109.51 4.64-2.46m-4.73 2.42.05-.03m13.96 19.38 4.63-2.46m-4.67 2.4 4.63-2.46m-82.3-43.4 7.41 1.9m0 0 .26.06m0 0 .04.02m7.72 1.97.08.02m-.49-3.34-3.39-.87m0 0-8.34-2.13m15.82 20.27V235m55.69 25.69-9.77-13.56m-37.78 96.33v-.17m-27.52.1v-1.07m0-5.23v-.67m0 0v-.18m0-.29v-.18m32.31-249.14-.03-.04m71.4 73.3-.02-.03m0 0-.02-.03m56.23-88.7-.01-.02m0 0-.03-.04m4.54-2.33-.02-.02m0 0-.02-.04m4.58 67V66.6m0 0v-.27m0 0-.02-.02m0 0-.02-.04m4.58 67V64.19m0 0v-.26m-65.14 93.41-30.73-42.65m35.41 40.17-30.73-42.65m35.41 40.17-30.73-42.65M352.85 92l-13.87-19.25m46.76 99.36v-34.29m0 0v-.27m-.04-.06-30.74-42.65m16.96 14.83-.11-.15m23.48-35.98-.02-.03m0 0-.02-.03m-4.5 2.47-.02-.03m0 0-.02-.03m-4.5 2.47-.02-.03m0 0-.03-.03m-4.49 2.46-.02-.02m0 0-.03-.04m-4.5 2.47-.01-.02m0 0-.03-.04m-4.5 2.47-.01-.02m0 0-.03-.04m-4.5 2.47-.02-.02m0 0-.02-.04m-4.5 2.47-.02-.02m0 0-.02-.04m-47.79-5.16-.03-.05m51.34 62.29-30.73-42.65m35.41 40.17-30.73-42.65m30.78 77.26v-34.29m0 0V145m4.63-2.54-30.73-42.65m30.77 77.26v-34.29m0 0v-.26m-26.09-45.19-1.99-2.76m32.76 80.02V140.3m0 0v-.26m-8.48-30.73 4.5-2.38m-5.12 2.79 2.06-1.09m0 0 .33-.18m.51-.27.45-.24m-56.36 34.58 7.91 2.02M313 140.92l6.27 1.61M370.73 4.06l-.83-1.15m0 0-.15-.21m-89.79 102.53 3.81 5.3m0 0 10.74 14.9m118.86 8.14-4.5 2.39m4.5-2.46-4.5 2.38m-32.53 41.5-4.63 2.45m4.63-2.53-4.63 2.46m-51.4-97.11 4.64-2.46m-4.73 2.42.05-.02m13.96 19.37 4.63-2.45m-4.68 2.39 4.64-2.46m-82.35-43.41.04.02m15.23.67-.21-.05m0 0-3.38-.86m7.48 18.56v-.42m0-7.95v-.42m54.78 15.29-.03-.03m-9.05 4.85-.03-.03m-37.53 52.9v-.72m0 0v-.66m0 0V137m0-.3v-.17m0 0v-26m-27.52 66.54v-.37m210.19-40.35-.04-.05m71.4 107.86v-34.29m0 0v-.27m60.69-21.8v-69.07m0 0v-.27m4.55 66.93v-69.07m0 0v-.27m4.54 66.94v-69.08m0 0v-.27m-65.1 128.04v-34.29m0 0v-.27m-30.77-42.71-42.89-59.52m0 0-.03-.04m78.37 134.35v-34.3m0 0v-.26m-30.78-42.71-42.88-59.52m0 0-.04-.04m47.6 57.08-42.88-59.52m0 0-.04-.04m73.7 136.82v-34.29m0 0v-.26m-4.82-60.44-13.88-19.25m46.76 99.36v-34.29m0 0v-.27m-30.77-42.71-42.89-59.51m0 0-.03-.05m60.49 50.24-42.88-59.52m0 0-.03-.04m32.68 123.94-30.73-42.65m0 0-1.99-2.76m0 0-.03-.05m32.79 80.07v-34.29m0 0v-.26m4.64-2.54-30.73-42.65m0 0-1.99-2.76m0 0-.03-.05m32.79 80.07v-34.29m0 0v-.26m4.64-2.54-30.74-42.65m0 0-1.98-2.76m0 0-.04-.05m32.8 80.07v-34.29m0 0v-.26m4.68 32.07V192.5m0 0v-.27m-26.1-45.19-1.99-2.76m32.77 80.03v-34.29m0 0v-.27m-8.48-30.72 4.49-2.38m-5.12 2.79 2.07-1.1m0 0 .32-.17m.51-.27.46-.24m-43.61 43.32-.12-.17m0 0-.1-.14m7.2 38.69v-3.57m0 0v-25.12m-20.45-18.62.22.06m0 0 .26.07m0 0 .23.05m-6.21-1.66.26.07m0 0 6.28 1.6m51.45-138.46-.83-1.15m0 0-.15-.22M473.36 153.9l.66.91m0 0 .1.14m0 0 3.82 5.29m129.59 23.05-4.49 2.38m4.49-2.45-4.49 2.38m-55.93 53.9-4.63 2.46m4.63-2.53-4.63 2.45m-28-109.51 4.63-2.46m-4.72 2.42.04-.03m13.97 19.38 4.63-2.46m-4.68 2.4 4.63-2.46m-82.35-43.41.05.01m15.22.68-.2-.05m0 0-3.38-.87m7.47 18.15v-.09m55.69 25.69-9.77-13.56m-37.77 97v-.67m-27.52-5.25v-.37m-345.67-29.37-.03-.05m60.7 57.33-30.73-42.65m0 0-1.99-2.76m0 0-.03-.05m4.71-2.43-.03-.05m27.04 13.42 1.31-.69m-63.58 18.11-.04-.06M63.3 209.14l.65.91m4.17 5.78.16.22m138.71 26.98-4.5 2.39m4.5-2.46-4.5 2.39m0 0-.04.02m-60.37 56.19-.05.02m-32.68-107.12 4.41-2.34m14.18 19.26.05-.03M45.6 167.92l7.41 1.89m11.7 15.92v-7.86m54.76 14.84-.47-.64m-8.41 5.75-.18-.26m-37.56 96.16v-.17m0-43.83v-.67m0 0v-.18m0-.29v-.18m0 0v-26m47.94 72.23v-.66m0 0v-.18m0 0v-.3m-75.46-4.55v-.37m0 0v-.75m0 0v-.66m0 0v-.18m0 0v-.3m277.31-52.86-26.93-37.38m62.86 78.44-.33-.46m0 0-.18-.25m1.99 29.42-30.73-42.65m0 0-1.99-2.76m0 0-.03-.04m4.71-2.44-.03-.04m27.04 13.42 1.31-.69m-45.03 43.84-.11-.14m0 0-.65-.91m0 0-.16-.22m0 0-.26-.36m-3.55-4.92-.06-.09m0 0-.03-.05m-7.49-10.39-6.24-8.65m-.3-.43-.14-.19m3.15-94.18-.04.02m-41.49 66.68.65.91m4.17 5.79.16.22m138.71 26.98-4.5 2.38m4.5-2.45-4.5 2.38m0 0-.04.02m-60.37 56.19-.05.02m-32.68-107.12 4.41-2.34m14.18 19.26.05-.02M239.52 217l.4.1m15.43 3.95.26.07m0 0 .05.01m3.68 13.87v-7.86m64.77 28.73-9.77-13.56m0 0-.03-.04m0 0-.19-.26m-46.64 101.28v-.3m0-44.01v-.67m0 0v-.17m0 0v-.3m47.94 46.06v-.67m0 0v-.18m0 0v-.29m-75.46-.44v-4.11M348.32 157.4l-.02-.02m0 0-.03-.04m4.72-2.42-.01-.02m0 0-.03-.04m4.72-2.42-.01-.02m0 0-.03-.04m28.11-14.83-.02-.02m0 0-.02-.04m-13.74-27.77-.04-.05m-8.73-12.12-3.5-4.86m-28.12 14.56-1.98-2.76m0 0-.04-.04m-13.96-19.38-26.9-37.34m78.34 99.75-.02-.02m0 0-.03-.04m4.73-2.42-.02-.02m0 0-.03-.04m4.72-2.42-.01-.03m0 0-.03-.03m4.68-2.48-30.73-42.65m25.02 10.61 1.31-.69m-63.58 18.11-.04-.06m-38.78-28.03.65.91m4.17 5.78.16.22m138.71 26.98-4.5 2.39m4.5-2.46-4.5 2.38m0 0-.04.03m-36.99 43.78-.04.02m-56.07-94.71 4.41-2.35m14.18 19.27.05-.03m-82.4-43.43 7.41 1.89m11.71 16.01v-.09m0 0V66m0-.42v-.08m0 0v-7.39m54.96 23.02-.18-.26m-8.9 5.08-.18-.26m-37.56 97.3v-.66m0 0v-.18m0 0v-.3m-27.52-5.15v-.75M533.1 122.4l-26.94-37.38m62.86 78.44-.33-.46m0 0-.18-.25m2 29.42-30.74-42.65m0 0-1.99-2.75m0 0-.03-.05m4.71-2.44-.03-.04m27.05 13.42 1.3-.69m-45.13 43.7-.66-.91m0 0-.16-.22m0 0-.26-.36m-12.83-7.3.66.17m99.67-11.17-4.49 2.39m4.49-2.46-4.49 2.38m0 0-.05.03m-60.37 56.18-.05.03M514.43 132.3l4.42-2.34m14.18 19.26.04-.02m-82.39-43.44 7.41 1.9m11.7 15.92v-7.86m64.77 28.73-9.77-13.56m0 0-.03-.04m0 0-.19-.26m-8.86 5.12-.03-.04m-37.74 96.37v-.17m0-44.31v-.66m0 0v-.18m0 0v-.3m47.93 46.06v-.67m0 0v-.18m0 0v-.29m-75.45-4.92v-.75m-405.9-50.53-.05-.07m121.23 52.99-1.31-1.82m-.78-1.08-.18-.26m-12.04 36.87-30.73-42.65m0 0-1.99-2.76m0 0-.04-.04m-13.96-19.38-26.9-37.33m88.44 59.17 4.49-2.39m-5 2.73 8.63-4.58m-58.48 41.74-7.19-9.97m-6.54 6.57 3.63.92m0 0 .91.24m0 0 .65.16m-46.28-48.21 2.27 3.15m4.56 6.33.26.36m78.59 83.34-4.63 2.46m4.63-2.53-4.63 2.46m-28.01-109.52 4.64-2.46m-4.95 2.54.22-.12m14.01 19.35 4.63-2.45m-4.68 2.39 4.64-2.46m-79.57-39.02.26.07m11.44 7.99v-.41m54.78 15.29-.02-.04m-8.84 5.16-.04-.05m10.2 95.67v-.18m0 0v-30.17m-75.46 23.54v-.18m193.82-62.09-.05-.07m127.88-49.82-.26-.36m0 0-4.37-6.07m-2.02 109.23-1.31-1.81m0 0-.45-.63m-.51-.71-.33-.45m-44.51-8.2-13.84-19.21m61.46 21.73 4.49-2.38m-5 2.73 8.63-4.58m-46.56 58.28-6.98-9.69m0 0-.12-.17m-1.18-1.63-.16-.22m0 0-3.39-4.7m-7.28-10.11-.04-.06m0 0-.26-.36m-6.24-8.65-.04-.07m0 0-.26-.36m.3 16.07 3.63.93m0 0 .91.23m0 0 .65.17m1.76-114.02-4.24 2.25m-43.8 63.55 2.27 3.15m4.56 6.34.26.36m78.59 83.34-4.63 2.45m4.63-2.53-4.63 2.46M308.7 241.3l4.64-2.45m-4.95 2.53.22-.12m14.01 19.36 4.63-2.46m-4.68 2.39 4.64-2.45m-87.29-41 .26.07m0 0 .05.01m19.11 9.96v-.42m54.78 15.29-.02-.03m-8.84 5.15-.04-.05m0 0-.18-.25m0 0-.03-.04m-37.53 96.2v-.18m0-44.97v-.18m0 0v-26m47.94 71.1v-.18m0 0V312.4m-75.46 25.81v-.37m0 0v-.75m0-32.67v-.3m15.48-240.85-.05-.07M368 104.22l-.27-.36m-4.28-5.94-.26-.37m-3.68-5.11-42.89-59.52m45.69 116.98-30.74-42.65m-2.06-2.87-13.84-19.2m65.39 54.86-.01-.03m0 0-.03-.03m-3.9-33.07 4.5-2.39m-5 2.73 8.63-4.58m-58.48 41.74-7.19-9.97m-6.54 6.57 3.63.92m0 0 .91.24m0 0 .65.16m-46.28-48.21 2.27 3.15m4.56 6.33.26.36m101.98 70.94-4.64 2.45m4.64-2.53-4.64 2.46m-51.39-97.11 4.63-2.46m-4.94 2.53.22-.11m14.01 19.35 4.63-2.45m-4.68 2.39 4.63-2.46m-79.57-39.02.27.07m66.44 23.17-.04-.05m-9.05 4.86-.03-.04m-37.74 95.9v-.18m-27.52-5.72v-.66m193.36-62.3-.05-.07m121.22 52.98-1.3-1.81m0 0-.46-.63m-.51-.71-.32-.45m-44.52-8.2-13.84-19.21m61.46 21.73 4.5-2.38m-5.01 2.73 8.63-4.58m-54.84 46.79-.16-.22m-13.58-7.31.91.23m-43.36-44.89.66.9m4.17 5.79.15.22m78.43 83.12-4.63 2.46m4.63-2.54-4.63 2.46m-28-109.51 4.63-2.46m-4.94 2.53.21-.11m14.01 19.35 4.64-2.46m-4.68 2.4 4.63-2.46m-79.57-39.02.26.07m11.44 7.99v-.42m54.78 15.29-.02-.03m-8.87 5.11-.19-.26m-37.55 96.46v-.3m0-45.15v-.18m0 0v-26m47.93 71.1v-.18m0 0v-30.18m-75.45 24.69V225M44.55 175.18l-.03-.04m119.87 51.1-.45-.63m0 0-.33-.45m-.18-.26-.33-.45m-44.51-8.2-13.84-19.2m69.58 17.49 14.24-7.55m-67.9 55.98-.11-.15m0 0-.65-.91m0 0-.16-.21m0 0-.26-.37m-3.55-4.92-.06-.09m0 0-.03-.04m-7.49-10.4-6.24-8.65m5.19 16.97.23.06M67.7 215.25l.16.22m78.89 83.6-.04.03M113.98 192l.05-.02m18.59 16.92.05-.03m-79.4-38.99.04.01m11.4 7.57v-.09m0 0v-7.39M119.68 193l-.19-.25m1.44 19.42-.37-.52m-47.71 50.54v-.29m166.33-37.45-.03-.04m131.76-44.44-3.88-5.39m0 0-.05-.06m-4.63-6.43-.05-.06m-62.92 78.28-.03-.04m69.61 17.54 14.24-7.56m-81.26 47.22.23.06m1.79-114.22-.26.14m-41.37 75.07.16.22m78.89 83.6-.04.02m-32.73-107.1.05-.02m18.59 16.92.05-.02m-67.96-31.42v-.09m0 0v-7.39m54.76 22.74-.47-.65m0 0-.08-.11m-8.54 5.57-.46-.64m0 0-.08-.11m-64.51 89.73v-30.32m0 0v-.11m0 0v-.74m0 0v-.18m0-.3v-.18m15.51-240.63-.03-.04m119.42 50.47-.33-.45m0 0-.18-.26m-2.54-3.51-3.77-5.24m0 0-.04-.06m-.27-.36-4.23-5.88m0 0-.05-.06m-3.76-5.23-.16-.22m0 0-.02-.03m2.84 57.52-.02-.02m0 0-.02-.04m22.94-47.23 14.24-7.55m-67.91 55.97-.1-.14m0 0-.65-.91m0 0-.16-.22m0 0-.26-.36m-3.55-4.92-.06-.09m0 0-.03-.04m-7.5-10.4-6.23-8.65m5.19 16.97.23.06m-39.84-39.01.16.22m102.28 71.2-.04.02M324.9 80.13l.04-.03m18.6 16.93.05-.03m-79.4-38.99.04.01m76.17 36.71-9.77-13.55m1.22 19.12-.38-.53m-75.22 75.52v-.18m193.38-62.08-.02-.04m60.22 21.9-.03-.04m69.61 17.54 14.25-7.56m-69.25 54.13-3.38-4.7m-14.13-3.62.26.07m-41.05-46.88 2.27 3.16m4.56 6.33.27.36m78.63 83.24-.05.02m-32.73-107.09.05-.03m18.6 16.92.04-.02m-79.4-38.99.05.01m11.39 7.56v-.08m0 0v-7.4m54.76 22.74-.46-.64m0 0-.09-.12m-8.51 5.61-.02-.04m-37.53 96.2v-.18M450.42 225v-.18M61.27 198.39 44.7 175.4m0 0-.15-.22m126.2 41.19 4.49-2.39m17.86-9.4.27-.13m-65.6 68.38-6.98-9.69m0 0-.12-.17m-1.18-1.64-.16-.22m0 0-3.39-4.7m-7.28-10.1-.04-.07m0 0-.26-.36m-.82 8.38.26.07m0 0 .23.06m-63.6-71.44.07.09m0 0 .37.52m0 0 .46.64m18.62 25.85.23.31m87.21 86.33-4.64 2.46m4.64-2.53-4.64 2.45m-28-109.51 4.63-2.46m-9.35 4.88 4.41-2.35m14.23 19.24 4.63-2.45m-4.68 2.39 4.63-2.46m-83.94-36.46 7.41 1.9m68.76 34.82-9.77-13.56m0 0-.03-.05m.88 18.65-.16-.23m0 0-9.77-13.55m-37.78 95.68v-30.32m0 0v-.12m0 0v-.74m0 0v-.18m0-.29v-.18m-27.52-6.57v-.29m210.57-7.2-16.57-23m0 0-.15-.21m123.12-56.42-.26-.36m-6.41 103.13-.1-.15m9.85-5.02 4.49-2.38m17.86-9.4.27-.14m-85.83 49.82.26.06m0 0 .23.06M304 189.29l-.04.02m-64.9 42.9.07.1m0 0 .37.51m0 0 .46.64m18.62 25.85.23.32m87.21 86.33-4.64 2.45m4.64-2.53-4.64 2.46m-28-109.52 4.63-2.45m-9.35 4.87 4.41-2.34m14.23 19.24 4.63-2.46m-4.68 2.39 4.63-2.45m-64.4 55.84v-.3m4.71-224.64-16.57-23m0 0-.15-.21m119.84 51.06-.45-.63m-.51-.71-.33-.45m0 0-2.06-2.86m9.71-5.22 4.49-2.39m17.86-9.4.26-.14m-65.59 68.38-6.98-9.68m0 0-.13-.18m-1.17-1.63-.16-.22m0 0-3.39-4.7m-7.28-10.1-.04-.07m0 0-.27-.36m-.81 8.38.26.07m0 0 .23.06m-63.61-71.44.07.09m0 0 .37.52m0 0 .47.64m18.62 25.85.23.31m110.59 73.92-4.63 2.46m4.63-2.53-4.63 2.46m-51.39-97.11 4.63-2.46m-9.36 4.87 4.42-2.34M343.59 97l4.63-2.46m-4.68 2.4 4.63-2.46m-83.94-36.46 7.41 1.9m69.3 35.56-.38-.52m0 0-.16-.23m-8.93 5.04-.16-.22m0 0-9.77-13.56m-37.77 64.33v-.29m-27.52 25.08v-.3m210.11-38.57-16.57-23m0 0-.16-.21m107.73 34.24-3.51-4.87m21.98 11.81 4.5-2.38m17.86-9.4.26-.14m-91.29 48.42.05.01m0 0 3.62.93m-38.04-38.55.15.22m83.53 81.22-4.63 2.45m4.63-2.53-4.63 2.46M523.83 127.4l4.64-2.45m-9.36 4.87 4.41-2.34m14.23 19.24 4.63-2.46m-4.67 2.39 4.63-2.45m-83.94-36.46 7.4 1.89m49.67 25.74-.47-.64m0 0-.08-.11m-64.5 90.2v-.29M161 221.54l-.1-.15m27.67-14.4 3.88-2.06m0 0 .65-.35M45.33 184.2v.01m0 0 15.7 21.78m3.15 4.37.26.36m86.99 85.87-.04.03m-27.96-109.54 4.63-2.46m-9.62 5.01.22-.11m18.64 16.9.05-.03m0 0 4.63-2.46m-80.95-32.06.08.02m11.74 85.3v-.02M45.33 286.5v-30.31m0 0v-.12m0 0v-.74m0 0v-.18m0-.29v-.18m312.3-93.14-.04-.05m.14 112.23-2.06-2.86m0 0-.04-.06m-3.92-5.44-.26-.37M299.3 246.2l-26.9-37.33m0 0-.03-.05m110.83 47.43 3.88-2.05m0 0 .65-.35m-79.49-66.81-4.24 2.25m-64.04 44.17v.01m0 0 15.7 21.78m3.15 4.38.26.36m86.99 85.87-.04.02m-27.96-109.54 4.63-2.45m-9.62 5.01.22-.12m18.64 16.9.05-.02m0 0 4.63-2.46m-69.13 89.61v-30.32m0 0v-.11m0 0v-.74m0 0v-.18m0-.3v-.18m-27.52-7.04v-4.41m0 0v-.11m0 0v-.03m136.66-183.21-1.31-1.81m24.18-19.25 3.88-2.06m0 0 .65-.35M256.25 72.33v.01m0 0 15.7 21.78m3.15 4.37.26.36m114.88 71.16-4.5 2.38m4.5-2.46-4.5 2.39m0 0-.05.02m-51.34-97.13 4.63-2.46m-9.62 5.01.22-.11m18.64 16.89.04-.02m0 0 4.64-2.46m-80.95-32.07.08.02m11.74 121.66v-30.31m0 0v-.12m0 0v-.74m0 0v-.18m0-.29v-.18m-27.52 24.96v-.18m309.84-15.25-.11-.15m-56.23-24.45-26.9-37.33m0 0-.03-.05m110.84 47.43 3.87-2.05m0 0 .66-.35m-77.16 51.83-.07-.09m0 0-.03-.05m0 0-7.18-9.97m-64.24-63.36.07.1m0 0 .37.51m0 0 .46.65m18.63 25.84.22.32m87.25 86.23-.04.02m-27.96-109.54 4.63-2.45m-9.62 5.01.22-.12m18.64 16.9.05-.02m0 0 4.63-2.46m-80.95-32.07.08.02m11.75 121.66v-30.31m0 0v-.12m0 0v-.74m-27.52 24.31v-.18m-287.32.1-2.06-2.86m0 0-.04-.05m-8.73-12.12-3.5-4.86m26.52 9.4 4.5-2.39m-115.35-.85.23.32m0 0 3.03 4.21m88.36 78.96-4.63 2.46m4.63-2.53-4.63 2.45m-32.77-107.07.04-.03m18.6 16.84 4.41-2.34m0 0 .22-.12m-81.21-32.08.26.06m0 0 .05.02m11.82 89.85v-4.41m0 0v-.12m289.19-89.52-4.37-6.07m0 0-.04-.06m-2.1 109.11-3.78-5.23m0 0-.04-.06m-4.54-6.31-.27-.36m0 0-3.5-4.87m26.52 9.4 4.5-2.38M308.5 186.9l-.26.14m-49.17 72.95.23.32m0 0 3.03 4.21m88.36 78.96-4.63 2.45m4.63-2.53-4.63 2.46m-32.77-107.08.04-.02m18.6 16.83 4.41-2.34m0 0 .22-.11m-69.08 53.32v-.03m122.8-171.28-5.03-6.99m0 0-8.63-11.98m9.59-14.09 4.49-2.39m-115.34-.85.23.32m0 0 3.03 4.21m50.96-25.73.04-.03m18.6 16.84 4.41-2.35m0 0 .22-.11m-81.21-32.08.26.06m0 0 .05.01m11.82 85.33v-.03m284.42 17.01-2.07-2.86m0 0-.03-.06m-3.93-5.44-.26-.37m-4.28-5.94-.26-.36m-3.51-4.87-.15-.21m0 0-.03-.04m0 0-42.89-59.51m0 0-.03-.05m69.62 69.22 4.5-2.39m-134.46-27.37.01.01m0 0 15.69 21.77m3.15 4.38.26.36m91.63 83.49-4.64 2.45m4.64-2.53-4.64 2.46m-32.77-107.08.05-.02m18.59 16.83 4.42-2.34m0 0 .22-.11m-81.22-32.09.27.07m0 0 .04.01m11.83 90.51v-.18m-320.86 16.05-.26-.36m-4.28-5.94-.27-.37m-3.68-5.11-42.89-59.52m50.41 149.32-.05.03M118.7 189.49l4.42-2.34m-77.79 67.53v-4.41m0 0v-.12m0 0v-.03m306.12 14.87-4.24-5.87m0 0-.04-.07m-38.62-72.17-.05.02m42.24 156.48-.05.02m-37.36-104.64 4.42-2.34m-50.27 74.56v-4.41m0 0v-.11m-27.52-15.37v-.29m89.66-213.18 4.42-2.34m-50.27 74.57v-4.41m0 0v-.12m-27.52-2.04v-.29m309.73 16.24-3.77-5.23m0 0-.05-.06m-.26-.37-4.24-5.87m0 0-.04-.07m-43.87 36.52-.05-.06m0 0-.26-.36m0 0-6.23-8.65m-37.69-26.51.23.32m0 0 3.04 4.21m88.4 78.86-.04.02m-37.36-104.64 4.41-2.34m-50.26 75.04v-.3m-27.52 24.61v-30.32m0 0v-.11m0 0v-.74M160.9 221.39l-3.78-5.24m0 0-.04-.06m-.26-.36-4.24-5.88m0 0-.04-.06m-3.77-5.23-.16-.22m0 0-.02-.03m31.24 7.24 4.5-2.38m-23.59 82.56-4.63 2.46m4.63-2.54-4.63 2.46m-32.99-106.96.22-.11m220.06 66.78-.16-.21m0 0-.02-.04m0 0-42.89-59.51m0 0-.03-.05m74.16 66.81 4.5-2.39m-66.23-73.77-4.18 2.22m46.82 154.11-4.63 2.46m4.63-2.53-4.63 2.46m-32.99-106.96.22-.12m-78.01 63.09v-6.33m0-1.12v-.67m0 0v-.18m0-.29v-.18M390.75 99.68l4.5-2.39m-61.21-22.01.22-.11m-78.01 99.46v-30.31m0 0v-.12m0 0v-.74m0 0v-.18m0-.29v-.18m328.66 6.59 4.5-2.39m-82.2 28.07-.05-.06m58.67 54.56-4.64 2.45m4.64-2.53-4.64 2.46M528.2 125l.22-.12m-50.48 74.86v-.17m-27.52-6.39V193m-289.63 98.63-.05.02m-37.4-104.61.04-.03m-78.05 54.82v-.3m310.09 99.37-.05.02m-37.4-104.62.04-.02m-78.05 56.78v-.37m0 0v-.75m94.3-216.77.04-.03m172.86 99.88-.26-.37m0 0-.14-.19m59.11 55.02-.04.02m-37.41-104.62.05-.02m-50.53 74.71v-4.42M450.42 193v-.3m-266.05 16.44 4.5-2.38m-23.45 82.49-4.63 2.45m4.63-2.53-4.63 2.46m-37.41-104.62 4.42-2.34m0 0 .21-.11m-82.68 65.56v-6.33m0-1.12v-.66m0 0v-.18m0-.3v-.17M379 258.41l4.5-2.39m-68.67-72.48-1.79.95m0 0-.04.03m0 0-.27.14m47.32 153.85-4.63 2.46m4.63-2.53-4.63 2.46m-37.41-104.62 4.42-2.34m0 0 .21-.12m72.65-136.55 4.5-2.38M334.3 75.14l4.42-2.34m0 0 .21-.12m-82.68 70.13v-4.41m0 0v-.12m0 0v-.03m333.21 8.74 4.49-2.39m-23.45 82.49-4.63 2.46m4.63-2.53-4.63 2.46m-37.4-104.62 4.41-2.34m0 0 .22-.12m-55.16 72.75v-.11m0 0v-.03m-27.52-2.31v-.18m-261.51 14.21 4.46-2.36m-27.9 84.78-.05.02M45.33 243.79v-.37m0 0v-.75M383.54 256l4.46-2.36m-68.67-72.48-4.5 2.38m45.27 154.87-.05.03m-120.09-47.82V260.3m0 0v-.11m0 0v-.74m0 0v-.18m0 0v-.3m0 0v-.18m0-25.25v-.07M399.83 94.86l4.45-2.36M594 144.58l4.45-2.36M570.55 227l-.05.02m-120.08-34.5v-4.41M170.1 286.77l-4.63 2.45m4.63-2.53-4.63 2.46M45.33 210v-.29m275.04-29.1-1.04.55m45.4 154.87-4.63 2.46m4.63-2.53-4.63 2.45M239.96 233.96v-.42m16.29-95.29v-6.33m318.93 92.69-4.63 2.46m4.63-2.53-4.63 2.46m-120.13-38.89V188m-280.28 98.67-.04.02M45.33 241.36v-30.32m0 0v-.12m0 0v-.74m0 0V210m0-.29v-.18m275.99-29.43-.95.51m44.4 155.32-.04.03m-124.77-77.17v-24.76m0 0v-.07m16.29-102.04v-.37m0-1.59v-.3m0 0v-.18m318.98 95.03-.05.03M450.42 188v-.03m-275.64 96.32-4.64 2.45m4.64-2.53-4.64 2.46M45.33 184.27v-.06m276.84-4.56-.85.45m48.09 153.45-4.64 2.46m4.64-2.53-4.64 2.45M256.25 131.55v-.75m0-32.67v-.29m323.61 124.29-4.63 2.46m4.63-2.53-4.63 2.45m-124.81-36.54v-6.33m-271.1 100.24-4.5 2.38m4.5-2.46-4.5 2.39m0 0-.04.02M45.33 184.69v-.42m277.06-4.74-.22.12m51.78 151.49-4.5 2.39m4.5-2.46-4.5 2.38m0 0-.04.03M256.25 130.8v-.66m0 0v-.18m0-.48V99.17m0 0v-.12m0 0v-.74m0 0v-.18m0-.29v-.18M584.4 219.72l-4.5 2.39m4.5-2.46-4.5 2.38m0 0-.04.03m-129.44-40.42v-.37M45.33 209.53v-24.76m0 0v-.08m277.44-5.36-.38.2M256.25 72.4v-.06m194.17 108.93v-.75M323 179.21l-.23.12M256.25 72.82v-.42m194.17 108.12v-.67m-118.71-5.26-8.71 4.62m-66.75-81.55V72.9m0 0v-.08m194.17 107.03v-.17m0 0v-.3m-107.09-10.95-4.58 2.43m0 0-.06.03m0 0-6.98 3.7m118.71 4.79v-.18m-106.83-10.91-.26.14m.31-.17-.05.03m106.83-20.44v-.3m-102.41 18.4-4.37 2.31m106.78 10.94v-30.31m0 0v-.12m0 0v-.74m0 0v-.18m0-.3v-.17m-102.15 18.43-.26.14m102.41-43.83v-.06m-102.1 43.72-.05.03m102.15-43.27v-.42m-97.73 41.35-4.37 2.31m102.1-18.4v-24.76m0 0v-.08m-97.47 40.79-.26.14m.36-.2-.06.03m0 0-.04.03m-287.32 32.9 27.15 37.68m-28.07-47.67 32.61 45.26m32.01-22.66 8.18-4.33m-9.63-19.73 13.83 19.21m-77-26.12 36.97 51.32m-38.21-62 42.89 59.51m-38.21-61.99 42.89 59.51M45.6 175.4l7.41 10.28m19.82-23.45 42.88 59.51m-38.2-62 42.88 59.52m-33.53-64.48 26.9 37.34M91.54 152.3l26.9 37.33m-13.69 7.42 4.41-2.34m4.68-2.48-4.63 2.45m-.98 2.3 12.02 16.68m2.87-26.51-26.9-37.33m21.09 42.34 12.02 16.68m-6.13-21.58-4.63 2.46m79.08-11.43-42.89-59.52m47.43 57.11-42.89-59.52m47.43 57.11-43.8-60.78m25.68 70.39-42.89-59.52m47.38 57.13-42.88-59.51m-22.42 63.49-26.9-37.33m47.42 57.11-42.88-59.52m78.63 40.56-42.89-59.52m38.34 61.93-42.88-59.52m38.34 61.93-42.88-59.52m38.34 61.93-42.88-59.52m38.34 61.92-42.89-59.51m38.35 61.92-42.89-59.51m38.35 61.92-42.89-59.51m38.34 61.92-42.88-59.52m18.49 41.95-4.64 2.46M21.45 236.56l23.88 6.11m27.52 7.05-9.55-2.45m-41.85 34.44 23.88 6.11m17.97 4.6 9.55 2.44m33.81-3.84 14.13 3.61m139.47-49.13 27.15 37.67m-28.07-47.67 32.61 45.26m32.01-22.65 8.18-4.34m-9.63-19.72 13.83 19.2m-96.11-28.59 7.41 10.28m11.7-7.8 36.97 51.31m-38.21-62 42.89 59.52m-38.21-62 42.89 59.52m-38.21-62 42.88 59.52m-38.2-62 42.88 59.52m-15.64-22.22 4.41-2.34m4.68-2.48-4.63 2.46m-.98 2.29 12.02 16.69m-33.39-58.88 26.9 37.33m-22.22-39.81 26.9 37.33m4.68-2.48-26.9-37.33m26.98 37.44-4.63 2.46m-1.26 2.44 12.02 16.68m59.28-25.77-42.89-59.51m47.38 57.13-42.88-59.52m47.43 57.11-42.89-59.52m47.43 57.11-42.89-59.51m47.43 57.1-43.8-60.78m21.14 72.8-42.89-59.51m38.34 61.92-42.88-59.51m-8.84 56.29-26.9-37.34m47.42 57.11-42.88-59.51m69.54 45.37-42.88-59.52m38.34 61.93-42.88-59.52m38.34 61.93-42.89-59.52m38.35 61.93-42.89-59.52m38.35 61.93-42.89-59.52m38.34 61.93-42.88-59.52m18.49 41.95-4.64 2.45m-50.39 62.48-9.55-2.44m-41.85-10.71 23.88 6.11m17.97 49.75 9.55 2.44m-27.52-7.04-23.88-6.11m85.21 9.3 14.13 3.62M275.63 74.37l32.61 45.26m-31.69-35.27 27.15 37.68m36.55-25.07 8.18-4.33m-9.64-19.73 13.84 19.2m-77-26.11 36.97 51.31m-38.21-61.99 42.89 59.51m-38.21-61.99 42.88 59.51m-38.2-62 42.88 59.52m-38.21-62 42.89 59.52m-33.53-64.48 26.9 37.33m-22.22-39.81 26.9 37.33m-72.85-14.23 7.41 10.28m51.75 11.37 4.41-2.34m4.68-2.49-4.63 2.46m-.98 2.3 12.02 16.68m2.87-26.51-26.9-37.33m21.09 42.34 12.02 16.68m-6.13-21.58-4.64 2.46m70.05-6.64-42.89-59.52m47.38 57.13L361.14 9.31m47.42 57.1L365.68 6.9m47.43 57.11L370.22 4.49m47.43 57.11L373.85.82M338.72 72.8l-26.91-37.33m47.43 57.11-42.88-59.52m78.62 40.56L352.1 14.1m38.34 61.93-42.88-59.52m38.34 61.93-42.88-59.52m38.34 61.92-42.89-59.51m38.35 61.92-42.89-59.51m38.35 61.92-42.89-59.51m38.34 61.92-42.88-59.52m38.34 61.93-42.88-59.52m18.48 41.95-4.63 2.46m-77.91 55.43-23.88-6.11m23.88 51.26-23.88-6.11m51.4 13.15-9.55-2.44m47.1-.45-3.74-.96m153.14-45.06 27.14 37.67m-28.07-47.67 32.61 45.26m32.02-22.65 8.17-4.34m-9.63-19.72 13.84 19.2m-96.12-28.59 7.41 10.29m11.7-7.81 36.97 51.31m-38.2-62 42.88 59.52m-38.21-62 42.89 59.52m-38.21-62 42.89 59.52m-38.21-62 42.89 59.52m-15.65-22.22 4.42-2.34m4.68-2.48-4.64 2.46m-.98 2.29 12.02 16.69m-33.38-58.88 26.9 37.33m-22.23-39.81 26.9 37.33m4.68-2.48-26.9-37.33m26.98 37.44-4.63 2.46m-1.26 2.44 12.03 16.68m63.77-28.15L555.3 59.02m47.43 57.11-42.89-59.51m47.43 57.1-42.89-59.51m47.43 57.1-43.8-60.78m25.68 70.4-42.88-59.52m-17.93 61.11-26.9-37.33m47.43 57.1-42.89-59.51m78.63 40.55-42.89-59.51m38.35 61.92-42.89-59.51m38.35 61.92-42.89-59.51m38.34 61.92-42.88-59.52m38.34 61.93L528.1 73.45m38.34 61.93-42.88-59.52m38.34 61.93-42.89-59.52m38.35 61.93-42.89-59.52m18.49 41.95-4.63 2.46m-101.8 49.32 23.89 6.11m27.52 7.04-9.56-2.44m0 45.15 9.56 2.44m-27.52-7.04-23.89-6.11m85.21 9.3 14.13 3.62M61.03 196.81l3.63-1.92m191 51.19 3.63-1.93m12.66-159.21 3.63-1.92m190.53 51.64 3.63-1.93" style="fill:none;stroke:currentColor;stroke-linecap:round;stroke-linejoin:round;stroke-width:.5px"/>
</svg>