<svg class="svg-drawing" viewBox="0 0 500 500" xmlns="http://www.w3.org/2000/svg">
  <defs></defs>
  <path d="M 184.426 356.148 C 182.315 336.437 181.65 315.288 174.18 296.721 C 168.703 283.106 160.419 270.781 152.869 258.197 C 149.186 252.06 147.335 244.989 144.262 238.525 C 134.081 217.11 123.865 195.427 120.902 171.721 C 119.941 164.029 114.386 135.423 115.984 121.721 C 119.158 94.507 140.22 68.76 163.115 55.328 C 174.404 48.705 188.599 46.666 201.23 44.672 C 212.265 42.93 219.568 42.798 231.967 42.623 C 234.972 42.581 238.221 41.439 240.984 42.623 C 251.887 47.296 263.39 51.817 272.131 59.836 C 280.424 67.444 284.885 78.405 290.574 88.115 C 298.95 102.412 300.112 120.395 300.41 136.475 C 301.005 168.594 290.165 199.025 288.115 231.148 C 286.587 255.09 284.303 278.846 285.656 302.869 C 285.925 307.651 282.059 315.361 286.475 317.213 C 291.061 319.136 294.034 310.649 298.361 308.197 C 310.508 301.314 331.24 299.377 344.672 302.869 C 359.927 306.835 368.151 309.804 380.328 322.131 C 385.787 327.657 389.281 334.835 393.443 341.393 C 407.829 364.062 414.079 374.539 416.393 400 C 417.26 409.538 417.274 420.454 411.066 428.689 C 406.112 435.261 386.734 436.481 379.098 439.754 C 361.655 447.229 342.994 453.309 323.361 450 C 310.169 447.777 295.154 440.743 282.787 435.246 C 276.918 432.638 270.37 431.219 265.164 427.459 C 260.299 423.945 256.715 418.855 253.279 413.934 C 251.595 411.521 252.632 407.054 250 405.738 C 248.045 404.761 250.271 410.126 250 412.295 C 249.312 417.8 249.908 423.887 247.131 428.689 C 243.068 435.715 236.71 441.297 230.328 446.311 C 222.088 452.785 198.382 454.379 192.213 454.918 C 167.042 457.118 148.233 451.566 128.689 433.607 C 126.147 431.271 123.11 421.909 122.131 417.623 C 117.074 395.493 124.821 363.156 148.361 353.689 C 164.159 347.335 183.214 350.09 198.77 354.918"></path>
  <path d="M 115.984 131.967 C 158.069 142.879 196.254 149.294 240.164 144.672 C 248.935 143.749 257.852 141.556 265.574 137.295 C 278.198 130.33 290.255 120.549 302.459 112.705"></path>
  <path d="M 209.016 43.443 C 211.371 76.401 226.83 115.221 220.082 146.721"></path>
  <path d="M 359.016 326.229 C 368.903 311.02 379.564 299.292 395.082 290.164"></path>
  <path d="M 378.689 359.426 C 385.981 360.549 393.466 359.241 400.82 359.836 C 418.91 361.3 436.885 363.935 454.918 365.984"></path>
  <path d="M 321.721 418.852 C 341.232 433.484 366.827 454.303 377.459 476.229 C 379.326 480.079 379.686 484.503 381.148 488.525"></path>
  <path d="M 136.475 420.492 C 126.836 424.941 118.21 424.033 107.787 425.41 C 106.2 425.62 95.074 428.185 93.443 430.328 C 89.817 435.093 87.978 440.983 85.246 446.311"></path>
  <path d="M 198.77 433.607 C 203.042 447.349 206.886 461.412 213.525 474.18"></path>
  <path d="M 161.066 381.148 C 153.825 375.41 147.776 367.709 139.344 363.934 C 123.878 357.01 106.831 354.371 90.574 349.59"></path>
  <path d="M 284.426 373.361 C 286.475 370.902 287.58 367.116 290.574 365.984 C 299.295 362.687 308.88 362.432 318.033 360.656"></path>
  <path d="M 352.049 394.262 C 361.749 402.049 371.448 409.836 381.148 417.623"></path>
</svg>